<svg xmlns="http://www.w3.org/2000/svg" id="Layer_1" data-name="Layer 1" viewBox="0 0 1108.24 1108.24"><defs><style>.cls-1{fill:none;stroke:#fff;stroke-miterlimit:10;stroke-width:21.85px;}.cls-2{fill:#fff;}</style></defs><path class="cls-1" d="M195.24,1100c3.33-113.33,48.63-204.29,140.63-269.47,110.37-78.2,255.93-80.63,367.77-6.38C801.32,889,849.37,982.15,853.76,1100Z"></path><path class="cls-1" d="M343,567.16c.62-99.72,83-180.82,182.45-179.72,101,1.12,181.26,82.6,180.47,183.28-.78,100-83.51,180.86-184,179.86C422.41,749.59,342.41,667.57,343,567.16Z"></path><path class="cls-2" d="M361.29,28c8.7,2.17,17.58,3.81,26.08,6.6a134.06,134.06,0,0,1,92.16,138.56C474.64,234.85,425.92,286,364,294.33,290.64,304.23,223.09,253,213.42,180,203.64,106.25,253.51,40.36,327.5,29.23A14.31,14.31,0,0,0,330.62,28ZM234.43,161.15c-.34,61.2,49.35,111.6,110.56,112.15,61.44.55,112.12-49.42,112.49-110.92.38-61.17-49.36-111.61-110.56-112.13C285.42,49.73,234.77,99.66,234.43,161.15Z"></path><path class="cls-2" d="M718.15,28c8.7,2.17,17.58,3.81,26.08,6.6a134.07,134.07,0,0,1,92.16,138.56C831.5,234.86,782.78,286,720.84,294.33,647.49,304.23,580,253,570.27,180c-9.84-73.69,40.09-139.65,114.09-150.78A14.83,14.83,0,0,0,687.48,28ZM591.28,161.34c-.23,61.2,49.55,111.52,110.76,112,61.44.44,112-49.62,112.3-111.12C814.6,101,764.79,50.67,703.58,50.24,642.09,49.82,591.52,99.85,591.28,161.34Z"></path><path class="cls-2" d="M167.53,402.93c3.15-2.6,6-5.76,9.5-7.72q53.11-29.73,106.43-59.12c12.23-6.77,20.21-2,20.42,12.09q.9,61,1.78,121.93c.08,5.3-.1,10.31-5.29,13.43-5.42,3.25-10.16,1.11-14.94-1.74-7.76-4.63-15.63-9.06-24.35-14.1C248,492.21,230.24,515,241.65,545.42c2.52,6.72,4.94,13.48,7.32,20.26,1.76,5,1.43,9.67-2.88,13.31s-8.94,3.63-13.57.89c-26-15.39-44.54-36.27-48.92-67.29-2.85-20.16,2.35-39.13,9.73-57.62,2.73-6.86,6-13.52,9.33-20.91-8.36-4.87-16.82-9.57-25-14.68-3.64-2.26-6.76-5.36-10.11-8.08Zm47.8,131.66c.6-9.2.13-17.89,1.9-26.09,5-23.29,18.08-43,29.82-63.24,3.21-5.52,9.14-6.15,15.37-2.76,6.63,3.6,13.12,7.47,19.43,11.08V362.74l-80.2,44.56,18,10.49c9.91,5.76,10.47,9.93,5.79,20.55-6.69,15.19-13.44,30.54-18,46.43C202.52,501.81,205,518.75,215.33,534.59Z"></path><path class="cls-2" d="M788.17,467.47c-9.82,5.64-18.2,10.58-26.7,15.31-10.06,5.59-18.45.81-18.32-10.59q.75-63,1.8-126.06c.2-11.69,8.73-16.47,19.1-10.75q54.8,30.25,109.45,60.74c10.65,5.94,10.61,15.72,0,22-9,5.31-18,10.44-27,15.64,4.54,11.26,9.49,22,13.22,33,9.49,28.19,9.19,55.64-8.11,81.23-8.87,13.12-20.7,23.07-34.18,31.19-5,3-10,3.76-14.78-.29-4.54-3.88-4.28-8.66-2.62-14,3.66-11.67,8.35-23.29,9.88-35.27,1.09-8.5-.92-18.09-4-26.25C801.21,491.23,794.38,479.84,788.17,467.47Zm59-60.19-80.41-44.61v91.05c6.77-3.89,13.27-7.81,20-11.4,6.1-3.28,12-2.38,15.27,3.26,11.5,20.07,24.52,39.58,29.47,62.63,1.79,8.31,1.42,17.09,2.08,26.4a60.69,60.69,0,0,0,9.54-40c-2.14-20.95-10.45-39.73-20.43-57.94-4.51-8.25-3-13.21,5-18C833.73,415,839.92,411.48,847.15,407.28Z"></path><path class="cls-2" d="M330.07,180.08c14-19.52,27.52-38.32,41-57.12,1.62-2.26,3.14-4.6,4.88-6.77,4.24-5.3,11-6.48,16-2.88s6,10.25,2.21,16.12c-1.61,2.54-3.48,4.91-5.24,7.36Q364.79,170.4,340.68,204c-8.66,12-16.78,11.47-24.07-1.68-6.3-11.33-12.6-22.67-18.79-34.06-4.07-7.5-2.62-14.18,3.55-17.43,6-3.17,11.88-.95,16,6.34S325.48,171.77,330.07,180.08Z"></path><path class="cls-2" d="M702.86,146.27c10-10.13,19-19.42,28.18-28.65,7.28-7.33,14-8.34,19.19-3,5,5.17,4,11.71-3,18.71-9.33,9.32-18.7,18.59-28.53,28.37,10.64,10.62,20.82,20.71,30.9,30.9,4.24,4.28,5.15,9.32,2,14.57-2.91,4.83-7.63,6.11-12.71,4.5-2.49-.78-4.77-2.79-6.69-4.7-9.56-9.47-19-19.1-29.16-29.4l-14.37,14.35c-5.09,5.09-10.15,10.21-15.27,15.26-6.18,6.08-12.81,6.79-17.73,2s-4.42-11.63,1.61-17.7c9.64-9.7,19.38-19.3,29.79-29.65l-26.27-26.17c-1.65-1.64-3.36-3.22-4.91-4.94-4.61-5.16-4.71-11.84-.31-16.23s11.27-4.46,16.2.39C682,124.92,692,135.24,702.86,146.27Z"></path></svg>