<svg xmlns="http://www.w3.org/2000/svg" id="Layer_1" data-name="Layer 1" viewBox="0 0 1108.24 1108.24"><defs><style>.cls-1{fill:none;stroke:#fff;stroke-miterlimit:10;stroke-width:24px;}</style></defs><circle class="cls-1" cx="531.62" cy="498.75" r="215.67"></circle><path class="cls-1" d="M871.44,1075.77c-.75-2.63-11.67-42.6,7.95-58.39,8.37-6.74,19.31-6.64,38.76-6.48a192.73,192.73,0,0,1,45.4,5.84c17.31,5.6,25.52,22,21.41,33.73s-19,14.76-19.79,14.92a660.59,660.59,0,0,1-69.08,9.73c-39.82,3.48-50.93.81-121.62,2.92-38.91,1.16-43.57,2.21-71.67,2.27-31.21.07-56.9-1.16-74.27-2.27l-516.65,1c4.66-34.74,25.38-156.93,132.32-254.92C358.28,719.56,492.14,714.34,531.62,714.41c127.09.25,217,57.25,249.35,80.06"></path><path class="cls-1" d="M187.77,445.93,263.66,431q-18.17,30.17-36.32,60.33l34.38,69.4-79.14-16.21q-23.36,31.13-46.7,62.27L128.74,529,60.63,499.77,130,466.69l3.24-70.06Z"></path><path class="cls-1" d="M874.57,445.93,798.68,431,835,491.34l-34.38,69.4,79.14-16.21q23.36,31.13,46.7,62.27L933.6,529l68.1-29.19-69.4-33.08-3.24-70.06Z"></path><path class="cls-1" d="M562.19,97l76.73,9.78-53.5,45.79,10.74,76.7-70-40.34-64,44.37Q471.1,195.2,480,157.13L424.57,108l76.29-9.5L526,33Z"></path><path class="cls-1" d="M268.88,187.75l61.47-46.93q-3,35.09-5.9,70.16L386,258l-78.15,20.44q-7.17,38.25-14.35,76.5-20.42-33.33-40.82-66.66l-74,3.94,47.63-60.36q-14-32.13-28.07-64.27Z"></path><path class="cls-1" d="M795,187.75l-61.47-46.93L739.48,211,678,258l78.14,20.44q7.18,38.25,14.36,76.5l40.82-66.66,74,3.94L837.65,231.9l28.06-64.27Z"></path><rect class="cls-1" x="632.42" y="837.72" width="91.42" height="241.3"></rect><path class="cls-1" d="M966.1,1017.68c18.13-1.93,31.52-17.51,30.86-34.67-.6-15.56-12.63-29.14-28.87-31.78l-77.51,1c-3.63,1.92-12.14,7.09-16.22,17.19-5.63,14-.45,31.61,13.35,43.61"></path><path class="cls-1" d="M890.58,952.2c-23-10.93-31.57-32.74-25.3-45.4,5.21-10.51,19.72-12.9,22.38-13.3l105.41-2.27c1.76.18,14.95,1.74,21.73,13,5.56,9.23,3.13,18.91,2.27,22.38-5.55,22.15-32.13,30.06-34.32,30.67"></path><path class="cls-1" d="M987.58,891.35a30,30,0,0,0-6.19-57.2,314,314,0,0,0-96.65,2.59c-7.84,4.12-10.62,9.19-11.67,11.68-5.42,12.77,3,32,22.7,44.9"></path><path class="cls-1" d="M723.83,837.72a284.17,284.17,0,0,0,38.32-27.25c19.51-16.47,35.2-29.63,44.43-49.3,15.31-32.63,5.91-66.8,1-81.08,11.27.08,33.09,2.17,50,17.84,18,16.69,20.58,39.76,23,61.3,2.11,18.6.31,34.49-1.95,54.49-1.62,14.3-3.76,26.19-5.51,34.7"></path></svg>