<svg xmlns="http://www.w3.org/2000/svg" id="Layer_1" data-name="Layer 1" viewBox="0 0 1108.24 1108.24"><defs><style>.cls-1{fill:none;stroke:#fff;stroke-miterlimit:10;stroke-width:25.4px;}.cls-2{fill:#fff;}</style></defs><path class="cls-1" d="M631.72,1087.86H498.17v-70.71c-3.58-.89-6.27-1.52-8.95-2.22-29.44-7.76-59-15.1-88.24-23.6-7.37-2.15-10.78-1.93-14.59,5.15-9.66,17.94-20.23,35.38-30.67,53.4L239.9,983l32.15-56L191.9,846.51l-56.25,32.32L68.78,763c18.53-10.72,35.7-21.2,53.43-30.66,7.24-3.86,7.46-7.43,5-14.61-6.48-19-12.17-38.29-17.39-57.67-3.47-12.9-5.6-26.16-8.39-39.51H30.77V487h70.71c.9-3.61,1.53-6.3,2.23-9,7.75-29.44,15.11-59,23.56-88.24,2.1-7.26,2.09-10.75-5.1-14.6-18-9.61-35.37-20.23-53.41-30.68l66.9-115.78,56.16,32.2,80.41-80.12L239.9,124.56l115.86-66.9c7.35,12.72,14.37,25,21.53,37.25,4.55,7.75,7.74,19.29,14.4,22,6.43,2.57,16.54-4.09,25-6.68,1-.31,2-.54,3-.8L498.67,89V20.38h133.2V88.74l107.6,28.78,34.78-59.9L890,124.52c-12.13,21.16-23.79,41.5-32.14,56.05L938,261.13l56.32-32.36,66.91,115.83c-16.92,9.78-33.08,19.88-50,28.58-9.41,4.85-11.76,9.14-7.61,19.75,6.79,17.35,11.44,35.6,16.23,53.67,3.5,13.23,5.77,26.8,8.76,41h69.87v133h-70c-.9,3.2-1.57,5.52-2.19,7.87-7.81,29.78-15.2,59.69-23.72,89.28-2.11,7.32-2,10.71,5.16,14.53,18,9.62,35.37,20.24,53.4,30.7L994.28,878.75l-56.11-32.14c-27.7,27.6-53.45,53.27-80.47,80.18L890.06,983l-115.87,66.89c-10.91-18.86-21.41-36.41-31.24-54.33-3.4-6.2-6.41-6.73-13-4.48-20,6.8-40.27,12.83-60.66,18.34-12.22,3.31-24.86,5.08-37.55,7.59ZM565.19,188.65C364.81,188.38,200.6,352.09,199.77,553c-.83,200.44,163.86,365.6,364.89,365.93,200.36.32,364.6-163.41,365.46-364.36C931,354.08,766.27,188.93,565.19,188.65Z"></path><path class="cls-2" d="M603.79,466.54v-62H766.21V567.86H705.47V512.63L557.83,660.33l-67.39-67.6-110.34,111L336.26,660,489.35,506.93l63.18,63.84L656.77,466.54Z"></path></svg>