<svg xmlns="http://www.w3.org/2000/svg" xmlns:xlink="http://www.w3.org/1999/xlink" width="1080" zoomAndPan="magnify" viewBox="0 0 810 809.999993" height="1080" preserveAspectRatio="xMidYMid meet"><defs><clipPath id="0406f147e7"><path d="M 138.378906 138.378906 L 671.617188 138.378906 L 671.617188 671.617188 L 138.378906 671.617188 Z M 138.378906 138.378906 "></path></clipPath><clipPath id="bcbc03cad9"><path d="M 404.996094 138.378906 C 257.746094 138.378906 138.378906 257.746094 138.378906 404.996094 C 138.378906 552.246094 257.746094 671.617188 404.996094 671.617188 C 552.246094 671.617188 671.617188 552.246094 671.617188 404.996094 C 671.617188 257.746094 552.246094 138.378906 404.996094 138.378906 Z M 404.996094 138.378906 "></path></clipPath><clipPath id="acfc155883"><path d="M 531 150.671875 L 574 150.671875 L 574 193 L 531 193 Z M 531 150.671875 "></path></clipPath><clipPath id="2c0a6d0f5a"><path d="M 484.875 194 L 590 194 L 590 235.421875 L 484.875 235.421875 Z M 484.875 194 "></path></clipPath><clipPath id="58abe1f8a1"><path d="M 494.917969 571.292969 L 583.417969 571.292969 L 583.417969 659.792969 L 494.917969 659.792969 Z M 494.917969 571.292969 "></path></clipPath><clipPath id="f521742db8"><path d="M 249 146.882812 L 320 146.882812 L 320 229 L 249 229 Z M 249 146.882812 "></path></clipPath><clipPath id="3d374c428c"><path d="M 238.722656 158 L 309 158 L 309 239.132812 L 238.722656 239.132812 Z M 238.722656 158 "></path></clipPath><clipPath id="8e2361047a"><path d="M 304 146.882812 L 320 146.882812 L 320 163 L 304 163 Z M 304 146.882812 "></path></clipPath><clipPath id="fdad5e6dea"><path d="M 26.46875 45.4375 L 48.019531 45.4375 L 48.019531 66.988281 L 26.46875 66.988281 Z M 26.46875 45.4375 "></path></clipPath><clipPath id="a468a6de3d"><path d="M 37.242188 45.4375 C 31.292969 45.4375 26.46875 50.261719 26.46875 56.214844 C 26.46875 62.164062 31.292969 66.988281 37.242188 66.988281 C 43.195312 66.988281 48.019531 62.164062 48.019531 56.214844 C 48.019531 50.261719 43.195312 45.4375 37.242188 45.4375 Z M 37.242188 45.4375 "></path></clipPath><clipPath id="fbf4dca453"><path d="M 761.980469 46.222656 L 783.53125 46.222656 L 783.53125 67.773438 L 761.980469 67.773438 Z M 761.980469 46.222656 "></path></clipPath><clipPath id="a7229eb2aa"><path d="M 772.757812 46.222656 C 766.804688 46.222656 761.980469 51.046875 761.980469 56.996094 C 761.980469 62.949219 766.804688 67.773438 772.757812 67.773438 C 778.707031 67.773438 783.53125 62.949219 783.53125 56.996094 C 783.53125 51.046875 778.707031 46.222656 772.757812 46.222656 Z M 772.757812 46.222656 "></path></clipPath><clipPath id="0238d15dad"><path d="M 761.980469 743.011719 L 783.53125 743.011719 L 783.53125 764.5625 L 761.980469 764.5625 Z M 761.980469 743.011719 "></path></clipPath><clipPath id="27b0487e88"><path d="M 772.757812 743.011719 C 766.804688 743.011719 761.980469 747.835938 761.980469 753.785156 C 761.980469 759.738281 766.804688 764.5625 772.757812 764.5625 C 778.707031 764.5625 783.53125 759.738281 783.53125 753.785156 C 783.53125 747.835938 778.707031 743.011719 772.757812 743.011719 Z M 772.757812 743.011719 "></path></clipPath><clipPath id="4b5938c296"><path d="M 26.46875 743.011719 L 48.019531 743.011719 L 48.019531 764.5625 L 26.46875 764.5625 Z M 26.46875 743.011719 "></path></clipPath><clipPath id="aae3da8563"><path d="M 37.242188 743.011719 C 31.292969 743.011719 26.46875 747.835938 26.46875 753.785156 C 26.46875 759.738281 31.292969 764.5625 37.242188 764.5625 C 43.195312 764.5625 48.019531 759.738281 48.019531 753.785156 C 48.019531 747.835938 43.195312 743.011719 37.242188 743.011719 Z M 37.242188 743.011719 "></path></clipPath><clipPath id="1d8cdccf4f"><path d="M 234.03125 565.636719 L 317 565.636719 L 317 661.636719 L 234.03125 661.636719 Z M 234.03125 565.636719 "></path></clipPath><clipPath id="4e99a3f6de"><path d="M 242 574.433594 L 309 574.433594 L 309 652.433594 L 242 652.433594 Z M 242 574.433594 "></path></clipPath><clipPath id="2e03673369"><path d="M 255 596.601562 L 299 596.601562 L 299 630.351562 L 255 630.351562 Z M 255 596.601562 "></path></clipPath><clipPath id="b5c7d14739"><path d="M 278.015625 308.363281 L 531.984375 308.363281 L 531.984375 435.347656 L 278.015625 435.347656 Z M 278.015625 308.363281 "></path></clipPath><clipPath id="9d60f73ce8"><path d="M 278.015625 435.347656 C 278.015625 365.214844 334.867188 308.363281 405 308.363281 C 475.132812 308.363281 531.984375 365.214844 531.984375 435.347656 L 486.269531 435.347656 C 486.269531 390.460938 449.882812 354.078125 405 354.078125 C 360.117188 354.078125 323.730469 390.460938 323.730469 435.347656 Z M 278.015625 435.347656 "></path></clipPath><clipPath id="707d2f6666"><path d="M 392.101562 336.140625 L 464 336.140625 L 464 435.84375 L 392.101562 435.84375 Z M 392.101562 336.140625 "></path></clipPath><clipPath id="d4a56931c1"><path d="M 415.554688 429.707031 C 411.65625 435.539062 403.769531 437.101562 397.941406 433.203125 C 392.109375 429.304688 390.546875 421.417969 394.445312 415.585938 L 459.027344 337.3125 C 459.53125 336.558594 460.402344 336.128906 461.304688 336.191406 C 462.210938 336.25 463.015625 336.789062 463.417969 337.601562 C 463.816406 338.417969 463.753906 339.382812 463.25 340.136719 Z M 415.554688 429.707031 "></path></clipPath></defs><g id="0dfefe8a5d"><g clip-rule="nonzero" clip-path="url(#0406f147e7)"><g clip-rule="nonzero" clip-path="url(#bcbc03cad9)"><path style="fill:none;stroke-width:3.830691;stroke-linecap:butt;stroke-linejoin:miter;stroke:#f68d8d;stroke-opacity:1;stroke-miterlimit:4;" d="M 340.443489 0.00093215 C 152.420416 0.00093215 0.000821443 152.420527 0.000821443 340.443599 C 0.000821443 528.466672 152.420416 680.891254 340.443489 680.891254 C 528.466561 680.891254 680.891144 528.466672 680.891144 340.443599 C 680.891144 152.420527 528.466561 0.00093215 340.443489 0.00093215 Z M 340.443489 0.00093215 " transform="matrix(0.783149,0,0,0.783149,138.378263,138.378176)"></path></g></g><path style="fill:none;stroke-width:10;stroke-linecap:butt;stroke-linejoin:miter;stroke:#ffffff;stroke-opacity:1;stroke-miterlimit:4;" d="M 2.210496 42.378832 C 103.197105 -7.456772 204.176792 -7.458963 305.162472 42.379851 " transform="matrix(0.674301,-0.396414,0.396414,0.674301,166.616143,231.331429)"></path><path style="fill:none;stroke-width:10;stroke-linecap:butt;stroke-linejoin:miter;stroke:#ffffff;stroke-opacity:1;stroke-miterlimit:4;" d="M 2.223335 42.377614 C 102.587516 -7.457178 202.952336 -7.457891 303.317797 42.375475 " transform="matrix(0.684376,0.380725,-0.380725,0.684376,434.52279,111.280224)"></path><path style="fill:none;stroke-width:10;stroke-linecap:butt;stroke-linejoin:miter;stroke:#ffffff;stroke-opacity:1;stroke-miterlimit:4;" d="M 2.215471 42.376368 C 103.119991 -7.459799 204.022387 -7.457533 304.924435 42.376339 " transform="matrix(-0.675089,-0.39633,0.39633,-0.675089,374.052172,700.665561)"></path><path style="fill:none;stroke-width:10;stroke-linecap:butt;stroke-linejoin:miter;stroke:#ffffff;stroke-opacity:1;stroke-miterlimit:4;" d="M 2.084807 39.237902 C 101.513797 -6.41046 200.939379 -6.415351 300.365031 39.236923 " transform="matrix(-0.672044,0.399803,-0.399803,-0.672044,646.096315,575.250927)"></path><path style="fill:none;stroke-width:2;stroke-linecap:butt;stroke-linejoin:miter;stroke:#4568b1;stroke-opacity:1;stroke-miterlimit:4;" d="M 0.425021 22.084113 C 60.160231 -6.026011 119.892203 -6.026485 179.628051 22.080769 " transform="matrix(0.650173,-0.373473,0.373473,0.650173,263.124278,289.671334)"></path><path style="fill:none;stroke-width:2;stroke-linecap:butt;stroke-linejoin:miter;stroke:#4568b1;stroke-opacity:1;stroke-miterlimit:4;" d="M 0.000130407 0.998067 L 205.675681 0.998958 " transform="matrix(0.649519,0.375,-0.375,0.649519,138.385909,227.589969)"></path><path style="fill:none;stroke-width:2;stroke-linecap:butt;stroke-linejoin:miter;stroke:#4568b1;stroke-opacity:1;stroke-miterlimit:4;" d="M -0.00218161 0.999523 L 204.86762 0.999523 " transform="matrix(0,0.75,-0.75,0,388.941049,83.282886)"></path><path style="fill:none;stroke-width:2;stroke-linecap:butt;stroke-linejoin:miter;stroke:#4568b1;stroke-opacity:1;stroke-miterlimit:4;" d="M 0.409247 44.198304 C 128.628793 -13.399679 256.848114 -13.401263 385.069102 44.20069 " transform="matrix(0.646876,-0.375935,0.375935,0.646876,122.119589,200.781778)"></path><path style="fill:none;stroke-width:2;stroke-linecap:butt;stroke-linejoin:miter;stroke:#4568b1;stroke-opacity:1;stroke-miterlimit:4;" d="M 0.427706 22.083223 C 60.160239 -6.027779 119.895233 -6.03008 179.630854 22.083458 " transform="matrix(-0.64548,-0.381528,0.381528,-0.64548,379.678842,586.47995)"></path><path style="fill:none;stroke-width:2;stroke-linecap:butt;stroke-linejoin:miter;stroke:#4568b1;stroke-opacity:1;stroke-miterlimit:4;" d="M 0.000252262 0.99905 L 205.67356 0.997803 " transform="matrix(0.00602517,-0.749976,0.749976,0.00602517,387.168704,725.615263)"></path><path style="fill:none;stroke-width:2;stroke-linecap:butt;stroke-linejoin:miter;stroke:#4568b1;stroke-opacity:1;stroke-miterlimit:4;" d="M 0.00175817 0.999243 L 204.866462 0.997555 " transform="matrix(0.652511,-0.36977,0.36977,0.652511,138.086394,578.774415)"></path><path style="fill:none;stroke-width:2;stroke-linecap:butt;stroke-linejoin:miter;stroke:#4568b1;stroke-opacity:1;stroke-miterlimit:4;" d="M 0.410596 44.197336 C 128.630999 -13.40168 256.850942 -13.397968 385.072298 44.201328 " transform="matrix(-0.645996,-0.377445,0.377445,-0.645996,371.860502,752.979702)"></path><path style="fill:none;stroke-width:2;stroke-linecap:butt;stroke-linejoin:miter;stroke:#4568b1;stroke-opacity:1;stroke-miterlimit:4;" d="M 0.422893 22.081835 C 60.157918 -6.028011 119.895877 -6.028774 179.62774 22.084747 " transform="matrix(0.649773,0.374168,-0.374168,0.649773,432.40551,222.595146)"></path><path style="fill:none;stroke-width:2;stroke-linecap:butt;stroke-linejoin:miter;stroke:#4568b1;stroke-opacity:1;stroke-miterlimit:4;" d="M 0.000122659 0.999369 L 205.673145 1.001869 " transform="matrix(0.00249713,0.749996,-0.749996,0.00249713,423.339366,83.556006)"></path><path style="fill:none;stroke-width:2;stroke-linecap:butt;stroke-linejoin:miter;stroke:#4568b1;stroke-opacity:1;stroke-miterlimit:4;" d="M 0.00303899 0.999769 L 204.864244 0.999663 " transform="matrix(-0.648267,0.377161,-0.377161,-0.648267,674.07045,227.557127)"></path><path style="fill:none;stroke-width:2;stroke-linecap:butt;stroke-linejoin:miter;stroke:#4568b1;stroke-opacity:1;stroke-miterlimit:4;" d="M 0.411136 44.199888 C 128.630754 -13.402459 256.848129 -13.398848 385.069753 44.201017 " transform="matrix(0.650243,0.370081,-0.370081,0.650243,438.328469,56.017342)"></path><path style="fill:none;stroke-width:2;stroke-linecap:butt;stroke-linejoin:miter;stroke:#4568b1;stroke-opacity:1;stroke-miterlimit:4;" d="M 0.427003 22.082595 C 60.162212 -6.027529 119.894185 -6.028003 179.627438 22.083768 " transform="matrix(-0.650173,0.373473,-0.373473,-0.650173,554.6616,516.631626)"></path><path style="fill:none;stroke-width:2;stroke-linecap:butt;stroke-linejoin:miter;stroke:#4568b1;stroke-opacity:1;stroke-miterlimit:4;" d="M 0.00158782 0.997903 L 205.672628 1.001398 " transform="matrix(-0.649519,-0.375,0.375,-0.649519,679.404161,578.715159)"></path><path style="fill:none;stroke-width:2;stroke-linecap:butt;stroke-linejoin:miter;stroke:#4568b1;stroke-opacity:1;stroke-miterlimit:4;" d="M -0.00157583 0.997867 L 204.868226 0.997867 " transform="matrix(0,-0.75,0.75,0,428.84535,723.022256)"></path><path style="fill:none;stroke-width:2;stroke-linecap:butt;stroke-linejoin:miter;stroke:#4568b1;stroke-opacity:1;stroke-miterlimit:4;" d="M 0.40966 44.202072 C 128.631829 -13.400425 256.85115 -13.402009 385.072138 44.199944 " transform="matrix(-0.646876,0.375935,-0.375935,-0.646876,695.663345,605.521286)"></path><g clip-rule="nonzero" clip-path="url(#acfc155883)"><path style=" stroke:none;fill-rule:nonzero;fill:#5067ae;fill-opacity:1;" d="M 552.605469 192.347656 C 564.089844 192.347656 573.4375 183.003906 573.4375 171.515625 C 573.4375 160.027344 564.089844 150.683594 552.605469 150.683594 C 541.117188 150.683594 531.769531 160.027344 531.769531 171.515625 C 531.769531 183.003906 541.117188 192.347656 552.605469 192.347656 Z M 535.234375 171.515625 C 535.234375 161.9375 543.027344 154.148438 552.605469 154.148438 C 562.179688 154.148438 569.972656 161.9375 569.972656 171.515625 C 569.972656 181.09375 562.179688 188.882812 552.605469 188.882812 C 543.027344 188.882812 535.234375 181.09375 535.234375 171.515625 Z M 535.234375 171.515625 "></path></g><path style=" stroke:none;fill-rule:nonzero;fill:#5067ae;fill-opacity:1;" d="M 547.515625 181.058594 C 548.414062 181.933594 549.613281 182.554688 550.933594 182.828125 L 550.917969 184.667969 C 550.910156 185.597656 551.660156 186.359375 552.589844 186.363281 L 552.605469 186.363281 C 553.527344 186.363281 554.28125 185.613281 554.289062 184.691406 L 554.304688 182.820312 C 555.617188 182.542969 556.808594 181.921875 557.703125 181.042969 C 558.742188 180.023438 559.316406 178.71875 559.316406 177.367188 L 559.316406 176.625 C 559.316406 174.828125 558.304688 173.128906 556.609375 172.082031 L 550.601562 168.359375 C 549.898438 167.925781 549.492188 167.3125 549.492188 166.683594 L 549.492188 165.519531 C 549.492188 164.953125 549.808594 164.410156 550.375 163.988281 C 550.996094 163.527344 551.828125 163.273438 552.71875 163.273438 C 553.609375 163.273438 554.441406 163.527344 555.0625 163.988281 C 555.632812 164.410156 555.945312 164.953125 555.945312 165.519531 L 555.945312 166.832031 C 555.945312 167.761719 556.703125 168.519531 557.628906 168.519531 C 558.558594 168.519531 559.316406 167.761719 559.316406 166.832031 L 559.316406 165.519531 C 559.316406 162.953125 557.277344 160.734375 554.40625 160.089844 L 554.40625 158.351562 C 554.40625 157.421875 553.648438 156.664062 552.71875 156.664062 C 551.789062 156.664062 551.035156 157.421875 551.035156 158.351562 L 551.035156 160.089844 C 548.160156 160.734375 546.121094 162.953125 546.121094 165.519531 L 546.121094 166.683594 C 546.121094 168.480469 547.132812 170.179688 548.828125 171.226562 L 554.835938 174.945312 C 555.542969 175.382812 555.945312 175.996094 555.945312 176.625 L 555.945312 177.367188 C 555.945312 177.933594 555.632812 178.476562 555.0625 178.898438 C 554.441406 179.359375 553.609375 179.613281 552.71875 179.613281 L 552.488281 179.613281 C 551.597656 179.613281 550.765625 179.359375 550.148438 178.898438 C 549.578125 178.476562 549.265625 177.933594 549.265625 177.367188 L 549.265625 176.644531 C 549.265625 175.714844 548.507812 174.960938 547.578125 174.960938 C 546.648438 174.960938 545.894531 175.714844 545.894531 176.644531 L 545.894531 177.367188 C 545.894531 178.726562 546.46875 180.035156 547.515625 181.058594 Z M 547.515625 181.058594 "></path><g clip-rule="nonzero" clip-path="url(#2c0a6d0f5a)"><path style=" stroke:none;fill-rule:nonzero;fill:#5067ae;fill-opacity:1;" d="M 587.746094 197.355469 C 585.398438 194.742188 581.644531 194.484375 579.003906 196.742188 L 563.53125 209.261719 C 563.539062 209.105469 563.539062 208.953125 563.539062 208.800781 C 563.476562 205.066406 560.546875 202.03125 557.003906 202.03125 L 539.824219 202.03125 C 538.832031 202.03125 537.898438 201.460938 537.324219 200.5 C 537.199219 200.292969 537.027344 200.121094 536.839844 199.972656 C 529.804688 194.421875 520.351562 193.695312 512.257812 197.292969 L 509.265625 198.625 L 503.253906 198.625 L 503.253906 195.878906 C 503.253906 194.894531 502.453125 194.097656 501.46875 194.097656 L 486.65625 194.097656 C 485.671875 194.097656 484.875 194.894531 484.875 195.878906 L 484.875 228.867188 C 484.875 229.851562 485.671875 230.652344 486.65625 230.652344 L 501.46875 230.652344 C 502.453125 230.652344 503.253906 229.851562 503.253906 228.867188 L 503.253906 226.039062 L 509.367188 226.039062 L 530.519531 232.753906 C 535.316406 234.527344 539.339844 235.414062 543.363281 235.414062 C 546.585938 235.414062 549.808594 234.84375 553.433594 233.707031 C 553.765625 233.601562 554.101562 233.492188 554.441406 233.375 C 555.175781 233.09375 555.890625 232.757812 556.578125 232.375 C 557.140625 232.058594 557.679688 231.691406 558.179688 231.28125 L 587.738281 207.167969 C 587.835938 207.085938 587.925781 206.996094 588.003906 206.898438 C 590.203125 204.152344 590.089844 199.957031 587.746094 197.355469 Z M 499.6875 227.085938 L 488.441406 227.085938 L 488.441406 197.664062 L 499.6875 197.664062 Z M 585.320312 204.535156 L 557.753906 227.027344 C 555.34375 228.992188 552.523438 230.386719 549.496094 231.09375 C 543.503906 232.496094 538.5625 231.929688 531.71875 229.394531 C 531.695312 229.386719 531.667969 229.375 531.640625 229.367188 L 510.183594 222.554688 C 510.007812 222.5 509.824219 222.472656 509.640625 222.472656 L 503.253906 222.472656 L 503.253906 202.191406 L 509.644531 202.191406 C 509.890625 202.191406 510.140625 202.140625 510.367188 202.039062 L 513.707031 200.554688 C 520.523438 197.523438 528.265625 198.316406 534.476562 202.671875 C 535.722656 204.511719 537.695312 205.597656 539.824219 205.597656 L 557.003906 205.597656 C 558.609375 205.597656 559.941406 207.0625 559.96875 208.859375 C 559.988281 209.851562 559.628906 210.792969 558.988281 211.445312 C 558.671875 211.765625 558.304688 211.996094 557.914062 212.128906 C 557.40625 212.210938 556.890625 212.25 556.371094 212.25 L 537.257812 212.25 C 536.277344 212.25 535.460938 213.03125 535.449219 214.011719 C 535.433594 215.007812 536.238281 215.820312 537.230469 215.820312 L 557.15625 215.820312 C 557.691406 215.820312 558.21875 215.746094 558.726562 215.609375 C 560.953125 215.207031 563.050781 214.234375 564.898438 212.742188 L 581.269531 199.5 C 581.285156 199.488281 581.296875 199.476562 581.3125 199.464844 C 582.464844 198.46875 584.054688 198.585938 585.09375 199.742188 C 586.246094 201.019531 586.332031 203.132812 585.320312 204.535156 Z M 585.320312 204.535156 "></path></g><g clip-rule="nonzero" clip-path="url(#58abe1f8a1)"><path style=" stroke:none;fill-rule:nonzero;fill:#4267b2;fill-opacity:1;" d="M 576.707031 642.566406 C 577.097656 642.324219 577.464844 642.035156 577.808594 641.691406 C 579.191406 640.308594 579.757812 638.488281 579.40625 636.5625 L 579.398438 636.523438 C 579.132812 635.097656 579.691406 633.753906 580.886719 632.929688 L 580.917969 632.910156 C 582.53125 631.796875 583.417969 630.105469 583.417969 628.148438 C 583.417969 626.191406 582.53125 624.503906 580.917969 623.390625 L 580.882812 623.367188 C 579.691406 622.546875 579.132812 621.203125 579.398438 619.777344 L 579.40625 619.742188 C 579.757812 617.8125 579.191406 615.992188 577.808594 614.609375 C 576.421875 613.222656 574.601562 612.65625 572.675781 613.011719 L 572.636719 613.019531 C 571.210938 613.28125 569.867188 612.722656 569.046875 611.527344 L 569.023438 611.496094 C 567.914062 609.886719 566.222656 609 564.265625 609 C 562.304688 609 560.617188 609.886719 559.507812 611.496094 L 559.484375 611.527344 C 558.660156 612.722656 557.316406 613.277344 555.894531 613.015625 L 555.855469 613.007812 C 554.488281 612.757812 553.171875 612.972656 552.027344 613.613281 C 547.570312 608.863281 541.613281 605.964844 535.148438 605.429688 C 534.765625 605.398438 534.394531 605.566406 534.167969 605.878906 L 527.023438 615.6875 L 519.882812 605.878906 C 519.65625 605.570312 519.28125 605.398438 518.898438 605.429688 C 512.402344 605.96875 506.359375 608.921875 501.890625 613.753906 C 497.394531 618.613281 494.917969 624.910156 494.917969 631.488281 L 494.917969 642.757812 C 494.917969 643.367188 495.410156 643.859375 496.019531 643.859375 L 551.296875 643.859375 L 546.757812 655.042969 C 546.585938 655.46875 546.691406 655.953125 547.027344 656.265625 C 547.363281 656.574219 547.855469 656.644531 548.269531 656.445312 L 552.960938 654.117188 L 554.707031 659.058594 C 554.859375 659.488281 555.261719 659.78125 555.71875 659.792969 C 555.730469 659.792969 555.738281 659.792969 555.746094 659.792969 C 556.195312 659.792969 556.597656 659.519531 556.765625 659.105469 L 561.78125 646.757812 C 562.53125 647.113281 563.371094 647.300781 564.265625 647.300781 C 565.160156 647.300781 565.996094 647.113281 566.75 646.757812 L 571.765625 659.105469 C 571.933594 659.523438 572.339844 659.792969 572.785156 659.792969 C 572.796875 659.792969 572.804688 659.792969 572.8125 659.792969 C 573.269531 659.78125 573.675781 659.488281 573.828125 659.058594 L 575.570312 654.117188 L 580.265625 656.445312 C 580.675781 656.648438 581.167969 656.574219 581.503906 656.265625 C 581.839844 655.953125 581.949219 655.46875 581.777344 655.042969 Z M 497.121094 631.488281 C 497.121094 619.335938 506.449219 608.996094 518.472656 607.6875 L 526.136719 618.210938 C 526.34375 618.496094 526.671875 618.664062 527.027344 618.664062 C 527.378906 618.664062 527.710938 618.496094 527.917969 618.210938 L 535.582031 607.6875 C 541.222656 608.300781 546.40625 610.882812 550.339844 615.035156 C 549.238281 616.355469 548.808594 618.007812 549.125 619.742188 L 549.132812 619.777344 C 549.394531 621.207031 548.839844 622.546875 547.644531 623.371094 L 547.613281 623.390625 C 546.003906 624.503906 545.113281 626.195312 545.113281 628.152344 C 545.113281 629.484375 545.527344 630.691406 546.296875 631.675781 L 546.296875 641.65625 L 507.753906 641.65625 L 507.753906 628.910156 C 507.753906 628.300781 507.261719 627.808594 506.652344 627.808594 C 506.042969 627.808594 505.550781 628.300781 505.550781 628.910156 L 505.550781 641.65625 L 497.121094 641.65625 Z M 550.691406 641.65625 L 548.5 641.65625 L 548.5 633.746094 C 549.085938 634.523438 549.320312 635.5 549.132812 636.523438 L 549.125 636.5625 C 548.773438 638.46875 549.332031 640.277344 550.691406 641.65625 Z M 555.816406 655.585938 L 554.625 652.210938 C 554.523438 651.914062 554.292969 651.675781 554 651.558594 C 553.710938 651.4375 553.382812 651.453125 553.097656 651.589844 L 549.894531 653.179688 L 553.894531 643.328125 C 554.527344 643.425781 555.1875 643.414062 555.859375 643.292969 L 555.894531 643.285156 C 557.320312 643.023438 558.664062 643.578125 559.488281 644.773438 L 559.507812 644.804688 C 559.648438 645.011719 559.800781 645.203125 559.960938 645.386719 Z M 561.320312 643.550781 L 561.296875 643.519531 C 560.195312 641.921875 558.449219 641.015625 556.574219 641.015625 C 556.214844 641.015625 555.855469 641.050781 555.496094 641.117188 L 555.457031 641.125 C 554.25 641.34375 553.148438 641.003906 552.28125 640.132812 C 551.414062 639.265625 551.070312 638.167969 551.292969 636.957031 L 551.300781 636.917969 C 551.714844 634.648438 550.792969 632.425781 548.894531 631.113281 L 548.863281 631.09375 C 547.851562 630.398438 547.316406 629.378906 547.316406 628.148438 C 547.316406 626.921875 547.851562 625.902344 548.863281 625.203125 L 548.894531 625.183594 C 550.792969 623.875 551.714844 621.648438 551.296875 619.378906 L 551.289062 619.34375 C 551.066406 618.132812 551.410156 617.035156 552.277344 616.167969 C 553.144531 615.296875 554.246094 614.957031 555.453125 615.175781 L 555.492188 615.183594 C 557.761719 615.601562 559.984375 614.679688 561.292969 612.78125 L 561.316406 612.75 C 562.015625 611.738281 563.03125 611.203125 564.261719 611.203125 C 565.492188 611.203125 566.507812 611.738281 567.207031 612.75 L 567.230469 612.78125 C 568.539062 614.679688 570.761719 615.601562 573.03125 615.183594 L 573.070312 615.175781 C 574.277344 614.953125 575.375 615.296875 576.246094 616.164062 C 577.113281 617.035156 577.457031 618.132812 577.234375 619.34375 L 577.226562 619.378906 C 576.808594 621.648438 577.730469 623.871094 579.628906 625.179688 L 579.664062 625.203125 C 580.675781 625.902344 581.210938 626.917969 581.210938 628.148438 C 581.210938 629.375 580.675781 630.394531 579.660156 631.09375 L 579.628906 631.113281 C 577.730469 632.425781 576.808594 634.648438 577.226562 636.917969 L 577.234375 636.957031 C 577.457031 638.164062 577.113281 639.261719 576.246094 640.132812 C 575.375 641 574.277344 641.34375 573.070312 641.121094 L 573.03125 641.113281 C 570.761719 640.699219 568.535156 641.621094 567.226562 643.519531 L 567.203125 643.550781 C 566.503906 644.5625 565.488281 645.09375 564.257812 645.09375 C 563.03125 645.09375 562.019531 644.5625 561.320312 643.550781 Z M 575.433594 651.589844 C 575.148438 651.453125 574.820312 651.4375 574.53125 651.558594 C 574.238281 651.675781 574.011719 651.914062 573.90625 652.210938 L 572.714844 655.585938 L 568.570312 645.382812 C 568.730469 645.203125 568.882812 645.007812 569.023438 644.804688 L 569.046875 644.773438 C 569.871094 643.578125 571.210938 643.023438 572.636719 643.285156 L 572.675781 643.292969 C 573.347656 643.414062 574.007812 643.425781 574.640625 643.328125 L 578.640625 653.179688 Z M 576.019531 628.152344 C 576.019531 621.671875 570.746094 616.398438 564.265625 616.398438 C 557.785156 616.398438 552.511719 621.671875 552.511719 628.152344 C 552.511719 634.632812 557.785156 639.90625 564.265625 639.90625 C 570.746094 639.90625 576.019531 634.632812 576.019531 628.152344 Z M 564.265625 637.703125 C 559 637.703125 554.714844 633.417969 554.714844 628.152344 C 554.714844 622.882812 558.996094 618.601562 564.265625 618.601562 C 569.53125 618.601562 573.816406 622.886719 573.816406 628.152344 C 573.816406 633.417969 569.53125 637.703125 564.265625 637.703125 Z M 571.4375 626.4375 C 571.292969 626 570.894531 625.695312 570.4375 625.675781 L 566.632812 625.507812 L 565.296875 621.941406 C 565.132812 621.511719 564.722656 621.226562 564.265625 621.226562 C 563.804688 621.226562 563.394531 621.511719 563.230469 621.941406 L 561.894531 625.507812 L 558.089844 625.675781 C 557.632812 625.695312 557.234375 626 557.09375 626.4375 C 556.949219 626.875 557.09375 627.351562 557.453125 627.640625 L 560.433594 630.011719 L 559.417969 633.683594 C 559.292969 634.125 559.457031 634.597656 559.832031 634.867188 C 560.203125 635.136719 560.703125 635.148438 561.085938 634.894531 L 564.261719 632.796875 L 567.4375 634.894531 C 567.621094 635.015625 567.835938 635.074219 568.046875 635.074219 C 568.273438 635.074219 568.5 635.003906 568.695312 634.863281 C 569.066406 634.59375 569.230469 634.121094 569.109375 633.679688 L 568.09375 630.007812 L 571.070312 627.636719 C 571.433594 627.351562 571.578125 626.875 571.4375 626.4375 Z M 565.78125 629.894531 L 566.207031 631.433594 L 564.875 630.554688 C 564.691406 630.433594 564.476562 630.375 564.265625 630.375 C 564.054688 630.375 563.84375 630.433594 563.65625 630.554688 L 562.324219 631.433594 L 562.75 629.894531 C 562.867188 629.46875 562.722656 629.015625 562.375 628.742188 L 561.128906 627.746094 L 562.722656 627.675781 C 563.164062 627.652344 563.550781 627.371094 563.707031 626.960938 L 564.265625 625.464844 L 564.824219 626.960938 C 564.980469 627.371094 565.367188 627.652344 565.808594 627.675781 L 567.402344 627.746094 L 566.15625 628.742188 C 565.808594 629.015625 565.660156 629.472656 565.78125 629.894531 Z M 527.027344 602.421875 C 535.609375 602.421875 542.589844 595.441406 542.589844 586.859375 C 542.589844 578.277344 535.605469 571.292969 527.027344 571.292969 C 518.445312 571.292969 511.464844 578.277344 511.464844 586.859375 C 511.464844 595.441406 518.445312 602.421875 527.027344 602.421875 Z M 527.027344 573.5 C 534.390625 573.5 540.386719 579.492188 540.386719 586.859375 C 540.386719 594.222656 534.390625 600.21875 527.027344 600.21875 C 519.660156 600.21875 513.667969 594.222656 513.667969 586.859375 C 513.667969 579.492188 519.660156 573.5 527.027344 573.5 Z M 527.027344 573.5 "></path></g><g clip-rule="nonzero" clip-path="url(#f521742db8)"><path style=" stroke:none;fill-rule:evenodd;fill:#4267b2;fill-opacity:1;" d="M 318.964844 228.023438 L 250.910156 228.023438 C 250.351562 228.023438 249.902344 227.574219 249.902344 227.015625 L 249.902344 147.988281 C 249.902344 147.429688 250.351562 146.980469 250.910156 146.980469 L 305.878906 146.980469 C 306.4375 146.980469 306.886719 147.429688 306.886719 147.988281 C 306.886719 148.542969 306.4375 148.996094 305.878906 148.996094 L 251.914062 148.996094 L 251.914062 226.011719 L 317.957031 226.011719 L 317.957031 161.070312 C 317.957031 160.511719 318.40625 160.0625 318.964844 160.0625 C 319.519531 160.0625 319.96875 160.511719 319.96875 161.070312 L 319.96875 227.015625 C 319.96875 227.574219 319.519531 228.023438 318.964844 228.023438 Z M 318.964844 228.023438 "></path></g><g clip-rule="nonzero" clip-path="url(#3d374c428c)"><path style=" stroke:none;fill-rule:evenodd;fill:#4267b2;fill-opacity:1;" d="M 307.832031 239.15625 L 239.777344 239.15625 C 239.21875 239.15625 238.769531 238.707031 238.769531 238.148438 L 238.769531 159.117188 C 238.769531 158.5625 239.21875 158.113281 239.777344 158.113281 L 250.910156 158.113281 C 251.464844 158.113281 251.914062 158.5625 251.914062 159.117188 C 251.914062 159.675781 251.464844 160.125 250.910156 160.125 L 240.78125 160.125 L 240.78125 237.144531 L 306.824219 237.144531 L 306.824219 227.015625 C 306.824219 226.460938 307.273438 226.011719 307.832031 226.011719 C 308.386719 226.011719 308.835938 226.460938 308.835938 227.015625 L 308.835938 238.148438 C 308.835938 238.707031 308.386719 239.15625 307.832031 239.15625 Z M 307.832031 239.15625 "></path></g><g clip-rule="nonzero" clip-path="url(#8e2361047a)"><path style=" stroke:none;fill-rule:evenodd;fill:#4267b2;fill-opacity:1;" d="M 306.886719 160.0625 L 316.535156 160.0625 L 306.886719 150.414062 Z M 318.964844 162.074219 L 305.878906 162.074219 C 305.324219 162.074219 304.875 161.625 304.875 161.070312 L 304.875 147.988281 C 304.875 147.578125 305.121094 147.210938 305.496094 147.058594 C 305.871094 146.902344 306.304688 146.988281 306.59375 147.273438 L 319.675781 160.359375 C 319.960938 160.644531 320.046875 161.078125 319.890625 161.453125 C 319.738281 161.828125 319.371094 162.074219 318.964844 162.074219 Z M 318.964844 162.074219 "></path></g><path style=" stroke:none;fill-rule:evenodd;fill:#4267b2;fill-opacity:1;" d="M 264.757812 173.375 C 262.234375 173.375 260.175781 175.429688 260.175781 177.957031 C 260.175781 180.484375 262.234375 182.539062 264.757812 182.539062 C 267.285156 182.539062 269.34375 180.484375 269.34375 177.957031 C 269.34375 175.429688 267.285156 173.375 264.757812 173.375 Z M 264.757812 184.550781 C 261.121094 184.550781 258.164062 181.59375 258.164062 177.957031 C 258.164062 174.320312 261.121094 171.363281 264.757812 171.363281 C 268.394531 171.363281 271.355469 174.320312 271.355469 177.957031 C 271.355469 181.59375 268.394531 184.550781 264.757812 184.550781 Z M 264.757812 184.550781 "></path><path style=" stroke:none;fill-rule:evenodd;fill:#4267b2;fill-opacity:1;" d="M 264.507812 180.9375 C 264.21875 180.9375 263.9375 180.816406 263.738281 180.582031 L 261.558594 178.011719 C 261.199219 177.585938 261.25 176.953125 261.675781 176.59375 C 262.097656 176.234375 262.734375 176.285156 263.09375 176.710938 L 264.652344 178.546875 L 273.734375 171.523438 C 274.171875 171.179688 274.804688 171.261719 275.144531 171.703125 C 275.484375 172.140625 275.40625 172.773438 274.964844 173.113281 L 265.121094 180.726562 C 264.9375 180.867188 264.722656 180.9375 264.507812 180.9375 Z M 264.507812 180.9375 "></path><path style=" stroke:none;fill-rule:evenodd;fill:#4267b2;fill-opacity:1;" d="M 264.757812 189.828125 C 262.234375 189.828125 260.175781 191.882812 260.175781 194.414062 C 260.175781 196.9375 262.234375 198.996094 264.757812 198.996094 C 267.285156 198.996094 269.34375 196.9375 269.34375 194.414062 C 269.34375 191.882812 267.285156 189.828125 264.757812 189.828125 Z M 264.757812 201.007812 C 261.121094 201.007812 258.164062 198.046875 258.164062 194.414062 C 258.164062 190.777344 261.121094 187.816406 264.757812 187.816406 C 268.394531 187.816406 271.355469 190.777344 271.355469 194.414062 C 271.355469 198.046875 268.394531 201.007812 264.757812 201.007812 Z M 264.757812 201.007812 "></path><path style=" stroke:none;fill-rule:evenodd;fill:#4267b2;fill-opacity:1;" d="M 264.507812 197.390625 C 264.21875 197.390625 263.9375 197.269531 263.738281 197.035156 L 261.558594 194.464844 C 261.199219 194.042969 261.25 193.40625 261.675781 193.046875 C 262.097656 192.6875 262.734375 192.738281 263.09375 193.164062 L 264.652344 195 L 273.734375 187.976562 C 274.171875 187.636719 274.804688 187.71875 275.144531 188.15625 C 275.484375 188.597656 275.40625 189.230469 274.964844 189.566406 L 265.121094 197.183594 C 264.9375 197.324219 264.722656 197.390625 264.507812 197.390625 Z M 264.507812 197.390625 "></path><path style=" stroke:none;fill-rule:evenodd;fill:#4267b2;fill-opacity:1;" d="M 264.757812 206.285156 C 262.234375 206.285156 260.175781 208.339844 260.175781 210.867188 C 260.175781 213.394531 262.234375 215.449219 264.757812 215.449219 C 267.285156 215.449219 269.34375 213.394531 269.34375 210.867188 C 269.34375 208.339844 267.285156 206.285156 264.757812 206.285156 Z M 264.757812 217.460938 C 261.121094 217.460938 258.164062 214.503906 258.164062 210.867188 C 258.164062 207.230469 261.121094 204.273438 264.757812 204.273438 C 268.394531 204.273438 271.355469 207.230469 271.355469 210.867188 C 271.355469 214.503906 268.394531 217.460938 264.757812 217.460938 Z M 264.757812 217.460938 "></path><path style=" stroke:none;fill-rule:evenodd;fill:#4267b2;fill-opacity:1;" d="M 264.507812 213.84375 C 264.21875 213.84375 263.9375 213.722656 263.738281 213.492188 L 261.558594 210.917969 C 261.199219 210.496094 261.25 209.859375 261.675781 209.5 C 262.097656 209.140625 262.734375 209.195312 263.09375 209.617188 L 264.652344 211.457031 L 273.734375 204.429688 C 274.171875 204.089844 274.804688 204.171875 275.144531 204.613281 C 275.484375 205.050781 275.40625 205.683594 274.964844 206.023438 L 265.121094 213.636719 C 264.9375 213.777344 264.722656 213.847656 264.507812 213.84375 Z M 264.507812 213.84375 "></path><path style=" stroke:none;fill-rule:evenodd;fill:#4267b2;fill-opacity:1;" d="M 310.699219 176.183594 L 280.105469 176.183594 C 279.550781 176.183594 279.097656 175.734375 279.097656 175.179688 C 279.097656 174.625 279.550781 174.171875 280.105469 174.171875 L 310.699219 174.171875 C 311.257812 174.171875 311.707031 174.625 311.707031 175.179688 C 311.707031 175.734375 311.257812 176.183594 310.699219 176.183594 Z M 310.699219 176.183594 "></path><path style=" stroke:none;fill-rule:evenodd;fill:#4267b2;fill-opacity:1;" d="M 303.910156 181.003906 L 286.898438 181.003906 C 286.34375 181.003906 285.890625 180.554688 285.890625 180 C 285.890625 179.441406 286.34375 178.992188 286.898438 178.992188 L 303.910156 178.992188 C 304.464844 178.992188 304.914062 179.441406 304.914062 180 C 304.914062 180.554688 304.464844 181.003906 303.910156 181.003906 Z M 303.910156 181.003906 "></path><path style=" stroke:none;fill-rule:evenodd;fill:#4267b2;fill-opacity:1;" d="M 310.699219 192.640625 L 280.105469 192.640625 C 279.550781 192.640625 279.097656 192.1875 279.097656 191.632812 C 279.097656 191.078125 279.550781 190.625 280.105469 190.625 L 310.699219 190.625 C 311.257812 190.625 311.707031 191.078125 311.707031 191.632812 C 311.707031 192.1875 311.257812 192.640625 310.699219 192.640625 Z M 310.699219 192.640625 "></path><path style=" stroke:none;fill-rule:evenodd;fill:#4267b2;fill-opacity:1;" d="M 303.910156 197.457031 L 286.898438 197.457031 C 286.34375 197.457031 285.890625 197.007812 285.890625 196.453125 C 285.890625 195.898438 286.34375 195.445312 286.898438 195.445312 L 303.910156 195.445312 C 304.464844 195.445312 304.914062 195.898438 304.914062 196.453125 C 304.914062 197.007812 304.464844 197.457031 303.910156 197.457031 Z M 303.910156 197.457031 "></path><path style=" stroke:none;fill-rule:evenodd;fill:#4267b2;fill-opacity:1;" d="M 310.699219 209.09375 L 280.105469 209.09375 C 279.550781 209.09375 279.097656 208.644531 279.097656 208.089844 C 279.097656 207.53125 279.550781 207.082031 280.105469 207.082031 L 310.699219 207.082031 C 311.257812 207.082031 311.707031 207.53125 311.707031 208.089844 C 311.707031 208.644531 311.257812 209.09375 310.699219 209.09375 Z M 310.699219 209.09375 "></path><path style=" stroke:none;fill-rule:evenodd;fill:#4267b2;fill-opacity:1;" d="M 303.910156 213.914062 L 286.898438 213.914062 C 286.34375 213.914062 285.890625 213.460938 285.890625 212.90625 C 285.890625 212.351562 286.34375 211.902344 286.898438 211.902344 L 303.910156 211.902344 C 304.464844 211.902344 304.914062 212.351562 304.914062 212.90625 C 304.914062 213.460938 304.464844 213.914062 303.910156 213.914062 Z M 303.910156 213.914062 "></path><path style=" stroke:none;fill-rule:evenodd;fill:#4267b2;fill-opacity:1;" d="M 300.03125 158.492188 L 269.839844 158.492188 C 269.285156 158.492188 268.835938 158.042969 268.835938 157.484375 C 268.835938 156.929688 269.285156 156.480469 269.839844 156.480469 L 300.03125 156.480469 C 300.585938 156.480469 301.035156 156.929688 301.035156 157.484375 C 301.035156 158.042969 300.585938 158.492188 300.03125 158.492188 Z M 300.03125 158.492188 "></path><path style=" stroke:none;fill-rule:evenodd;fill:#4267b2;fill-opacity:1;" d="M 290.8125 164.027344 L 279.0625 164.027344 C 278.503906 164.027344 278.054688 163.574219 278.054688 163.019531 C 278.054688 162.464844 278.503906 162.015625 279.0625 162.015625 L 290.8125 162.015625 C 291.367188 162.015625 291.816406 162.464844 291.816406 163.019531 C 291.816406 163.574219 291.367188 164.027344 290.8125 164.027344 Z M 290.8125 164.027344 "></path><path style="fill:none;stroke-width:2;stroke-linecap:butt;stroke-linejoin:miter;stroke:#d6d6d6;stroke-opacity:1;stroke-miterlimit:4;" d="M -0.00238493 1.001745 L 201.607 1.001745 " transform="matrix(0.75,-0.000000000000000093,0.000000000000000093,0.75,40.243976,54.713535)"></path><path style="fill:none;stroke-width:2;stroke-linecap:butt;stroke-linejoin:miter;stroke:#d6d6d6;stroke-opacity:1;stroke-miterlimit:4;" d="M -0.00116538 0.997786 L 187.243643 0.997786 " transform="matrix(0.749061,0,0,0.749061,632.325092,55.463535)"></path><path style="fill:none;stroke-width:2;stroke-linecap:butt;stroke-linejoin:miter;stroke:#d6d6d6;stroke-opacity:1;stroke-miterlimit:4;" d="M -0.000707697 0.998227 L 201.608677 0.998227 " transform="matrix(0.75,0,0,0.75,620.711468,753.786486)"></path><path style="fill:none;stroke-width:2;stroke-linecap:butt;stroke-linejoin:miter;stroke:#d6d6d6;stroke-opacity:1;stroke-miterlimit:4;" d="M -0.00238518 0.998227 L 201.607 0.998227 " transform="matrix(0.75,0,0,0.75,36.493976,754.536486)"></path><path style="fill:none;stroke-width:2;stroke-linecap:butt;stroke-linejoin:miter;stroke:#d6d6d6;stroke-opacity:1;stroke-miterlimit:4;" d="M -0.00180829 0.999333 L 122.695298 1.001877 " transform="matrix(0.379537,0.646879,-0.646879,0.379537,192.799477,54.33673)"></path><path style="fill:none;stroke-width:2;stroke-linecap:butt;stroke-linejoin:miter;stroke:#d6d6d6;stroke-opacity:1;stroke-miterlimit:4;" d="M -0.00255521 0.999883 L 125.480008 1.000058 " transform="matrix(-0.405092,0.627858,-0.627858,-0.405092,239.345499,676.617586)"></path><path style="fill:none;stroke-width:2;stroke-linecap:butt;stroke-linejoin:miter;stroke:#d6d6d6;stroke-opacity:1;stroke-miterlimit:4;" d="M -0.00150719 0.999757 L 130.305789 0.999921 " transform="matrix(-0.391352,0.637796,-0.637796,-0.391352,633.55502,57.392218)"></path><path style="fill:none;stroke-width:2;stroke-linecap:butt;stroke-linejoin:miter;stroke:#d6d6d6;stroke-opacity:1;stroke-miterlimit:4;" d="M -0.000588249 1.001775 L 126.307822 1.000442 " transform="matrix(0.411437,0.624963,-0.624963,0.411437,571.384127,675.799138)"></path><g clip-rule="nonzero" clip-path="url(#fdad5e6dea)"><g clip-rule="nonzero" clip-path="url(#a468a6de3d)"><path style=" stroke:none;fill-rule:nonzero;fill:#fab1b2;fill-opacity:1;" d="M 26.46875 45.4375 L 48.019531 45.4375 L 48.019531 66.988281 L 26.46875 66.988281 Z M 26.46875 45.4375 "></path></g></g><g clip-rule="nonzero" clip-path="url(#fbf4dca453)"><g clip-rule="nonzero" clip-path="url(#a7229eb2aa)"><path style=" stroke:none;fill-rule:nonzero;fill:#fab1b2;fill-opacity:1;" d="M 761.980469 46.222656 L 783.53125 46.222656 L 783.53125 67.773438 L 761.980469 67.773438 Z M 761.980469 46.222656 "></path></g></g><g clip-rule="nonzero" clip-path="url(#0238d15dad)"><g clip-rule="nonzero" clip-path="url(#27b0487e88)"><path style=" stroke:none;fill-rule:nonzero;fill:#fab1b2;fill-opacity:1;" d="M 761.980469 743.011719 L 783.53125 743.011719 L 783.53125 764.5625 L 761.980469 764.5625 Z M 761.980469 743.011719 "></path></g></g><g clip-rule="nonzero" clip-path="url(#4b5938c296)"><g clip-rule="nonzero" clip-path="url(#aae3da8563)"><path style=" stroke:none;fill-rule:nonzero;fill:#fab1b2;fill-opacity:1;" d="M 26.46875 743.011719 L 48.019531 743.011719 L 48.019531 764.5625 L 26.46875 764.5625 Z M 26.46875 743.011719 "></path></g></g><g clip-rule="nonzero" clip-path="url(#1d8cdccf4f)"><path style=" stroke:none;fill-rule:nonzero;fill:#4267b2;fill-opacity:1;" d="M 238.027344 583.613281 C 237.660156 588.738281 237.417969 600.828125 241.539062 614.550781 C 245.996094 629.386719 255.570312 646.105469 275.65625 657.886719 C 295.742188 646.105469 305.316406 629.386719 309.773438 614.550781 C 313.894531 600.828125 313.652344 588.738281 313.285156 583.613281 C 302.550781 583.214844 293.980469 580.507812 287.589844 577.4375 C 281.886719 574.695312 277.90625 571.660156 275.65625 569.695312 C 273.40625 571.660156 269.429688 574.695312 263.726562 577.4375 C 257.335938 580.507812 248.765625 583.214844 238.027344 583.613281 Z M 238.703125 615.398438 C 234.03125 599.84375 234.792969 586.261719 235.195312 582.039062 L 235.320312 580.726562 L 236.640625 580.699219 C 247.503906 580.492188 256.105469 577.824219 262.453125 574.773438 C 268.761719 571.738281 272.824219 568.335938 274.644531 566.625 L 275.65625 565.671875 L 276.667969 566.625 C 278.488281 568.335938 282.550781 571.738281 288.863281 574.773438 C 295.207031 577.824219 303.808594 580.492188 314.671875 580.699219 L 315.996094 580.726562 L 316.117188 582.039062 C 316.519531 586.261719 317.28125 599.84375 312.609375 615.398438 C 307.921875 631.007812 297.785156 648.621094 276.390625 660.882812 L 275.65625 661.304688 L 274.921875 660.882812 C 253.527344 648.621094 243.390625 631.007812 238.703125 615.398438 "></path></g><g clip-rule="nonzero" clip-path="url(#4e99a3f6de)"><path style=" stroke:none;fill-rule:nonzero;fill:#4267b2;fill-opacity:1;" d="M 244.941406 589.085938 C 244.640625 593.265625 244.445312 603.121094 247.804688 614.304688 C 251.4375 626.394531 259.242188 640.023438 275.613281 649.628906 C 291.984375 640.023438 299.789062 626.394531 303.421875 614.304688 C 306.78125 603.121094 306.585938 593.265625 306.285156 589.085938 C 297.535156 588.761719 290.550781 586.558594 285.339844 584.050781 C 280.691406 581.816406 277.445312 579.34375 275.613281 577.742188 C 273.78125 579.34375 270.535156 581.816406 265.886719 584.050781 C 260.679688 586.558594 253.691406 588.761719 244.941406 589.085938 Z M 245.492188 614.996094 C 241.683594 602.316406 242.304688 591.246094 242.632812 587.800781 L 242.734375 586.734375 L 243.8125 586.710938 C 252.664062 586.542969 259.679688 584.367188 264.851562 581.882812 C 269.996094 579.410156 273.304688 576.632812 274.785156 575.238281 L 275.613281 574.460938 L 276.4375 575.238281 C 277.921875 576.632812 281.234375 579.410156 286.375 581.882812 C 291.546875 584.367188 298.5625 586.542969 307.414062 586.710938 L 308.492188 586.734375 L 308.59375 587.800781 C 308.921875 591.246094 309.542969 602.316406 305.734375 614.996094 C 301.914062 627.71875 293.652344 642.074219 276.210938 652.070312 L 275.613281 652.414062 L 275.015625 652.070312 C 257.574219 642.074219 249.3125 627.71875 245.492188 614.996094 "></path></g><g clip-rule="nonzero" clip-path="url(#2e03673369)"><path style=" stroke:none;fill-rule:nonzero;fill:#4267b2;fill-opacity:1;" d="M 268.894531 623.105469 L 258.519531 612.730469 L 255 616.25 L 268.894531 630.144531 L 298.746094 600.292969 L 295.226562 596.773438 Z M 268.894531 623.105469 "></path></g><g style="fill:#4267b2;fill-opacity:1;"><g transform="translate(73.113801, 92.18475)"><path style="stroke:none" d="M 7.234375 -20.90625 L 3.515625 0 L 0.78125 0 L 4.5 -20.90625 Z M 7.234375 -20.90625 "></path></g></g><g style="fill:#4267b2;fill-opacity:1;"><g transform="translate(80.493798, 92.18475)"><path style="stroke:none" d="M 1.625 -10.46875 C 1.976562 -12.507812 2.757812 -14.34375 3.96875 -15.96875 C 5.1875 -17.601562 6.671875 -18.878906 8.421875 -19.796875 C 10.171875 -20.722656 12.003906 -21.1875 13.921875 -21.1875 C 16.203125 -21.1875 18.097656 -20.632812 19.609375 -19.53125 C 21.117188 -18.425781 22.09375 -16.863281 22.53125 -14.84375 L 19.265625 -14.84375 C 18.898438 -16.070312 18.226562 -17.019531 17.25 -17.6875 C 16.269531 -18.351562 15.019531 -18.6875 13.5 -18.6875 C 12.039062 -18.6875 10.675781 -18.351562 9.40625 -17.6875 C 8.132812 -17.019531 7.054688 -16.0625 6.171875 -14.8125 C 5.296875 -13.5625 4.707031 -12.113281 4.40625 -10.46875 C 4.3125 -9.945312 4.265625 -9.347656 4.265625 -8.671875 C 4.265625 -6.710938 4.835938 -5.15625 5.984375 -4 C 7.128906 -2.851562 8.664062 -2.28125 10.59375 -2.28125 C 12.113281 -2.28125 13.484375 -2.609375 14.703125 -3.265625 C 15.921875 -3.929688 16.921875 -4.875 17.703125 -6.09375 L 20.96875 -6.09375 C 19.832031 -4.09375 18.316406 -2.546875 16.421875 -1.453125 C 14.535156 -0.359375 12.453125 0.1875 10.171875 0.1875 C 8.472656 0.1875 6.960938 -0.164062 5.640625 -0.875 C 4.316406 -1.59375 3.285156 -2.59375 2.546875 -3.875 C 1.804688 -5.164062 1.4375 -6.65625 1.4375 -8.34375 C 1.4375 -9.039062 1.5 -9.75 1.625 -10.46875 Z M 1.625 -10.46875 "></path></g></g><g style="fill:#4267b2;fill-opacity:1;"><g transform="translate(103.653778, 92.18475)"><path style="stroke:none" d="M 11.015625 -20.90625 C 13.992188 -20.90625 16.304688 -20.1875 17.953125 -18.75 C 19.609375 -17.3125 20.4375 -15.3125 20.4375 -12.75 C 20.4375 -11.945312 20.363281 -11.164062 20.21875 -10.40625 C 19.84375 -8.269531 19.066406 -6.414062 17.890625 -4.84375 C 16.722656 -3.269531 15.234375 -2.066406 13.421875 -1.234375 C 11.609375 -0.410156 9.566406 0 7.296875 0 L 0.78125 0 L 4.5 -20.90625 Z M 7.6875 -2.09375 C 10.363281 -2.09375 12.539062 -2.828125 14.21875 -4.296875 C 15.894531 -5.773438 16.96875 -7.8125 17.4375 -10.40625 C 17.550781 -11.125 17.609375 -11.804688 17.609375 -12.453125 C 17.609375 -14.429688 17.015625 -15.960938 15.828125 -17.046875 C 14.648438 -18.140625 12.914062 -18.6875 10.625 -18.6875 L 6.84375 -18.6875 L 3.90625 -2.09375 Z M 7.6875 -2.09375 "></path></g></g><g style="fill:#4267b2;fill-opacity:1;"><g transform="translate(124.863753, 92.18475)"><path style="stroke:none" d="M 14.328125 -12.15625 L 13.90625 -9.84375 L 1.9375 -9.84375 L 2.359375 -12.15625 Z M 14.328125 -12.15625 "></path></g></g><g style="fill:#4267b2;fill-opacity:1;"><g transform="translate(141.393735, 92.18475)"><path style="stroke:none" d="M 2.90625 -18.78125 L 3.359375 -21.265625 L 9 -21.265625 L 5.25 0 L 2.484375 0 L 5.796875 -18.78125 Z M 2.90625 -18.78125 "></path></g></g><g style="fill:#4267b2;fill-opacity:1;"><g transform="translate(150.993726, 92.18475)"><path style="stroke:none" d="M 2.28125 -10.890625 C 2.882812 -14.285156 3.910156 -16.941406 5.359375 -18.859375 C 6.804688 -20.785156 8.929688 -21.75 11.734375 -21.75 C 13.890625 -21.75 15.429688 -21.160156 16.359375 -19.984375 C 17.296875 -18.816406 17.765625 -17.1875 17.765625 -15.09375 C 17.765625 -13.851562 17.625 -12.453125 17.34375 -10.890625 C 16.738281 -7.472656 15.710938 -4.800781 14.265625 -2.875 C 12.816406 -0.957031 10.691406 0 7.890625 0 C 5.734375 0 4.1875 -0.582031 3.25 -1.75 C 2.320312 -2.925781 1.859375 -4.570312 1.859375 -6.6875 C 1.859375 -7.925781 2 -9.328125 2.28125 -10.890625 Z M 14.671875 -10.890625 C 14.953125 -12.523438 15.09375 -13.832031 15.09375 -14.8125 C 15.09375 -16.238281 14.804688 -17.335938 14.234375 -18.109375 C 13.660156 -18.878906 12.6875 -19.265625 11.3125 -19.265625 C 9.945312 -19.265625 8.84375 -18.894531 8 -18.15625 C 7.164062 -17.425781 6.523438 -16.460938 6.078125 -15.265625 C 5.628906 -14.066406 5.253906 -12.609375 4.953125 -10.890625 C 4.671875 -9.253906 4.53125 -7.9375 4.53125 -6.9375 C 4.53125 -5.507812 4.8125 -4.410156 5.375 -3.640625 C 5.945312 -2.867188 6.925781 -2.484375 8.3125 -2.484375 C 9.664062 -2.484375 10.765625 -2.847656 11.609375 -3.578125 C 12.453125 -4.316406 13.09375 -5.285156 13.53125 -6.484375 C 13.96875 -7.679688 14.347656 -9.148438 14.671875 -10.890625 Z M 14.671875 -10.890625 "></path></g></g><g style="fill:#4267b2;fill-opacity:1;"><g transform="translate(279.515376, 485.732932)"><path style="stroke:none" d="M 21.390625 -19.421875 C 21.390625 -17.140625 20.609375 -15.242188 19.046875 -13.734375 C 17.484375 -12.222656 15.101562 -11.46875 11.90625 -11.46875 L 6.625 -11.46875 L 6.625 0 L 3.03125 0 L 3.03125 -27.46875 L 11.90625 -27.46875 C 15 -27.46875 17.351562 -26.71875 18.96875 -25.21875 C 20.582031 -23.71875 21.390625 -21.785156 21.390625 -19.421875 Z M 11.90625 -14.421875 C 13.894531 -14.421875 15.363281 -14.851562 16.3125 -15.71875 C 17.257812 -16.59375 17.734375 -17.828125 17.734375 -19.421875 C 17.734375 -22.816406 15.789062 -24.515625 11.90625 -24.515625 L 6.625 -24.515625 L 6.625 -14.421875 Z M 11.90625 -14.421875 "></path></g></g><g style="fill:#4267b2;fill-opacity:1;"><g transform="translate(302.330267, 485.732932)"><path style="stroke:none" d="M 22.734375 -11.625 C 22.734375 -10.9375 22.695312 -10.210938 22.625 -9.453125 L 5.359375 -9.453125 C 5.492188 -7.328125 6.222656 -5.664062 7.546875 -4.46875 C 8.867188 -3.269531 10.476562 -2.671875 12.375 -2.671875 C 13.925781 -2.671875 15.21875 -3.03125 16.25 -3.75 C 17.289062 -4.476562 18.019531 -5.445312 18.4375 -6.65625 L 22.296875 -6.65625 C 21.722656 -4.582031 20.566406 -2.894531 18.828125 -1.59375 C 17.097656 -0.289062 14.945312 0.359375 12.375 0.359375 C 10.320312 0.359375 8.488281 -0.0976562 6.875 -1.015625 C 5.257812 -1.941406 3.988281 -3.25 3.0625 -4.9375 C 2.144531 -6.632812 1.6875 -8.601562 1.6875 -10.84375 C 1.6875 -13.070312 2.132812 -15.023438 3.03125 -16.703125 C 3.925781 -18.390625 5.179688 -19.6875 6.796875 -20.59375 C 8.410156 -21.5 10.269531 -21.953125 12.375 -21.953125 C 14.425781 -21.953125 16.238281 -21.503906 17.8125 -20.609375 C 19.382812 -19.710938 20.597656 -18.484375 21.453125 -16.921875 C 22.304688 -15.359375 22.734375 -13.59375 22.734375 -11.625 Z M 19.03125 -12.375 C 19.03125 -13.738281 18.726562 -14.910156 18.125 -15.890625 C 17.519531 -16.878906 16.695312 -17.628906 15.65625 -18.140625 C 14.625 -18.660156 13.476562 -18.921875 12.21875 -18.921875 C 10.40625 -18.921875 8.859375 -18.34375 7.578125 -17.1875 C 6.304688 -16.03125 5.582031 -14.425781 5.40625 -12.375 Z M 19.03125 -12.375 "></path></g></g><g style="fill:#4267b2;fill-opacity:1;"><g transform="translate(326.760729, 485.732932)"><path style="stroke:none" d="M 6.625 -18.09375 C 7.25 -19.320312 8.144531 -20.273438 9.3125 -20.953125 C 10.488281 -21.640625 11.914062 -21.984375 13.59375 -21.984375 L 13.59375 -18.28125 L 12.65625 -18.28125 C 8.632812 -18.28125 6.625 -16.101562 6.625 -11.75 L 6.625 0 L 3.03125 0 L 3.03125 -21.59375 L 6.625 -21.59375 Z M 6.625 -18.09375 "></path></g></g><g style="fill:#4267b2;fill-opacity:1;"><g transform="translate(341.458408, 485.732932)"><path style="stroke:none" d="M 11.828125 -18.640625 L 7.296875 -18.640625 L 7.296875 0 L 3.703125 0 L 3.703125 -18.640625 L 0.90625 -18.640625 L 0.90625 -21.59375 L 3.703125 -21.59375 L 3.703125 -23.125 C 3.703125 -25.539062 4.328125 -27.304688 5.578125 -28.421875 C 6.828125 -29.546875 8.828125 -30.109375 11.578125 -30.109375 L 11.578125 -27.109375 C 10.003906 -27.109375 8.894531 -26.800781 8.25 -26.1875 C 7.613281 -25.570312 7.296875 -24.550781 7.296875 -23.125 L 7.296875 -21.59375 L 11.828125 -21.59375 Z M 11.828125 -18.640625 "></path></g></g><g style="fill:#4267b2;fill-opacity:1;"><g transform="translate(354.422309, 485.732932)"><path style="stroke:none" d="M 12.453125 0.359375 C 10.429688 0.359375 8.597656 -0.0976562 6.953125 -1.015625 C 5.316406 -1.941406 4.03125 -3.25 3.09375 -4.9375 C 2.15625 -6.632812 1.6875 -8.601562 1.6875 -10.84375 C 1.6875 -13.039062 2.164062 -14.988281 3.125 -16.6875 C 4.09375 -18.382812 5.398438 -19.6875 7.046875 -20.59375 C 8.703125 -21.5 10.554688 -21.953125 12.609375 -21.953125 C 14.660156 -21.953125 16.515625 -21.5 18.171875 -20.59375 C 19.828125 -19.6875 21.132812 -18.390625 22.09375 -16.703125 C 23.050781 -15.023438 23.53125 -13.070312 23.53125 -10.84375 C 23.53125 -8.601562 23.035156 -6.632812 22.046875 -4.9375 C 21.054688 -3.25 19.722656 -1.941406 18.046875 -1.015625 C 16.367188 -0.0976562 14.503906 0.359375 12.453125 0.359375 Z M 12.453125 -2.796875 C 13.742188 -2.796875 14.953125 -3.097656 16.078125 -3.703125 C 17.203125 -4.304688 18.113281 -5.210938 18.8125 -6.421875 C 19.507812 -7.628906 19.859375 -9.101562 19.859375 -10.84375 C 19.859375 -12.570312 19.515625 -14.039062 18.828125 -15.25 C 18.148438 -16.457031 17.257812 -17.359375 16.15625 -17.953125 C 15.050781 -18.546875 13.859375 -18.84375 12.578125 -18.84375 C 11.253906 -18.84375 10.046875 -18.546875 8.953125 -17.953125 C 7.867188 -17.359375 7 -16.457031 6.34375 -15.25 C 5.6875 -14.039062 5.359375 -12.570312 5.359375 -10.84375 C 5.359375 -9.082031 5.679688 -7.597656 6.328125 -6.390625 C 6.972656 -5.179688 7.832031 -4.28125 8.90625 -3.6875 C 9.976562 -3.09375 11.160156 -2.796875 12.453125 -2.796875 Z M 12.453125 -2.796875 "></path></g></g><g style="fill:#4267b2;fill-opacity:1;"><g transform="translate(379.640848, 485.732932)"><path style="stroke:none" d="M 6.625 -18.09375 C 7.25 -19.320312 8.144531 -20.273438 9.3125 -20.953125 C 10.488281 -21.640625 11.914062 -21.984375 13.59375 -21.984375 L 13.59375 -18.28125 L 12.65625 -18.28125 C 8.632812 -18.28125 6.625 -16.101562 6.625 -11.75 L 6.625 0 L 3.03125 0 L 3.03125 -21.59375 L 6.625 -21.59375 Z M 6.625 -18.09375 "></path></g></g><g style="fill:#4267b2;fill-opacity:1;"><g transform="translate(394.338527, 485.732932)"><path style="stroke:none" d="M 29 -21.984375 C 30.6875 -21.984375 32.1875 -21.632812 33.5 -20.9375 C 34.8125 -20.25 35.847656 -19.207031 36.609375 -17.8125 C 37.367188 -16.414062 37.75 -14.722656 37.75 -12.734375 L 37.75 0 L 34.203125 0 L 34.203125 -12.21875 C 34.203125 -14.375 33.671875 -16.019531 32.609375 -17.15625 C 31.546875 -18.300781 30.109375 -18.875 28.296875 -18.875 C 26.429688 -18.875 24.945312 -18.273438 23.84375 -17.078125 C 22.738281 -15.890625 22.1875 -14.164062 22.1875 -11.90625 L 22.1875 0 L 18.640625 0 L 18.640625 -12.21875 C 18.640625 -14.375 18.109375 -16.019531 17.046875 -17.15625 C 15.984375 -18.300781 14.546875 -18.875 12.734375 -18.875 C 10.867188 -18.875 9.382812 -18.273438 8.28125 -17.078125 C 7.175781 -15.890625 6.625 -14.164062 6.625 -11.90625 L 6.625 0 L 3.03125 0 L 3.03125 -21.59375 L 6.625 -21.59375 L 6.625 -18.484375 C 7.332031 -19.609375 8.28125 -20.472656 9.46875 -21.078125 C 10.664062 -21.679688 11.988281 -21.984375 13.4375 -21.984375 C 15.25 -21.984375 16.847656 -21.578125 18.234375 -20.765625 C 19.628906 -19.953125 20.671875 -18.757812 21.359375 -17.1875 C 21.960938 -18.707031 22.957031 -19.882812 24.34375 -20.71875 C 25.738281 -21.5625 27.289062 -21.984375 29 -21.984375 Z M 29 -21.984375 "></path></g></g><g style="fill:#4267b2;fill-opacity:1;"><g transform="translate(434.924614, 485.732932)"><path style="stroke:none" d="M 1.6875 -10.875 C 1.6875 -13.082031 2.132812 -15.019531 3.03125 -16.6875 C 3.925781 -18.351562 5.15625 -19.644531 6.71875 -20.5625 C 8.28125 -21.488281 10.019531 -21.953125 11.9375 -21.953125 C 13.832031 -21.953125 15.472656 -21.539062 16.859375 -20.71875 C 18.253906 -19.90625 19.296875 -18.882812 19.984375 -17.65625 L 19.984375 -21.59375 L 23.609375 -21.59375 L 23.609375 0 L 19.984375 0 L 19.984375 -4.015625 C 19.273438 -2.753906 18.21875 -1.707031 16.8125 -0.875 C 15.40625 -0.0507812 13.769531 0.359375 11.90625 0.359375 C 9.988281 0.359375 8.253906 -0.113281 6.703125 -1.0625 C 5.148438 -2.007812 3.925781 -3.335938 3.03125 -5.046875 C 2.132812 -6.753906 1.6875 -8.695312 1.6875 -10.875 Z M 19.984375 -10.84375 C 19.984375 -12.46875 19.65625 -13.882812 19 -15.09375 C 18.34375 -16.300781 17.453125 -17.226562 16.328125 -17.875 C 15.210938 -18.519531 13.988281 -18.84375 12.65625 -18.84375 C 11.3125 -18.84375 10.085938 -18.523438 8.984375 -17.890625 C 7.878906 -17.253906 7 -16.332031 6.34375 -15.125 C 5.6875 -13.914062 5.359375 -12.5 5.359375 -10.875 C 5.359375 -9.21875 5.6875 -7.78125 6.34375 -6.5625 C 7 -5.34375 7.878906 -4.410156 8.984375 -3.765625 C 10.085938 -3.117188 11.3125 -2.796875 12.65625 -2.796875 C 13.988281 -2.796875 15.210938 -3.117188 16.328125 -3.765625 C 17.453125 -4.410156 18.34375 -5.34375 19 -6.5625 C 19.65625 -7.78125 19.984375 -9.207031 19.984375 -10.84375 Z M 19.984375 -10.84375 "></path></g></g><g style="fill:#4267b2;fill-opacity:1;"><g transform="translate(461.561693, 485.732932)"><path style="stroke:none" d="M 13.5625 -21.984375 C 16.1875 -21.984375 18.3125 -21.1875 19.9375 -19.59375 C 21.5625 -18.007812 22.375 -15.722656 22.375 -12.734375 L 22.375 0 L 18.84375 0 L 18.84375 -12.21875 C 18.84375 -14.375 18.300781 -16.019531 17.21875 -17.15625 C 16.144531 -18.300781 14.675781 -18.875 12.8125 -18.875 C 10.914062 -18.875 9.410156 -18.28125 8.296875 -17.09375 C 7.179688 -15.914062 6.625 -14.195312 6.625 -11.9375 L 6.625 0 L 3.03125 0 L 3.03125 -21.59375 L 6.625 -21.59375 L 6.625 -18.515625 C 7.332031 -19.617188 8.296875 -20.472656 9.515625 -21.078125 C 10.734375 -21.679688 12.082031 -21.984375 13.5625 -21.984375 Z M 13.5625 -21.984375 "></path></g></g><g style="fill:#4267b2;fill-opacity:1;"><g transform="translate(486.78022, 485.732932)"><path style="stroke:none" d="M 1.6875 -10.84375 C 1.6875 -13.070312 2.132812 -15.019531 3.03125 -16.6875 C 3.925781 -18.351562 5.164062 -19.644531 6.75 -20.5625 C 8.34375 -21.488281 10.164062 -21.953125 12.21875 -21.953125 C 14.875 -21.953125 17.0625 -21.304688 18.78125 -20.015625 C 20.5 -18.734375 21.632812 -16.945312 22.1875 -14.65625 L 18.328125 -14.65625 C 17.953125 -15.96875 17.234375 -17.003906 16.171875 -17.765625 C 15.109375 -18.535156 13.789062 -18.921875 12.21875 -18.921875 C 10.164062 -18.921875 8.507812 -18.21875 7.25 -16.8125 C 5.988281 -15.40625 5.359375 -13.414062 5.359375 -10.84375 C 5.359375 -8.238281 5.988281 -6.222656 7.25 -4.796875 C 8.507812 -3.378906 10.164062 -2.671875 12.21875 -2.671875 C 13.789062 -2.671875 15.101562 -3.039062 16.15625 -3.78125 C 17.207031 -4.519531 17.929688 -5.570312 18.328125 -6.9375 L 22.1875 -6.9375 C 21.601562 -4.726562 20.441406 -2.957031 18.703125 -1.625 C 16.972656 -0.300781 14.8125 0.359375 12.21875 0.359375 C 10.164062 0.359375 8.34375 -0.0976562 6.75 -1.015625 C 5.164062 -1.941406 3.925781 -3.242188 3.03125 -4.921875 C 2.132812 -6.609375 1.6875 -8.582031 1.6875 -10.84375 Z M 1.6875 -10.84375 "></path></g></g><g style="fill:#4267b2;fill-opacity:1;"><g transform="translate(510.698449, 485.732932)"><path style="stroke:none" d="M 22.734375 -11.625 C 22.734375 -10.9375 22.695312 -10.210938 22.625 -9.453125 L 5.359375 -9.453125 C 5.492188 -7.328125 6.222656 -5.664062 7.546875 -4.46875 C 8.867188 -3.269531 10.476562 -2.671875 12.375 -2.671875 C 13.925781 -2.671875 15.21875 -3.03125 16.25 -3.75 C 17.289062 -4.476562 18.019531 -5.445312 18.4375 -6.65625 L 22.296875 -6.65625 C 21.722656 -4.582031 20.566406 -2.894531 18.828125 -1.59375 C 17.097656 -0.289062 14.945312 0.359375 12.375 0.359375 C 10.320312 0.359375 8.488281 -0.0976562 6.875 -1.015625 C 5.257812 -1.941406 3.988281 -3.25 3.0625 -4.9375 C 2.144531 -6.632812 1.6875 -8.601562 1.6875 -10.84375 C 1.6875 -13.070312 2.132812 -15.023438 3.03125 -16.703125 C 3.925781 -18.390625 5.179688 -19.6875 6.796875 -20.59375 C 8.410156 -21.5 10.269531 -21.953125 12.375 -21.953125 C 14.425781 -21.953125 16.238281 -21.503906 17.8125 -20.609375 C 19.382812 -19.710938 20.597656 -18.484375 21.453125 -16.921875 C 22.304688 -15.359375 22.734375 -13.59375 22.734375 -11.625 Z M 19.03125 -12.375 C 19.03125 -13.738281 18.726562 -14.910156 18.125 -15.890625 C 17.519531 -16.878906 16.695312 -17.628906 15.65625 -18.140625 C 14.625 -18.660156 13.476562 -18.921875 12.21875 -18.921875 C 10.40625 -18.921875 8.859375 -18.34375 7.578125 -17.1875 C 6.304688 -16.03125 5.582031 -14.425781 5.40625 -12.375 Z M 19.03125 -12.375 "></path></g></g><g style="fill:#4267b2;fill-opacity:1;"><g transform="translate(70.535676, 736.669615)"><path style="stroke:none" d="M 20.578125 -20.90625 L 16.890625 0 L 14.15625 0 L 15.84375 -9.546875 L 5.21875 -9.546875 L 3.515625 0 L 0.78125 0 L 4.5 -20.90625 L 7.234375 -20.90625 L 5.578125 -11.671875 L 16.234375 -11.671875 L 17.84375 -20.90625 Z M 20.578125 -20.90625 "></path></g></g><g style="fill:#4267b2;fill-opacity:1;"><g transform="translate(91.265652, 736.669615)"><path style="stroke:none" d="M 1.625 -10.46875 C 1.976562 -12.507812 2.757812 -14.34375 3.96875 -15.96875 C 5.1875 -17.601562 6.671875 -18.878906 8.421875 -19.796875 C 10.171875 -20.722656 12.003906 -21.1875 13.921875 -21.1875 C 16.203125 -21.1875 18.097656 -20.632812 19.609375 -19.53125 C 21.117188 -18.425781 22.09375 -16.863281 22.53125 -14.84375 L 19.265625 -14.84375 C 18.898438 -16.070312 18.226562 -17.019531 17.25 -17.6875 C 16.269531 -18.351562 15.019531 -18.6875 13.5 -18.6875 C 12.039062 -18.6875 10.675781 -18.351562 9.40625 -17.6875 C 8.132812 -17.019531 7.054688 -16.0625 6.171875 -14.8125 C 5.296875 -13.5625 4.707031 -12.113281 4.40625 -10.46875 C 4.3125 -9.945312 4.265625 -9.347656 4.265625 -8.671875 C 4.265625 -6.710938 4.835938 -5.15625 5.984375 -4 C 7.128906 -2.851562 8.664062 -2.28125 10.59375 -2.28125 C 12.113281 -2.28125 13.484375 -2.609375 14.703125 -3.265625 C 15.921875 -3.929688 16.921875 -4.875 17.703125 -6.09375 L 20.96875 -6.09375 C 19.832031 -4.09375 18.316406 -2.546875 16.421875 -1.453125 C 14.535156 -0.359375 12.453125 0.1875 10.171875 0.1875 C 8.472656 0.1875 6.960938 -0.164062 5.640625 -0.875 C 4.316406 -1.59375 3.285156 -2.59375 2.546875 -3.875 C 1.804688 -5.164062 1.4375 -6.65625 1.4375 -8.34375 C 1.4375 -9.039062 1.5 -9.75 1.625 -10.46875 Z M 1.625 -10.46875 "></path></g></g><g style="fill:#4267b2;fill-opacity:1;"><g transform="translate(114.425631, 736.669615)"><path style="stroke:none" d="M 17.375 -14.796875 C 17.070312 -13.054688 16.21875 -11.609375 14.8125 -10.453125 C 13.414062 -9.304688 11.507812 -8.734375 9.09375 -8.734375 L 5.0625 -8.734375 L 3.515625 0 L 0.78125 0 L 4.5 -20.90625 L 11.25 -20.90625 C 13.332031 -20.90625 14.890625 -20.457031 15.921875 -19.5625 C 16.960938 -18.675781 17.484375 -17.492188 17.484375 -16.015625 C 17.484375 -15.753906 17.445312 -15.347656 17.375 -14.796875 Z M 9.484375 -10.890625 C 10.984375 -10.890625 12.148438 -11.234375 12.984375 -11.921875 C 13.828125 -12.609375 14.359375 -13.566406 14.578125 -14.796875 C 14.640625 -15.148438 14.671875 -15.476562 14.671875 -15.78125 C 14.671875 -17.757812 13.398438 -18.75 10.859375 -18.75 L 6.84375 -18.75 L 5.453125 -10.890625 Z M 9.484375 -10.890625 "></path></g></g><g style="fill:#4267b2;fill-opacity:1;"><g transform="translate(131.79561, 736.669615)"><path style="stroke:none" d="M 1.625 -10.46875 C 1.976562 -12.507812 2.757812 -14.34375 3.96875 -15.96875 C 5.1875 -17.601562 6.671875 -18.878906 8.421875 -19.796875 C 10.171875 -20.722656 12.003906 -21.1875 13.921875 -21.1875 C 16.203125 -21.1875 18.097656 -20.632812 19.609375 -19.53125 C 21.117188 -18.425781 22.09375 -16.863281 22.53125 -14.84375 L 19.265625 -14.84375 C 18.898438 -16.070312 18.226562 -17.019531 17.25 -17.6875 C 16.269531 -18.351562 15.019531 -18.6875 13.5 -18.6875 C 12.039062 -18.6875 10.675781 -18.351562 9.40625 -17.6875 C 8.132812 -17.019531 7.054688 -16.0625 6.171875 -14.8125 C 5.296875 -13.5625 4.707031 -12.113281 4.40625 -10.46875 C 4.3125 -9.945312 4.265625 -9.347656 4.265625 -8.671875 C 4.265625 -6.710938 4.835938 -5.15625 5.984375 -4 C 7.128906 -2.851562 8.664062 -2.28125 10.59375 -2.28125 C 12.113281 -2.28125 13.484375 -2.609375 14.703125 -3.265625 C 15.921875 -3.929688 16.921875 -4.875 17.703125 -6.09375 L 20.96875 -6.09375 C 19.832031 -4.09375 18.316406 -2.546875 16.421875 -1.453125 C 14.535156 -0.359375 12.453125 0.1875 10.171875 0.1875 C 8.472656 0.1875 6.960938 -0.164062 5.640625 -0.875 C 4.316406 -1.59375 3.285156 -2.59375 2.546875 -3.875 C 1.804688 -5.164062 1.4375 -6.65625 1.4375 -8.34375 C 1.4375 -9.039062 1.5 -9.75 1.625 -10.46875 Z M 1.625 -10.46875 "></path></g></g><g style="fill:#4267b2;fill-opacity:1;"><g transform="translate(154.955589, 736.669615)"><path style="stroke:none" d="M 7.921875 0.203125 C 5.984375 0.203125 4.40625 -0.257812 3.1875 -1.1875 C 1.976562 -2.113281 1.375 -3.359375 1.375 -4.921875 C 1.375 -5.222656 1.382812 -5.441406 1.40625 -5.578125 L 4.109375 -5.578125 C 4.046875 -4.597656 4.34375 -3.757812 5 -3.0625 C 5.664062 -2.363281 6.679688 -2.015625 8.046875 -2.015625 C 9.398438 -2.015625 10.476562 -2.320312 11.28125 -2.9375 C 12.082031 -3.5625 12.484375 -4.429688 12.484375 -5.546875 C 12.484375 -6.222656 12.285156 -6.796875 11.890625 -7.265625 C 11.503906 -7.742188 11.023438 -8.132812 10.453125 -8.4375 C 9.878906 -8.75 9.101562 -9.097656 8.125 -9.484375 C 6.925781 -9.960938 5.960938 -10.410156 5.234375 -10.828125 C 4.503906 -11.242188 3.890625 -11.8125 3.390625 -12.53125 C 2.890625 -13.257812 2.660156 -14.171875 2.703125 -15.265625 C 2.703125 -16.429688 3.007812 -17.460938 3.625 -18.359375 C 4.25 -19.253906 5.101562 -19.945312 6.1875 -20.4375 C 7.28125 -20.9375 8.53125 -21.1875 9.9375 -21.1875 C 11.289062 -21.1875 12.460938 -20.953125 13.453125 -20.484375 C 14.441406 -20.023438 15.1875 -19.382812 15.6875 -18.5625 C 16.1875 -17.75 16.40625 -16.832031 16.34375 -15.8125 L 13.5 -15.8125 C 13.539062 -16.332031 13.425781 -16.832031 13.15625 -17.3125 C 12.882812 -17.789062 12.460938 -18.179688 11.890625 -18.484375 C 11.328125 -18.785156 10.625 -18.9375 9.78125 -18.9375 C 8.476562 -18.9375 7.429688 -18.628906 6.640625 -18.015625 C 5.847656 -17.398438 5.453125 -16.566406 5.453125 -15.515625 C 5.453125 -14.890625 5.632812 -14.351562 6 -13.90625 C 6.375 -13.457031 6.84375 -13.078125 7.40625 -12.765625 C 7.96875 -12.453125 8.738281 -12.085938 9.71875 -11.671875 C 10.894531 -11.171875 11.859375 -10.703125 12.609375 -10.265625 C 13.359375 -9.835938 13.992188 -9.265625 14.515625 -8.546875 C 15.035156 -7.828125 15.296875 -6.925781 15.296875 -5.84375 C 15.296875 -4.6875 14.992188 -3.648438 14.390625 -2.734375 C 13.796875 -1.828125 12.9375 -1.109375 11.8125 -0.578125 C 10.695312 -0.0546875 9.398438 0.203125 7.921875 0.203125 Z M 7.921875 0.203125 "></path></g></g><g style="fill:#4267b2;fill-opacity:1;"><g transform="translate(676.075937, 92.18475)"><path style="stroke:none" d="M 11.015625 -20.90625 C 13.992188 -20.90625 16.304688 -20.1875 17.953125 -18.75 C 19.609375 -17.3125 20.4375 -15.3125 20.4375 -12.75 C 20.4375 -11.945312 20.363281 -11.164062 20.21875 -10.40625 C 19.84375 -8.269531 19.066406 -6.414062 17.890625 -4.84375 C 16.722656 -3.269531 15.234375 -2.066406 13.421875 -1.234375 C 11.609375 -0.410156 9.566406 0 7.296875 0 L 0.78125 0 L 4.5 -20.90625 Z M 7.6875 -2.09375 C 10.363281 -2.09375 12.539062 -2.828125 14.21875 -4.296875 C 15.894531 -5.773438 16.96875 -7.8125 17.4375 -10.40625 C 17.550781 -11.125 17.609375 -11.804688 17.609375 -12.453125 C 17.609375 -14.429688 17.015625 -15.960938 15.828125 -17.046875 C 14.648438 -18.140625 12.914062 -18.6875 10.625 -18.6875 L 6.84375 -18.6875 L 3.90625 -2.09375 Z M 7.6875 -2.09375 "></path></g></g><g style="fill:#4267b2;fill-opacity:1;"><g transform="translate(697.285912, 92.18475)"><path style="stroke:none" d="M 11.21875 -20.90625 C 13.300781 -20.90625 14.867188 -20.453125 15.921875 -19.546875 C 16.984375 -18.648438 17.515625 -17.453125 17.515625 -15.953125 C 17.515625 -15.710938 17.476562 -15.316406 17.40625 -14.765625 C 17.144531 -13.316406 16.503906 -12.039062 15.484375 -10.9375 C 14.460938 -9.84375 13.09375 -9.117188 11.375 -8.765625 L 15.0625 0 L 11.796875 0 L 8.3125 -8.546875 L 5.046875 -8.546875 L 3.515625 0 L 0.78125 0 L 4.5 -20.90625 Z M 14.578125 -14.765625 C 14.640625 -15.117188 14.671875 -15.445312 14.671875 -15.75 C 14.671875 -16.707031 14.351562 -17.445312 13.71875 -17.96875 C 13.09375 -18.488281 12.128906 -18.75 10.828125 -18.75 L 6.84375 -18.75 L 5.4375 -10.734375 L 9.453125 -10.734375 C 10.929688 -10.734375 12.097656 -11.097656 12.953125 -11.828125 C 13.816406 -12.566406 14.359375 -13.546875 14.578125 -14.765625 Z M 14.578125 -14.765625 "></path></g></g><g style="fill:#4267b2;fill-opacity:1;"><g transform="translate(715.525894, 92.18475)"><path style="stroke:none" d="M 1.625 -10.46875 C 1.976562 -12.507812 2.757812 -14.34375 3.96875 -15.96875 C 5.1875 -17.601562 6.671875 -18.875 8.421875 -19.78125 C 10.179688 -20.695312 12.035156 -21.15625 13.984375 -21.15625 C 16.222656 -21.15625 18.097656 -20.601562 19.609375 -19.5 C 21.117188 -18.394531 22.09375 -16.84375 22.53125 -14.84375 L 19.265625 -14.84375 C 18.898438 -16.070312 18.222656 -17.019531 17.234375 -17.6875 C 16.242188 -18.351562 15.019531 -18.6875 13.5625 -18.6875 C 12.101562 -18.6875 10.726562 -18.351562 9.4375 -17.6875 C 8.144531 -17.019531 7.054688 -16.0625 6.171875 -14.8125 C 5.296875 -13.5625 4.707031 -12.113281 4.40625 -10.46875 C 4.3125 -9.945312 4.265625 -9.347656 4.265625 -8.671875 C 4.265625 -6.710938 4.84375 -5.15625 6 -4 C 7.15625 -2.851562 8.707031 -2.28125 10.65625 -2.28125 C 12.707031 -2.28125 14.503906 -2.894531 16.046875 -4.125 C 17.585938 -5.351562 18.648438 -7.019531 19.234375 -9.125 L 10.890625 -9.125 L 11.28125 -11.28125 L 22.53125 -11.28125 L 22.140625 -9.1875 C 21.679688 -7.457031 20.863281 -5.878906 19.6875 -4.453125 C 18.519531 -3.023438 17.109375 -1.894531 15.453125 -1.0625 C 13.804688 -0.226562 12.066406 0.1875 10.234375 0.1875 C 8.515625 0.1875 6.988281 -0.164062 5.65625 -0.875 C 4.320312 -1.59375 3.285156 -2.597656 2.546875 -3.890625 C 1.804688 -5.191406 1.4375 -6.6875 1.4375 -8.375 C 1.4375 -9.050781 1.5 -9.75 1.625 -10.46875 Z M 1.625 -10.46875 "></path></g></g><g style="fill:#4267b2;fill-opacity:1;"><g transform="translate(668.979402, 740.419615)"><path style="stroke:none" d="M 1.625 -10.46875 C 1.976562 -12.507812 2.757812 -14.34375 3.96875 -15.96875 C 5.1875 -17.601562 6.671875 -18.878906 8.421875 -19.796875 C 10.171875 -20.722656 12.003906 -21.1875 13.921875 -21.1875 C 16.203125 -21.1875 18.097656 -20.632812 19.609375 -19.53125 C 21.117188 -18.425781 22.09375 -16.863281 22.53125 -14.84375 L 19.265625 -14.84375 C 18.898438 -16.070312 18.226562 -17.019531 17.25 -17.6875 C 16.269531 -18.351562 15.019531 -18.6875 13.5 -18.6875 C 12.039062 -18.6875 10.675781 -18.351562 9.40625 -17.6875 C 8.132812 -17.019531 7.054688 -16.0625 6.171875 -14.8125 C 5.296875 -13.5625 4.707031 -12.113281 4.40625 -10.46875 C 4.3125 -9.945312 4.265625 -9.347656 4.265625 -8.671875 C 4.265625 -6.710938 4.835938 -5.15625 5.984375 -4 C 7.128906 -2.851562 8.664062 -2.28125 10.59375 -2.28125 C 12.113281 -2.28125 13.484375 -2.609375 14.703125 -3.265625 C 15.921875 -3.929688 16.921875 -4.875 17.703125 -6.09375 L 20.96875 -6.09375 C 19.832031 -4.09375 18.316406 -2.546875 16.421875 -1.453125 C 14.535156 -0.359375 12.453125 0.1875 10.171875 0.1875 C 8.472656 0.1875 6.960938 -0.164062 5.640625 -0.875 C 4.316406 -1.59375 3.285156 -2.59375 2.546875 -3.875 C 1.804688 -5.164062 1.4375 -6.65625 1.4375 -8.34375 C 1.4375 -9.039062 1.5 -9.75 1.625 -10.46875 Z M 1.625 -10.46875 "></path></g></g><g style="fill:#4267b2;fill-opacity:1;"><g transform="translate(692.139381, 740.419615)"><path style="stroke:none" d="M 17.375 -14.796875 C 17.070312 -13.054688 16.21875 -11.609375 14.8125 -10.453125 C 13.414062 -9.304688 11.507812 -8.734375 9.09375 -8.734375 L 5.0625 -8.734375 L 3.515625 0 L 0.78125 0 L 4.5 -20.90625 L 11.25 -20.90625 C 13.332031 -20.90625 14.890625 -20.457031 15.921875 -19.5625 C 16.960938 -18.675781 17.484375 -17.492188 17.484375 -16.015625 C 17.484375 -15.753906 17.445312 -15.347656 17.375 -14.796875 Z M 9.484375 -10.890625 C 10.984375 -10.890625 12.148438 -11.234375 12.984375 -11.921875 C 13.828125 -12.609375 14.359375 -13.566406 14.578125 -14.796875 C 14.640625 -15.148438 14.671875 -15.476562 14.671875 -15.78125 C 14.671875 -17.757812 13.398438 -18.75 10.859375 -18.75 L 6.84375 -18.75 L 5.453125 -10.890625 Z M 9.484375 -10.890625 "></path></g></g><g style="fill:#4267b2;fill-opacity:1;"><g transform="translate(709.50936, 740.419615)"><path style="stroke:none" d="M 17.34375 -20.90625 L 16.953125 -18.78125 L 11.25 -18.78125 L 7.953125 0 L 5.21875 0 L 8.515625 -18.78125 L 2.8125 -18.78125 L 3.203125 -20.90625 Z M 17.34375 -20.90625 "></path></g></g><g clip-rule="nonzero" clip-path="url(#b5c7d14739)"><g clip-rule="nonzero" clip-path="url(#9d60f73ce8)"><path style=" stroke:none;fill-rule:nonzero;fill:#4e71b9;fill-opacity:1;" d="M 278.015625 308.363281 L 531.984375 308.363281 L 531.984375 435.347656 L 278.015625 435.347656 Z M 278.015625 308.363281 "></path></g></g><g clip-rule="nonzero" clip-path="url(#707d2f6666)"><g clip-rule="nonzero" clip-path="url(#d4a56931c1)"><path style=" stroke:none;fill-rule:nonzero;fill:#f68d8d;fill-opacity:1;" d="M 278.015625 308.363281 L 531.984375 308.363281 L 531.984375 435.347656 L 278.015625 435.347656 Z M 278.015625 308.363281 "></path></g></g></g></svg>