<svg xmlns="http://www.w3.org/2000/svg" id="Layer_1" data-name="Layer 1" viewBox="0 0 1080 1080"><defs><style>.cls-1{fill:none;}.cls-1,.cls-6{stroke:#e17b7c;}.cls-1,.cls-2,.cls-5,.cls-6{stroke-miterlimit:10;}.cls-1,.cls-2,.cls-5{stroke-width:15px;}.cls-2,.cls-5,.cls-6{fill:#fff;}.cls-2{stroke:#4265b0;}.cls-3{fill:#b7c7e6;}.cls-4{font-size:173.98px;fill:#22498a;font-family:Poppins-SemiBoldItalic, Poppins;font-weight:600;font-style:italic;}.cls-5{stroke:#b7c7e6;}.cls-6{font-size:448.67px;stroke-width:12px;font-family:Poppins-Bold, Poppins;font-weight:700;}</style></defs><path class="cls-1" d="M972.34,272.27A507,507,0,0,1,1049,541.19c0,281.29-228,509.32-509.32,509.32S30.4,822.48,30.4,541.19s228-509.32,509.32-509.32A507.25,507.25,0,0,1,767.13,85.33"></path><path class="cls-1" d="M908.45,189.84q2.71,2.85,5.38,5.74"></path><path class="cls-1" d="M822.16,117.29a512,512,0,0,1,86.29,72.55"></path><rect class="cls-2" x="159.15" y="21.89" width="628.57" height="773.96"></rect><path class="cls-2" d="M159.63,796.56c-11-.12-50.09.76-86,29.69-38.36,30.91-46.51,72.45-48.22,82.67l-.24-758.75c0-14.43,2.3-37.27,15.21-60.57,33.06-59.69,105.23-67,113.07-67.71h6.18Z"></path><path class="cls-2" d="M25.33,819.6a136.64,136.64,0,0,1,36.43-54.79c38.47-34.92,84.89-35.65,96.92-35.48"></path><path class="cls-2" d="M158,94.58a146.91,146.91,0,0,0-44.16,8.56,151.67,151.67,0,0,0-58.24,38.72A153.43,153.43,0,0,0,25,190.08"></path><path class="cls-2" d="M140,795.21H793.11c-59.22,20.48-97.92,77.22-95,138.1,2.67,56.3,40.43,106.07,95,124.8H140C73.37,1050.38,22.64,993.27,22.8,926.34,23,859.65,73.61,802.91,140,795.21Z"></path><rect class="cls-3" x="123.52" y="863.97" width="350.95" height="23.44" rx="8"></rect><rect class="cls-3" x="510.89" y="864.95" width="141.74" height="23.44" rx="8"></rect><path class="cls-3" d="M136.19,915H685.73l5.27.14c-.28,3.47-.47,7.15-.54,11-.08,4.34,0,8.46.22,12.32l-4.95-.05H136.19a11.72,11.72,0,0,1,0-23.44Z"></path><path class="cls-3" d="M136.19,966.28l559.78,0c1.1,3.71,2.42,7.66,4,11.79,1.71,4.43,3.5,8.51,5.3,12.21l-569.08-.52a11.72,11.72,0,1,1,0-23.44Z"></path><text class="cls-4" transform="translate(289.06 252)">CPT</text><rect class="cls-5" x="828.11" y="579.67" width="121.63" height="371.06" rx="14.27" transform="translate(-280.72 852.69) rotate(-45)"></rect><circle class="cls-2" cx="616.68" cy="496.53" r="212.85"></circle><rect class="cls-3" x="856.25" y="460.89" width="158.69" height="22.33" rx="11.17"></rect><text class="cls-6" transform="translate(478.97 651.28)">+</text><path class="cls-3" d="M1041.68,527.09l-175.23-.16a11.17,11.17,0,1,1,0-22.33h174.16q.47,6.48.76,13.23C1041.5,521,1041.61,524.05,1041.68,527.09Z"></path><rect class="cls-3" x="854.63" y="547.84" width="160.11" height="22.33" rx="11.17"></rect></svg>