<svg xmlns="http://www.w3.org/2000/svg" id="Layer_1" data-name="Layer 1" viewBox="0 0 1080 1080"><defs><style>.cls-1{fill:none;}.cls-1,.cls-3{stroke:#4368b1;}.cls-1,.cls-2,.cls-3{stroke-miterlimit:10;stroke-width:15px;}.cls-2,.cls-3{fill:#fff;}.cls-2{stroke:#e17b7c;}</style></defs><path class="cls-1" d="M361.94,384.89H110.08a67.43,67.43,0,0,0-67.24,67.23V948.78A67.44,67.44,0,0,0,110.08,1016H606.74A67.44,67.44,0,0,0,674,948.78V698"></path><path class="cls-1" d="M358.41,391v91.94c-54.35-6-94,30.93-94.17,60.27-.2,29.52,39.35,67.27,94.17,61.41V796.14c60.59-3.63,101.88,35.27,101.21,63.5C459,887.42,417.27,923.48,358.41,919v91.78"></path><path class="cls-1" d="M48.78,700.84h93.41c-3.71,59.19,33.5,99.76,60.65,99.4,26.9-.35,62.6-41.14,58.38-99.4H458.5c-6-55.73,32.24-96,62.18-95.84s67.53,40.43,61.4,95.84h85.51"></path><path class="cls-2" d="M322.41,141.22,628.35,64.35l128.43,334.7-97.29,25.3c-16.61-67.42-73.59-98.72-104.38-87.88C525.69,346.82,502.06,402,524.24,462.3l-108,30.16q-15.57-58.86-31.13-117.73c-47.55,19.2-96.49-3.71-109-37-13.66-36.39,13.94-91.41,70.05-102.17Q334.29,188.41,322.41,141.22Z"></path><rect class="cls-3" x="774.53" y="460.76" width="265.45" height="80.92" transform="translate(-104.55 276.33) rotate(-16.39)"></rect><path class="cls-3" d="M802.75,487.27Q783.15,437.08,764.08,385q-8.13-22.26-15.94-44.29a227.28,227.28,0,0,1-86.95-41.46c-16.83-13.08-31.93-24.69-42.47-43.48-6.76-12-15.16-27-9.1-40.44,5.82-12.89,23.14-20.32,43.48-19.21l59.65,37.41c-9.68-18.45-19.3-38.18-28.61-59.18A1000,1000,0,0,1,645.86,73.76c101.19,68.31,159.37,97.77,195.31,111.18,12.26,4.58,47.44,16.81,76.84,49.55a166.07,166.07,0,0,1,24.27,35.39Q963.37,351,984.47,432.22Z"></path><path class="cls-3" d="M810.19,303,708.57,229.28"></path></svg>