<svg xmlns="http://www.w3.org/2000/svg" id="Layer_1" data-name="Layer 1" viewBox="0 0 1080 1080"><defs><style>.cls-1,.cls-5{fill:none;}.cls-1{stroke:#4368b1;}.cls-1,.cls-2,.cls-5{stroke-miterlimit:10;stroke-width:15px;}.cls-2{fill:#fff;}.cls-2,.cls-5{stroke:#e17b7c;}.cls-3{fill:#4368b1;}.cls-4{fill:#e17b7c;}</style></defs><polyline class="cls-1" points="67.92 44.57 67.92 1015.11 1059.05 1015.11"></polyline><rect class="cls-2" x="228.14" y="119.16" width="116.76" height="116.76" rx="14.59"></rect><rect class="cls-2" x="653" y="119.16" width="116.76" height="116.76" rx="14.59"></rect><rect class="cls-3" x="399.81" y="123.7" width="158.05" height="31.14" rx="15.57"></rect><path class="cls-3" d="M67.92,162H131a15.57,15.57,0,0,1,15.57,15.57v0A15.57,15.57,0,0,1,131,193.11H67.92a0,0,0,0,1,0,0V162A0,0,0,0,1,67.92,162Z"></path><path class="cls-3" d="M67.92,295.59H131a15.57,15.57,0,0,1,15.57,15.57v0A15.57,15.57,0,0,1,131,326.73H67.92a0,0,0,0,1,0,0V295.59a0,0,0,0,1,0,0Z"></path><path class="cls-3" d="M67.92,442.19H131a15.57,15.57,0,0,1,15.57,15.57v0A15.57,15.57,0,0,1,131,473.32H67.92a0,0,0,0,1,0,0V442.19A0,0,0,0,1,67.92,442.19Z"></path><path class="cls-3" d="M67.92,594H131a15.57,15.57,0,0,1,15.57,15.57v0A15.57,15.57,0,0,1,131,625.11H67.92a0,0,0,0,1,0,0V594A0,0,0,0,1,67.92,594Z"></path><path class="cls-3" d="M67.92,727.59H131a15.57,15.57,0,0,1,15.57,15.57v0A15.57,15.57,0,0,1,131,758.73H67.92a0,0,0,0,1,0,0V727.59a0,0,0,0,1,0,0Z"></path><path class="cls-3" d="M67.92,874.19H131a15.57,15.57,0,0,1,15.57,15.57v0A15.57,15.57,0,0,1,131,905.32H67.92a0,0,0,0,1,0,0V874.19A0,0,0,0,1,67.92,874.19Z"></path><path class="cls-3" d="M199.46,960.2h63.11a15.57,15.57,0,0,1,15.57,15.57v0a15.57,15.57,0,0,1-15.57,15.57H199.46a0,0,0,0,1,0,0V960.2a0,0,0,0,1,0,0Z" transform="translate(-736.98 1214.57) rotate(-90)"></path><path class="cls-3" d="M333.08,960.2h63.11a15.57,15.57,0,0,1,15.57,15.57v0a15.57,15.57,0,0,1-15.57,15.57H333.08a0,0,0,0,1,0,0V960.2A0,0,0,0,1,333.08,960.2Z" transform="translate(-603.35 1348.19) rotate(-90)"></path><path class="cls-3" d="M479.68,960.2h63.11a15.57,15.57,0,0,1,15.57,15.57v0a15.57,15.57,0,0,1-15.57,15.57H479.68a0,0,0,0,1,0,0V960.2a0,0,0,0,1,0,0Z" transform="translate(-456.76 1494.78) rotate(-90)"></path><path class="cls-3" d="M631.46,960.2h63.11a15.57,15.57,0,0,1,15.57,15.57v0a15.57,15.57,0,0,1-15.57,15.57H631.46a0,0,0,0,1,0,0V960.2A0,0,0,0,1,631.46,960.2Z" transform="translate(-304.98 1646.57) rotate(-90)"></path><path class="cls-3" d="M765.08,960.2h63.11a15.57,15.57,0,0,1,15.57,15.57v0a15.57,15.57,0,0,1-15.57,15.57H765.08a0,0,0,0,1,0,0V960.2A0,0,0,0,1,765.08,960.2Z" transform="translate(-171.35 1780.19) rotate(-90)"></path><path class="cls-3" d="M911.68,960.2h63.11a15.57,15.57,0,0,1,15.57,15.57v0a15.57,15.57,0,0,1-15.57,15.57H911.68a0,0,0,0,1,0,0V960.2A0,0,0,0,1,911.68,960.2Z" transform="translate(-24.76 1926.78) rotate(-90)"></path><rect class="cls-3" x="399.81" y="201.54" width="158.05" height="31.14" rx="15.57"></rect><rect class="cls-3" x="824.03" y="123.7" width="158.05" height="31.14" rx="15.57"></rect><rect class="cls-3" x="824.03" y="201.54" width="158.05" height="31.14" rx="15.57"></rect><circle class="cls-4" cx="277.43" cy="790.51" r="72"></circle><circle class="cls-4" cx="769.76" cy="751.85" r="72"></circle><circle class="cls-4" cx="903.05" cy="442.18" r="72"></circle><circle class="cls-4" cx="479.91" cy="514.18" r="72"></circle><polyline class="cls-5" points="305.32 751.85 479.9 514.18 769.76 751.85 903.05 467.49"></polyline></svg>