<svg xmlns="http://www.w3.org/2000/svg" id="Layer_1" data-name="Layer 1" viewBox="0 0 1080 1080"><defs><style>.cls-1{fill:#d9e8ff;}.cls-1,.cls-2{stroke:#000;stroke-miterlimit:10;stroke-width:5px;}.cls-2{fill:#ffa1a6;}</style></defs><path d="M516.85,1065.91c16.6-1.61,35.59-2.73,54.36-5.41,62.4-8.92,122.34-25.71,176.77-58.61,34.12-20.62,42.09-39.34,34.95-78.51-25-137.11-158.57-237.75-296.32-223.24C367,712.74,263.87,810.41,244.14,929.4c-5,30.19,4.61,53.11,31,69.26C348.65,1043.58,429.67,1061.08,516.85,1065.91Z"></path><path d="M636,498.68A122,122,0,0,0,514.45,376.92c-67.09-.23-122.67,55.31-122.4,122.31.28,67.32,55.9,122.35,123,121.63A121.69,121.69,0,0,0,636,498.68Z"></path><path class="cls-1" d="M516.85,1065.91c-87.18-4.83-168.2-22.33-241.69-67.25-26.41-16.15-36-39.07-31-69.26,19.73-119,122.89-216.66,242.47-229.26,137.75-14.51,271.33,86.13,296.32,223.24,7.14,39.17-.83,57.89-34.95,78.51-54.43,32.9-114.37,49.69-176.77,58.61C552.44,1063.18,533.45,1064.3,516.85,1065.91Z"></path><path class="cls-2" d="M530.5,53.15c8.07,25,15.23,47.15,22.34,69.28,7.26,22.59,9.52,24.21,33.25,24.15,23-.06,46.09,0,71.63,0-4.09,3.52-6.29,5.71-8.77,7.51-18.36,13.39-36.59,27-55.26,39.93-10.18,7.05-12.72,15.52-8.84,27,7.51,22.21,14.6,44.55,21.83,66.85.77,2.38,1.31,4.84,2.73,10.14-18.84-13.73-35.48-25.88-52.13-38-4.81-3.51-9.71-6.91-14.47-10.49-8.62-6.47-16.92-6.16-25.58.22-21.26,15.68-42.7,31.12-66.6,48.49,2.39-7.8,3.88-12.92,5.52-18,6.16-19.12,12.4-38.22,18.55-57.35,5.11-15.88,3.63-20.3-10.08-30.25-20.09-14.58-40.2-29.13-59.85-46.24,6.46,0,12.91,0,19.37,0,19.38.05,38.76-.07,58.14.24,12.19.19,19.41-5.31,23-16.92,6.54-21.34,13.55-42.54,20.42-63.78C526.76,62.58,528.16,59.33,530.5,53.15Z"></path><path class="cls-2" d="M905.57,266.24c-16.81,12.16-33.43,24.59-50.5,36.38-10.17,7-12.66,15.38-8.64,27A482.62,482.62,0,0,1,863.67,390q-24.23-17.67-48.45-35.33c-13.85-10.08-17.53-10.07-31.67.2-16.25,11.79-32.46,23.63-51.3,37.35,5.67-17.66,10.44-32.57,15.25-47.46,1.83-5.66,3.63-11.34,5.66-16.93,3.74-10.24.78-17.92-8-24.16-17.27-12.24-34.29-24.81-51.08-39.56h49.43c30.17,0,30.16,0,39.5-28.76,5.16-15.9,10.38-31.78,16.45-50.37,6.71,20.57,12.69,38.74,18.58,56.94,6.83,21.15,8.25,22.2,30.88,22.19h55.84Z"></path><path class="cls-2" d="M155.93,264.06c20.83,0,41.66-.29,62.48.11,11.78.23,18.71-4.57,22.16-16,6.14-20.22,13-40.23,20.53-63.38,7.12,22,13.31,41,19.48,60.12,5.4,16.68,8.79,19.12,26.46,19.11,19.67,0,39.35,0,60.18,2.15q-12.66,9.17-25.31,18.34c-8.74,6.34-17.31,12.93-26.25,19-9.46,6.4-11.69,14.46-8,25.12,6.86,20,13.25,40.1,18.23,61.74L295.11,368c-6.92-5.05-14-9.91-20.71-15.19-8.85-7-17.1-7.14-26.3-.17a540.13,540.13,0,0,1-53.17,36c5.8-17.89,11.56-35.79,17.41-53.66,6.7-20.48,5.89-23-11.32-35.44Q178,283,155.15,266.23Z"></path><path class="cls-2" d="M25.67,439.09c16.34,0,32.69-.22,49,.09,9.25.18,14.68-3.58,17.39-12.52,4.82-15.87,10.19-31.57,16.11-49.74l15.29,47.18c4.24,13.09,6.9,15,20.77,15,15.44,0,30.87,0,47.22,1.69q-9.93,7.18-19.86,14.38c-6.86,5-13.58,10.15-20.6,14.9-7.42,5-9.18,11.34-6.31,19.71A478,478,0,0,1,159,538.23l-24.13-17.58c-5.42-4-11-7.78-16.25-11.92-6.94-5.45-13.42-5.6-20.64-.13a426.65,426.65,0,0,1-41.72,28.27c4.55-14,9.07-28.09,13.66-42.12,5.26-16.07,4.62-18.06-8.89-27.81-12-8.68-24-17.43-36-26.14Z"></path><path class="cls-2" d="M892.54,439.09c16.34,0,32.69-.22,49,.09,9.25.18,14.68-3.58,17.4-12.52,4.81-15.87,10.18-31.57,16.1-49.74,5.59,17.24,10.45,32.21,15.29,47.18,4.24,13.09,6.9,15,20.77,15,15.44,0,30.88,0,47.22,1.69l-19.86,14.38c-6.86,5-13.58,10.15-20.59,14.9-7.43,5-9.19,11.34-6.31,19.71a480.54,480.54,0,0,1,14.3,48.45l-24.12-17.58c-5.43-4-11-7.78-16.26-11.92-6.94-5.45-13.42-5.6-20.64-.13a426.65,426.65,0,0,1-41.72,28.27c4.55-14,9.07-28.09,13.66-42.12,5.26-16.07,4.62-18.06-8.89-27.81-12-8.68-24-17.43-36-26.14Z"></path><path class="cls-1" d="M636,498.68A121.69,121.69,0,0,1,515,620.86c-67.05.72-122.67-54.31-122.95-121.63-.27-67,55.31-122.54,122.4-122.31A122,122,0,0,1,636,498.68Z"></path></svg>