<svg xmlns="http://www.w3.org/2000/svg" id="Layer_1" data-name="Layer 1" viewBox="0 0 1080 1080"><defs><style>.cls-1{fill:none;stroke:#4368b1;}.cls-1,.cls-2{stroke-miterlimit:10;stroke-width:15px;}.cls-2{fill:#fff;stroke:#e17b7c;}.cls-3{fill:#e17b7c;}</style></defs><rect class="cls-1" x="41.35" y="44.57" width="1000.35" height="677.19" rx="105.15"></rect><rect class="cls-1" x="104.56" y="90.79" width="873.93" height="580.37" rx="80.84"></rect><circle class="cls-2" cx="541.52" cy="392.89" r="223.27"></circle><rect class="cls-3" x="148.35" y="136.68" width="105.08" height="64.22" rx="32.11"></rect><rect class="cls-3" x="828.78" y="136.68" width="105.08" height="64.22" rx="32.11"></rect><rect class="cls-3" x="828.78" y="574.51" width="105.08" height="64.22" rx="32.11"></rect><rect class="cls-3" x="503.41" y="467" width="76.22" height="64.22" rx="32.11" transform="translate(1040.63 -42.41) rotate(90)"></rect><rect class="cls-3" x="148.35" y="574.51" width="105.08" height="64.22" rx="32.11"></rect><rect class="cls-3" x="509.4" y="255.38" width="64.24" height="180.32" rx="27.89"></rect><rect class="cls-1" x="424.03" y="721.76" width="230.27" height="151.78"></rect><rect class="cls-1" x="66.62" y="984.46" width="942.81" height="61.3" rx="30.65"></rect><polyline class="cls-1" points="236.89 984.46 288.46 873.54 788.57 873.54 844.35 984.46"></polyline></svg>