<svg xmlns="http://www.w3.org/2000/svg" id="Layer_1" data-name="Layer 1" viewBox="0 0 1080 1080"><defs><style>.cls-1,.cls-2,.cls-3{fill:none;stroke-miterlimit:10;stroke-width:15px;}.cls-1{stroke:#4265b0;}.cls-2{stroke:#e17b7c;}.cls-3{stroke:#b7c7e6;}</style></defs><path class="cls-1" d="M403.44,743.21H681.59a20.46,20.46,0,0,1,20.46,20.46V978.16a0,0,0,0,1,0,0H383a0,0,0,0,1,0,0V763.67A20.46,20.46,0,0,1,403.44,743.21Z"></path><rect class="cls-1" x="87.78" y="285.44" width="246.06" height="694.23"></rect><rect class="cls-1" x="760.6" y="285.44" width="246.13" height="694.23"></rect><path class="cls-2" d="M75.9,199H335.23a0,0,0,0,1,0,0v86.4a0,0,0,0,1,0,0H75.9A19.71,19.71,0,0,1,56.2,265.74v-47A19.71,19.71,0,0,1,75.9,199Z"></path><path class="cls-2" d="M761,202.83h262.55a19.71,19.71,0,0,1,19.71,19.71v43.14a19.71,19.71,0,0,1-19.71,19.71H761a0,0,0,0,1,0,0V202.83A0,0,0,0,1,761,202.83Z"></path><rect class="cls-1" x="335.23" y="123.25" width="425.94" height="856.42"></rect><rect class="cls-2" x="274.09" y="38.87" width="539.62" height="84" rx="15.16"></rect><rect class="cls-3" x="16.92" y="979.17" width="1044.38" height="70.23" rx="25.77"></rect><path class="cls-2" d="M583.48,357.85v5.59q0,29.63,0,59.23c0,8.56-3.92,12.43-12.58,12.44q-22.6,0-45.22,0c-8.45,0-12.18-3.75-12.18-12.18V357.85h-5.16q-29.61,0-59.22,0c-8.77,0-12.13-3.37-12.14-12q0-23.08,0-46.18c0-8.67,3.36-12,12.19-12H513.5v-5.39q0-30.08,0-60.16c0-7.87,3.73-11.64,11.74-11.67q22.85-.09,45.69,0c8.65,0,12.53,3.94,12.54,12.54q0,29.63,0,59.24v5.45h64.65c7.85,0,11.84,3.86,11.85,11.56q0,23.55,0,47.1c0,7.55-3.88,11.47-11.42,11.49q-29.38.06-58.75,0Z"></path><line class="cls-1" x1="95.28" y1="848.94" x2="326.33" y2="848.94"></line><line class="cls-1" x1="768.66" y1="848.94" x2="999.23" y2="848.94"></line><rect class="cls-3" x="163.06" y="355.93" width="95.49" height="95.49" rx="12.88"></rect><rect class="cls-3" x="163.06" y="516.09" width="95.49" height="95.49" rx="12.88"></rect><rect class="cls-3" x="163.06" y="677.27" width="95.49" height="95.49" rx="12.88"></rect><rect class="cls-3" x="831.53" y="355.93" width="95.49" height="95.49" rx="12.88"></rect><rect class="cls-3" x="831.53" y="516.09" width="95.49" height="95.49" rx="12.88"></rect><rect class="cls-3" x="831.53" y="677.27" width="95.49" height="95.49" rx="12.88"></rect><rect class="cls-1" x="386.91" y="536.31" width="316.04" height="76.93" rx="9.85"></rect><line class="cls-1" x1="538.35" y1="743.21" x2="538.35" y2="970.58"></line></svg>