<svg xmlns="http://www.w3.org/2000/svg" id="Layer_1" data-name="Layer 1" viewBox="0 0 1080 1080"><defs><style>.cls-1{fill:#d9e8ff;}.cls-1,.cls-2,.cls-3{stroke:#000;stroke-miterlimit:10;}.cls-1,.cls-2{stroke-width:5px;}.cls-2{fill:#df7a7b;}.cls-3{fill:#4268ad;stroke-width:2px;}</style></defs><path class="cls-1" d="M458.16,1024.66c.39-37.86,1.11-39.79-37-49.41-41-10.36-79.28-27.71-115.44-49.73-18.11-11-24.85-10-40.06,5.19-8.18,8.17-16.21,16.5-24.55,24.5-11,10.51-21.86,10.87-32.41.44Q166.54,914,124.91,871.7c-10-10.12-9.7-21.32.18-31.66,9.53-10,19.57-19.47,29.13-29.42,9.75-10.15,11-19.32,3.62-31.37a459,459,0,0,1-56.95-137.84C97.73,627.75,90.36,622.36,76,622c-13.41-.31-26.83.15-40.24-.19-15.59-.4-23.42-8.25-23.48-23.68q-.24-58.24,0-116.49c.07-15.39,7.93-23.14,23.63-23.51,13-.31,26.08.09,39.12-.15,15.53-.29,22.76-5.75,26.2-20.65,11.19-48.4,30.14-93.51,56.1-135.78,8.09-13.19,6.81-22.07-4-33.13-9.37-9.61-19.11-18.87-28.37-28.59-9.84-10.32-10-21.5,0-31.66Q166.64,166,208.8,124.25c10.22-10.11,21.23-10,31.59-.15,10,9.52,19.43,19.6,29.33,29.21,10.19,9.91,19.21,11.28,31.27,3.87,42.85-26.33,88.51-45.67,137.54-57.08,13.78-3.2,19.23-10.54,19.53-24.73.29-13.44-.17-26.89.18-40.32.43-16.18,8.29-23.75,24.55-23.8q57-.16,114,0c16.81,0,24.6,7.69,25,24.55.28,12.68-.06,25.39.11,38.08.22,15.77,5.44,23,20.28,26.44a449.9,449.9,0,0,1,135.53,56.15c13.62,8.43,22.21,7.07,33.92-4.43,8.78-8.62,17.34-17.47,26.12-26.09,12.26-12,22.84-12.33,34.82-.43Q913.46,166.1,954,207.1c11.38,11.52,11.15,22.36-.24,34.12-8.82,9.11-18,17.91-26.81,27-11.07,11.33-12.47,19.88-4.41,33a458.91,458.91,0,0,1,56.41,136.85c3.3,14.24,10.57,19.6,25.62,19.91,13,.27,26.08-.13,39.12.14,16.29.35,24,8.08,24.07,24.22q.19,57.69,0,115.37c-.06,16.06-7.87,23.79-24.19,24.13-13,.28-26.09-.12-39.12.15-15,.31-22.22,5.68-25.53,20a457.94,457.94,0,0,1-56.47,136.83c-7.79,12.71-6.52,21.54,3.82,32.22,9.35,9.65,19.08,18.91,28.35,28.62,10.34,10.82,10.55,21.87.08,32.51q-41.22,41.85-83,83.16c-11,10.87-21.87,10.44-33.21-.61-9.34-9.11-18.37-18.55-27.73-27.65-10.69-10.41-19.6-11.75-32.15-4-42.51,26.2-87.86,45.35-136.53,56.65-14.43,3.36-19.85,10.56-20.12,25.42-.25,13.06.15,26.13-.15,39.19-.39,16.81-8.22,24.39-25.09,24.43q-56.46.15-112.91,0c-17.68,0-25.17-7.45-25.59-25.07C458,1037.35,458.16,1031,458.16,1024.66Z"></path><polygon class="cls-2" points="400.5 672.11 333.83 536.07 351.84 525.11 406.86 639.14 732.83 407.89 746.16 429.94 400.5 672.11"></polygon><path class="cls-3" d="M897.47,495C869.37,329.22,735.31,203.38,575,188c-142.9-13.69-283.11,62.63-353.76,193.3l-40.67-35.2a321.3,321.3,0,0,1,9.85,36.66,323.42,323.42,0,0,1,6.48,75.2,276.25,276.25,0,0,1,86.34-72.29L232,385c68-127,204-201.19,342.45-187.64C729.68,212.51,859.09,335.17,885,496Z"></path><path class="cls-3" d="M180.56,579.86c28.1,165.78,162.16,291.62,322.49,307,142.9,13.69,283.11-62.63,353.76-193.3l40.66,35.2a321.86,321.86,0,0,1-16.33-111.86,276.35,276.35,0,0,1-86.33,72.29l51.24.73c-68,127-204,201.19-342.46,187.64C348.35,862.35,218.94,739.69,193,578.85Z"></path></svg>