<svg xmlns="http://www.w3.org/2000/svg" id="Layer_1" data-name="Layer 1" viewBox="0 0 1080 1080"><defs><style>.cls-1{fill:#e17b7c;}.cls-2{fill:#4568b1;}</style></defs><path class="cls-1" d="M942.49,160.68c48.09-17.18,88.49-5.24,110.34,32.14a82.56,82.56,0,0,1-122.09,106.8c-25.86-19.92-46.56-63.4-17.1-113.65-46.2-45.4-99.68-79.76-160-103.6-42.89-16.94-87.43-27-133.3-31.48-17.56-1.71-25.4-9.09-23.75-22.13C598,17.23,607.1,11.88,623.26,13.38Q801,29.94,932.09,151.07Zm81.9,64.13a44.3,44.3,0,1,0-33.32,52.79A44.16,44.16,0,0,0,1024.39,224.81Z"></path><path class="cls-1" d="M114.4,878.83c-49.53,12.41-88.57-3.41-106.68-42.74A82.56,82.56,0,0,1,139.64,741.7c23.8,22.35,40.16,67.63,5.94,114.77,41.56,49.69,91.44,89.1,149.14,118.7,41,21,84.39,35.42,129.6,44.32,17.31,3.41,24.4,11.52,21.49,24.33-2.58,11.34-12.11,15.79-28.05,12.71q-175.24-33.79-293.94-167.12C120.86,886.09,117.91,882.76,114.4,878.83ZM39.14,807a44.3,44.3,0,1,0,38.3-49.29A44.17,44.17,0,0,0,39.14,807Z"></path><path class="cls-2" d="M752.25,458.73l108.54,53.62c2.25,1.11,5.06,1.76,6.58,3.51,3.55,4.11,9.16,8.9,8.94,13.16-.25,4.88-4.85,11.41-9.37,13.87-19.46,10.6-39.6,20-59.47,29.79-17.81,8.82-35.59,17.7-55.22,27.47,12.85,6.44,23.9,12,35,17.52,25.65,12.72,51.29,25.49,77,38,6.84,3.33,14,7.68,12.21,15.53-1.28,5.59-6.77,12-12.07,14.63C762.92,736.53,661.15,786.64,559.51,837c-7.74,3.84-14.57,3.8-22.36-.06-101.33-50.27-202.82-100.22-304-150.73-5.61-2.81-11.68-9.19-13.05-15-2-8.44,6.07-12.52,13.11-16q50.6-24.85,101.06-50c2.77-1.38,5.46-2.92,9.72-5.21-7.63-3.89-13.81-7.14-20.08-10.24-30.46-15.1-60.91-30.24-91.46-45.15-6.8-3.32-13-7.08-12.83-15.47s6.37-11.93,13.16-15.26c36.62-17.92,73.1-36.12,111.21-55-3.87-2.21-6.41-3.84-9.1-5.17-34-16.87-68.16-33.38-101.85-50.83-5.6-2.9-11.51-9.24-13-15.06-2-7.82,5.58-12.06,12.33-15.39Q385,297.21,537.56,221.67c7.42-3.68,13.9-3.8,21.34-.12C660.87,272.06,763,322.3,864.8,373.11c5.23,2.61,11.37,9.71,11.36,14.72s-6.24,11.87-11.48,14.58c-32.72,17-65.92,33-98.95,49.37C761.94,453.66,758.21,455.66,752.25,458.73ZM266.59,387.84c93.6,46.29,185,91.57,276.55,136.41,3.5,1.72,9.66.37,13.61-1.55,52.45-25.56,104.74-51.47,157-77.31,38.14-18.85,76.27-37.72,115.54-57.14-3.41-2.08-5.67-3.71-8.13-4.93q-132.86-65.7-265.87-131c-4.15-2-11.22-1.31-15.6.83q-126.8,62-253.25,124.8C280.47,380.88,274.47,383.91,266.59,387.84ZM830.25,529.38c-35.4-17.47-68.49-33.57-101.32-50.2-6.73-3.4-11.91-3.56-18.8-.1-49.89,25-100.09,49.41-150,74.36-8.14,4.07-15,4.27-23.22.13-50.24-25.15-100.75-49.74-151-74.86-6.09-3-10.77-3.23-16.89-.13-30.64,15.53-61.54,30.55-92.32,45.79-2.72,1.34-5.29,3-9,5.08,2.93,1.75,4.63,2.94,6.46,3.85Q407.4,599.15,540.83,664.68c4.24,2.07,11.33,1.77,15.67-.33C610,638.44,663.13,612,716.38,585.67Zm-.2,141.46c-36.5-18-70.73-35.13-105.29-51.58-3.61-1.72-9.76-.7-13.68,1.21q-75.23,36.72-150,74.28c-8.89,4.47-16.33,4.47-25.21,0-44.09-22.24-89-42.94-132.44-66.35-18.69-10.07-33.51-10.77-52-.06-26.75,15.47-55.22,28-84.07,42.28,3.54,2.12,5.85,3.74,8.34,5Q407.46,740.7,539.23,805.89c6.38,3.17,11.32,3.55,17.9.27q121.11-60.27,242.5-120C809.18,681.48,818.64,676.6,830.05,670.84Z"></path></svg>