<svg xmlns="http://www.w3.org/2000/svg" id="Layer_1" data-name="Layer 1" viewBox="0 0 1080 1080"><defs><style>.cls-1,.cls-2{fill:#fff;}.cls-1,.cls-3{stroke:#4368b1;}.cls-1,.cls-2,.cls-3{stroke-miterlimit:10;stroke-width:15px;}.cls-2{stroke:#e17b7c;}.cls-3{fill:none;}.cls-4{font-size:236px;fill:#e17b7c;font-family:Poppins-Light, Poppins;font-weight:300;}</style></defs><path class="cls-1" d="M72.46,665.32q-2-298.7-3.89-597.4A258.66,258.66,0,0,1,185.32,34.84c72.33-2.7,125.37,26.21,146,38.92l-1.95,562.38"></path><path class="cls-1" d="M68.57,78.07A286.83,286.83,0,0,0,186.3,109.76c68.86,3.27,121.07-19.41,145-31.69"></path><path class="cls-1" d="M68.57,171.14A286.83,286.83,0,0,0,186.3,202.83c68.86,3.27,121.07-19.41,145-31.69"></path><path class="cls-1" d="M68.57,289.37A287,287,0,0,0,186.3,321.06c68.86,3.27,121.07-19.41,145-31.69"></path><path class="cls-1" d="M68.57,380.91A286.83,286.83,0,0,0,186.3,412.6a288.54,288.54,0,0,0,145-31.69"></path><path class="cls-1" d="M68.57,478.44A287,287,0,0,0,186.3,510.12c68.86,3.27,121.07-19.4,145-31.68"></path><path class="cls-1" d="M68.57,581.05A286.83,286.83,0,0,0,186.3,612.74c68.86,3.27,121.07-19.41,145-31.69"></path><path class="cls-1" d="M267.3,860.17q-1.95-298.71-3.89-597.41a258.67,258.67,0,0,1,116.76-33.08c72.32-2.7,125.37,26.21,145.94,38.92L524.17,831"></path><path class="cls-1" d="M263.41,272.91A286.83,286.83,0,0,0,381.14,304.6c68.86,3.27,121.07-19.41,145-31.69"></path><path class="cls-1" d="M263.41,366a286.83,286.83,0,0,0,117.73,31.69c68.86,3.27,121.07-19.41,145-31.69"></path><path class="cls-1" d="M263.41,484.21A286.83,286.83,0,0,0,381.14,515.9c68.86,3.27,121.07-19.41,145-31.69"></path><path class="cls-1" d="M263.41,575.76a287,287,0,0,0,117.73,31.68c68.86,3.27,121.07-19.4,145-31.68"></path><path class="cls-1" d="M263.41,673.28A287,287,0,0,0,381.14,705c68.86,3.27,121.07-19.4,145-31.68"></path><path class="cls-1" d="M263.41,775.89a286.83,286.83,0,0,0,117.73,31.69c68.86,3.27,121.07-19.41,145-31.69"></path><polygon class="cls-2" points="648.46 243.05 749.65 243.05 749.65 412.35 799.6 412.35 701 545.81 596.57 410.4 648.46 410.4 648.46 243.05"></polygon><polygon class="cls-2" points="861.36 345.81 962.55 345.81 962.55 176.51 1012.5 176.51 913.9 43.06 809.47 178.46 861.36 178.46 861.36 345.81"></polygon><rect class="cls-1" x="35.35" y="572.57" width="1009.3" height="479.09" rx="22.7" transform="translate(1080 1624.22) rotate(180)"></rect><circle class="cls-2" cx="540" cy="812.24" r="170.27"></circle><rect class="cls-3" x="101.51" y="641.32" width="876.97" height="341.19" transform="translate(1080 1623.84) rotate(180)"></rect><text class="cls-4" transform="translate(469.56 892.87)">$</text></svg>