<svg xmlns="http://www.w3.org/2000/svg" id="Layer_1" data-name="Layer 1" viewBox="0 0 1080 1080"><defs><style>.cls-1{fill:#d9e8ff;}.cls-1,.cls-2,.cls-3,.cls-4,.cls-5{stroke:#000;stroke-miterlimit:10;}.cls-1,.cls-2{stroke-width:5px;}.cls-2{fill:#ffa1a6;}.cls-3,.cls-4,.cls-5{fill:#4268ad;}.cls-3{stroke-width:2px;}.cls-4,.cls-5{stroke-width:4px;}.cls-5{font-size:263.23px;font-family:Poppins-Bold, Poppins;font-weight:700;}</style></defs><rect class="cls-1" x="165.23" y="92.97" width="750.37" height="896.24"></rect><path class="cls-1" d="M84.86,908.84H835.23V12.6h-625Q147.54,75.3,84.86,138Z"></path><polyline class="cls-1" points="213.23 11.67 213.23 140.3 84.86 140.3"></polyline><rect class="cls-2" x="239.86" y="407.66" width="70.34" height="140.74"></rect><rect class="cls-2" x="365.68" y="348.35" width="70.34" height="200.05"></rect><rect class="cls-2" x="491.88" y="283.35" width="70.34" height="265.05"></rect><rect class="cls-2" x="617.7" y="215.56" width="70.34" height="332.84"></rect><rect class="cls-3" x="179.78" y="640.52" width="568.42" height="16.98" rx="4.6"></rect><rect class="cls-3" x="179.78" y="726.67" width="458.37" height="16.98" rx="4.6"></rect><rect class="cls-3" x="179.78" y="812.81" width="431.16" height="16.98" rx="4.6"></rect><circle class="cls-1" cx="848.53" cy="872.7" r="203.69"></circle><polygon class="cls-4" points="819.15 957.06 740.18 872.7 772.8 839.18 819.15 880.42 917.7 787.24 956.13 822.41 819.15 957.06"></polygon><text class="cls-5" transform="translate(203.23 334.53)">+</text></svg>