<svg xmlns="http://www.w3.org/2000/svg" id="Layer_1" data-name="Layer 1" viewBox="0 0 1080 1080"><defs><style>.cls-1{fill:#5998e2;}.cls-1,.cls-2,.cls-3{stroke:#000;stroke-miterlimit:10;stroke-width:5px;}.cls-2{fill:#ffa1a6;}.cls-3{fill:#d9e8ff;}</style></defs><path class="cls-1" d="M179.26,866.51q1.43,23,2.84,46c.77,12.64-3.77,19.7-13,20.62-6.91.69-16-6-16.49-18.09-1.4-33.11-4.56-66.14-6.79-99.21-1-14.41,8-21.51,21.64-16.87,31.69,10.78,63.28,21.86,94.84,33,11.31,4,15.55,11.86,12,20.88-3.18,8.08-11.39,10.76-22.43,7-14.87-5.06-29.66-10.33-46.22-13.52,2,2.64,3.82,5.45,6,7.91,82.85,92.12,185.78,146.21,309,158.77,244.69,24.93,466.78-140.8,514.67-382.55,50-252.11-114.44-501.16-366.55-555.31a475.32,475.32,0,0,0-490.67,193.2c-10.05,14.4-17.64,17.6-26.43,11.14-8-5.89-7.63-14.84,1.91-28.11C238.4,133.27,352.13,61.59,496.27,40.05c261.2-39,508.55,132.8,565.78,392.4,58.37,264.83-106.12,533.91-369.67,596.69-196.93,46.91-365.91-7.84-504.07-156.26-2.22-2.39-4.45-4.76-6.67-7.14Z"></path><path class="cls-2" d="M314.28,591.8H279.77c-16.21,0-32.42-.08-48.63,0-14.78.11-18.39,3.65-18.45,18.13-.09,24.31-.34,48.63.14,72.93.17,8.77-2,12.39-11.58,12.18-27.25-.59-54.52-.19-81.79-.23-3.23,0-6.45-.4-11.14-.7v-36.6q0-22.1,0-44.2c0-18.48-3.11-21.51-22-21.53q-33.72,0-67.42,0H6.19V488H49.76c14,0,28,.19,42-.08,12.14-.24,16.46-4.76,16.53-17,.14-23.94,0-47.88,0-71.82,0-4,0-8.06,0-12.95,3.36-.45,6.13-1.13,8.91-1.14,28.37-.08,56.74.24,85.1-.23,8.58-.14,10.59,3.15,10.47,11-.38,24.68-.2,49.36-.11,74,.06,14.47,3.69,18.07,18.44,18.14,23.58.12,47.16,0,70.74,0h12.41Z"></path><path class="cls-3" d="M582.31,805.68c-66.59-1.08-117.53-5.25-166.08-23.32-15.24-5.67-29.72-14.12-43.38-23.06C360.13,751,354.94,738,355.12,722.19,356.3,616.82,440.5,526,547,515.8c106.72-10.23,206.13,62,227.82,165.83,2.58,12.35,3.63,25,5,37.62,2.15,19.39-6.91,33.32-22.26,43.89-28.91,19.91-61.94,29-95.9,34.11C630.42,801.94,598.75,804,582.31,805.68Z"></path><path class="cls-3" d="M672.56,372.34c.09,58.24-46.91,105.65-104.86,105.78-57.71.13-105.25-47.38-105.5-105.44S509.35,267.2,567.34,267.17A104.93,104.93,0,0,1,672.56,372.34Z"></path></svg>