<svg xmlns="http://www.w3.org/2000/svg" id="Layer_1" data-name="Layer 1" viewBox="0 0 1080 1080"><defs><style>.cls-1,.cls-2{fill:none;}.cls-1,.cls-5{stroke:#4368b1;}.cls-1,.cls-2,.cls-3,.cls-4,.cls-5{stroke-miterlimit:10;stroke-width:15px;}.cls-2,.cls-4{stroke:#e17b7c;}.cls-3{font-size:180.87px;fill:#e17b7c;stroke:#e27b7c;font-family:MyriadPro-Regular, Myriad Pro;}.cls-4,.cls-5{fill:#fff;}</style></defs><path class="cls-1" d="M505.39,393.06V103.39A48.58,48.58,0,0,1,554,54.82h453.93a48.57,48.57,0,0,1,48.57,48.57V715.16"></path><circle class="cls-2" cx="780.93" cy="493.11" r="161.78"></circle><rect class="cls-1" x="767.16" y="856.59" width="299.03" height="63.04" rx="27.86"></rect><rect class="cls-1" x="767.16" y="764.84" width="299.03" height="63.04" rx="27.86"></rect><rect class="cls-1" x="767.16" y="948.34" width="299.03" height="63.04" rx="27.86"></rect><text class="cls-3" transform="translate(723.89 446.64) rotate(90)">$</text><polyline class="cls-4" points="151.28 650.86 151.28 293.65 73.86 293.65 233.16 134.35 393.78 294.97 298.82 294.97 298.82 535.92"></polyline><line class="cls-2" x1="223.81" y1="384.01" x2="223.81" y2="593.45"></line><polygon class="cls-5" points="73.86 798.95 158.19 744.46 243.81 789.71 243.81 966.55 165.97 1014.3 73.86 961.11 73.86 798.95"></polygon><polygon class="cls-5" points="283.41 627.32 371.43 577.11 450.76 622.25 450.76 963.06 376.81 1011.05 287.3 963.7 283.41 627.32"></polygon><polygon class="cls-5" points="490.35 459.7 574.06 410.89 654.3 454.79 654.3 961.97 574.06 1011.05 490.35 961.97 490.35 459.7"></polygon></svg>