<svg xmlns="http://www.w3.org/2000/svg" id="Layer_1" data-name="Layer 1" viewBox="0 0 1080 1080"><defs><style>.cls-1,.cls-2{fill:#fffdfd;}.cls-1,.cls-7,.cls-9{stroke:#4265b0;}.cls-1,.cls-2,.cls-3,.cls-4,.cls-5,.cls-7,.cls-9{stroke-miterlimit:10;}.cls-1,.cls-2,.cls-3,.cls-5,.cls-9{stroke-width:15px;}.cls-2,.cls-4,.cls-5{stroke:#e17b7c;}.cls-3,.cls-7{fill:none;}.cls-3{stroke:#b7c7e6;}.cls-4,.cls-5,.cls-9{fill:#fff;}.cls-4{stroke-width:10px;}.cls-6{fill:#b7c7e6;}.cls-7{stroke-width:12px;}.cls-10,.cls-8{fill:#e17b7c;}.cls-10{font-size:123.07px;font-family:Poppins-Regular, Poppins;}</style></defs><circle class="cls-1" cx="480.26" cy="179.69" r="157.45"></circle><path class="cls-2" d="M512.84,210.76v5q0,26.53,0,53.06c0,7.67-3.51,11.13-11.27,11.14q-20.25,0-40.51,0c-7.57,0-10.9-3.36-10.9-10.91,0-19.21,0-38.42,0-58.29h-4.62q-26.52,0-53,0c-7.86,0-10.87-3-10.88-10.77q0-20.69,0-41.36c0-7.77,3-10.72,10.92-10.72h57.63v-4.83q0-27,0-53.9c0-7,3.34-10.42,10.52-10.44q20.46-.09,40.93,0c7.74,0,11.22,3.53,11.23,11.24q0,26.54,0,53.06v4.88h57.92c7,0,10.6,3.46,10.61,10.36q0,21.09,0,42.19c0,6.76-3.48,10.28-10.23,10.29-17.54,0-35.08,0-52.63,0Z"></path><path class="cls-1" d="M65.31,337.14h226.8a0,0,0,0,1,0,0V904.43a0,0,0,0,1,0,0H65.31a36.95,36.95,0,0,1-36.95-36.95V374.09A36.95,36.95,0,0,1,65.31,337.14Z"></path><path class="cls-3" d="M343,904.47l51.26.29a7.77,7.77,0,0,0,7.82-7.66q1.65-109.46,3.31-218.93a7.77,7.77,0,0,1,7.8-7.66L553.4,671a7.77,7.77,0,0,1,7.75,7.79l-.48,218.76a7.78,7.78,0,0,0,7.9,7.79l49-.76a7.78,7.78,0,0,0,7.66-7.78V329.45A7.77,7.77,0,0,0,611.88,324C590.57,345.77,545,382.1,478.55,381.48c-64.77-.61-109-36-129.9-57.39a7.77,7.77,0,0,0-13.34,5.42V896.7A7.77,7.77,0,0,0,343,904.47Z"></path><path class="cls-1" d="M706.49,337.14h226.8a0,0,0,0,1,0,0V753.23a0,0,0,0,1,0,0H706.49a36.95,36.95,0,0,1-36.95-36.95V374.09A36.95,36.95,0,0,1,706.49,337.14Z" transform="translate(1602.83 1090.37) rotate(180)"></path><rect class="cls-4" x="387.35" y="535.9" width="67.2" height="66.72" rx="6.57"></rect><rect class="cls-4" x="503.82" y="535.9" width="67.2" height="66.72" rx="6.57"></rect><rect class="cls-4" x="387.35" y="420.83" width="67.2" height="66.72" rx="6.57"></rect><rect class="cls-4" x="503.82" y="420.83" width="67.2" height="66.72" rx="6.57"></rect><path class="cls-4" d="M706.43,512.22V472.51c0-3.25,2.94-5.89,6.56-5.89h54.07c3.63,0,6.57,2.64,6.57,5.89v39"></path><path class="cls-4" d="M818.59,512.22V472.51c0-3.25,2.95-5.89,6.57-5.89h54.07c3.62,0,6.56,2.64,6.56,5.89v39"></path><rect class="cls-4" x="66.76" y="474.19" width="67.2" height="64.01" rx="6.57"></rect><rect class="cls-4" x="183.23" y="474.19" width="67.2" height="64.01" rx="6.57"></rect><rect class="cls-4" x="66.76" y="589.39" width="67.2" height="64.01" rx="6.57"></rect><rect class="cls-4" x="183.23" y="589.39" width="67.2" height="64.01" rx="6.57"></rect><rect class="cls-4" x="66.76" y="704.09" width="67.2" height="64.01" rx="6.57"></rect><rect class="cls-4" x="183.23" y="704.09" width="67.2" height="64.01" rx="6.57"></rect><rect class="cls-5" x="643.02" y="523.96" width="385.01" height="513.85" rx="39.41"></rect><rect class="cls-6" x="684.89" y="869.31" width="77.68" height="32.46" rx="16.23"></rect><rect class="cls-6" x="778.11" y="869.31" width="225.66" height="32.46" rx="16.23"></rect><rect class="cls-6" x="684.89" y="942.83" width="77.68" height="32.46" rx="16.23"></rect><rect class="cls-6" x="778.11" y="942.83" width="225.66" height="32.46" rx="16.23"></rect><circle class="cls-7" cx="833.75" cy="698.94" r="81.09"></circle><path class="cls-8" d="M848.47,713.65V716q0,12.42,0,24.85a6.24,6.24,0,0,1-1.25,3.92c-4.66,7.32-22.26,7.33-26.88.06a7.59,7.59,0,0,1-1.22-3.87c0-9,0-18,0-27.31h-27a11,11,0,0,1-2.44-.39,15.33,15.33,0,0,1-3.54-1.47c-4.07-2.45-6.39-21,2-26.39a6.55,6.55,0,0,1,1.52-.64c9-.25,18.11-.53,27.3-.54h2.15V682q0-12.62,0-25.24a5.87,5.87,0,0,1,1.18-3.66c4.59-7.28,22.21-7.29,26.9,0a6.32,6.32,0,0,1,1.27,4q0,12.42,0,24.85v2.28h27.12a6,6,0,0,1,3.78,1.27c7.31,4.73,7.26,22.31,0,27a5.71,5.71,0,0,1-3.56,1.21h-27.3Z"></path><circle class="cls-9" cx="619.52" cy="951.42" r="101.56"></circle><text class="cls-10" transform="translate(582.73 997.29)">$</text></svg>