<svg xmlns="http://www.w3.org/2000/svg" id="Layer_1" data-name="Layer 1" viewBox="0 0 1080 1080"><defs><style>.cls-1,.cls-2,.cls-3,.cls-4{fill:none;stroke-miterlimit:10;}.cls-1{stroke:#b7c7e6;}.cls-1,.cls-2{stroke-width:15px;}.cls-2,.cls-4{stroke:#4265b0;}.cls-3{stroke:#e17b7c;}.cls-3,.cls-4{stroke-width:10px;}</style></defs><rect class="cls-1" x="110.51" y="807.07" width="571.94" height="47.25"></rect><path class="cls-2" d="M248.68,26.24H694.73A40.36,40.36,0,0,1,735.09,66.6v113a0,0,0,0,1,0,0H208.32a0,0,0,0,1,0,0V66.6A40.36,40.36,0,0,1,248.68,26.24Z"></path><line class="cls-1" x1="259.13" y1="34.43" x2="259.3" y2="171.37"></line><line class="cls-1" x1="687.01" y1="34.48" x2="687.01" y2="171.35"></line><line class="cls-1" x1="257.64" y1="101.26" x2="687.01" y2="101.26"></line><path class="cls-2" d="M689.5,807.89H113.62a49.16,49.16,0,0,1-49.11-49.21V229.15a49.17,49.17,0,0,1,49.11-49.22h719.9a49.17,49.17,0,0,1,49.11,49.22V392.58"></path><path class="cls-2" d="M673.47,652.48H170.81a18,18,0,0,1-18-18V286.31a18,18,0,0,1,18-18H763.89a18,18,0,0,1,18,18V392.89"></path><line class="cls-1" x1="472.02" y1="276.47" x2="472.02" y2="575.49"></line><line class="cls-1" x1="161.01" y1="577.46" x2="681.62" y2="577.46"></line><polyline class="cls-1" points="718.51 556.74 750.42 392.62 955.58 392.62 983.34 559.23"></polyline><polyline class="cls-1" points="720.58 892.86 752.5 1056.98 957.65 1056.98 985.42 890.37"></polyline><rect class="cls-2" x="682.45" y="557.98" width="343.16" height="338.81" rx="23.31"></rect><circle class="cls-3" cx="189.23" cy="726.66" r="31.91"></circle><circle class="cls-3" cx="284.97" cy="726.66" r="31.91"></circle><circle class="cls-3" cx="379.52" cy="726.66" r="31.91"></circle><path class="cls-3" d="M626.09,372.72c.32-.92.57-1.66.84-2.4,5.17-14.28,12.6-27.12,24.25-37.14C663.63,322.47,678,319,694.1,322a55.49,55.49,0,0,1,26.26,12.18c11.29,9.57,17.1,22,18.6,36.53,2.38,23.11-4.13,43.9-16.73,63.11-11.22,17.1-24.69,32.28-39.18,46.61a551.81,551.81,0,0,1-54.69,47.17c-2.31,1.75-2.33,1.77-4.75-.06-26-19.68-50.48-41.07-72.24-65.43-11-12.35-21.1-25.43-28.73-40.22-9-17.44-12.28-35.93-9.29-55.33,3.52-22.76,20.61-40,43.23-44.37,12.64-2.44,24.67-1.31,36,5.15a61.27,61.27,0,0,1,21.32,20.77c1,1.73,4.33,8.46,10.91,21.92Z"></path><path class="cls-3" d="M855.92,670.85c.3-.86.54-1.56.79-2.25,4.86-13.42,11.84-25.48,22.78-34.9,11.7-10.06,25.23-13.33,40.32-10.5a52.14,52.14,0,0,1,24.68,11.44c10.6,9,16.06,20.7,17.47,34.32,2.24,21.71-3.88,41.25-15.72,59.29-10.54,16.07-23.2,30.33-36.8,43.8a521,521,0,0,1-51.39,44.31c-2.17,1.65-2.19,1.66-4.46-.06-24.44-18.48-47.43-38.57-67.87-61.46-10.37-11.61-19.83-23.9-27-37.79a83.19,83.19,0,0,1-8.72-52c3.31-21.38,19.36-37.58,40.62-41.68,11.86-2.29,23.17-1.23,33.79,4.83a57.57,57.57,0,0,1,20,19.52c1,1.62,4.07,7.95,10.24,20.59Z"></path><polyline class="cls-3" points="197.96 427.43 255.57 427.43 287.07 321.75 343.43 530.21 372.03 425.36 434.61 425.36"></polyline><polyline class="cls-4" points="725.56 709.81 792.97 709.81 822.54 740.75 852.38 690.47 879.18 754.57 906.53 710.91 983.34 710.91"></polyline></svg>