<svg xmlns="http://www.w3.org/2000/svg" id="Layer_1" data-name="Layer 1" viewBox="0 0 1080 1080"><defs><style>.cls-1,.cls-5{fill:#d9e8ff;}.cls-1,.cls-3,.cls-4,.cls-5,.cls-6,.cls-7{stroke:#000;stroke-miterlimit:10;}.cls-1,.cls-3,.cls-4{stroke-width:5px;}.cls-2,.cls-7{fill:#fff;}.cls-3{fill:#ffa1a6;}.cls-4,.cls-6{fill:#4268ad;}.cls-5,.cls-7{stroke-width:3px;}.cls-6{stroke-width:4px;}</style></defs><path d="M1032.58,280.39c-2.09-3.13-2.69-4.37-3.6-5.33q-47.33-50.24-94.65-100.47c-6.42-6.86-11.07-4.66-16.49,1.22q-46.08,50-92.41,99.69c-1.43,1.55-2.28,3.64-4.25,6.88,13-.58,24.17-1,35.37-1.59,16.66-.9,18.92,1.16,18.92,18q0,120,0,240.06c0,13.8,1.34,15.09,14.93,15.11q35.33,0,70.66,0c15.9,0,16-.1,16-15.8q0-120.55,0-241.11c0-13.62,3-16.55,16.73-16.62C1006.07,280.35,1018.3,280.39,1032.58,280.39Z"></path><path class="cls-1" d="M176.93,551.37c0-25.33-18.48-45.82-43.71-48.14-17.14-1.57-34.29-3-51.45-4.35C58.49,497,46.77,486.24,46,463.21c-.88-24.82-.8-49.72,0-74.54.6-18.16,12.75-29.56,30.74-31.34,19.22-1.91,38.55-3.11,57.63-6,38-5.7,54.62-47.44,31-77.74-10.77-13.84-22.57-26.89-33.87-40.33-15.32-18.23-15.92-32.88.14-50.39C148,165.08,165.2,148,183,131.57c15.09-14,30.47-13.59,46.46-.64,13.38,10.82,26.56,21.89,39.79,32.9,15.32,12.75,32.51,16.62,51.12,9.11,18.16-7.33,28.15-21.42,30-41,1.8-18.85,3.16-37.74,5.4-56.54,2.14-17.93,13.44-29,31.26-29.57,25.93-.77,51.92-.94,77.84-.13,18.22.56,29.18,11.56,31.32,29.41,2.24,18.79,3.91,37.66,5.81,56.5s11.52,32.29,28.58,39.81c17.52,7.74,34.54,5.37,49.57-6.46,13.79-10.85,27-22.5,40.43-33.77,18.43-15.41,32.88-16.1,50.49-.09,17.88,16.27,35.06,33.41,51.44,51.18,14.39,15.61,13.79,30.65.19,47.25-10.68,13-21.57,25.91-32.31,38.89-12.6,15.25-17,32.2-9.25,50.95,7.65,18.58,22,28.43,42,30.23,19.24,1.73,38.52,3.21,57.68,5.57,14.8,1.82,26.45,12.35,27.06,26.58,1.2,28,1.63,56,.47,84-.72,17.7-12.12,27.4-30.08,29.44-18.84,2.15-37.75,3.76-56.6,5.82s-32.27,12-39.29,29.26-5,33.9,6.78,48.58c11.4,14.25,23.52,27.93,35.18,42,13.66,16.47,13.67,31,.29,47.36-1.11,1.36-2.34,2.64-3.35,4.07-7.1,10-15.46,15.67-18.46,18.2-29.75,25.08-47.48,32.85-52.78,35-4,1.65-8.81,3.43-14.65,2.53-8-1.23-12.48-6.65-19.42-13.64-2.11-2.13-17.32-14.89-31.54-26.32-15.51-12.45-32.75-16-51.24-7.83S505.45,703,504.05,723c-1.18,16.79-2.71,33.56-4.27,50.32-1.95,20.89-12.29,32.45-33.41,33.42-26.24,1.21-52.63,1.14-78.87-.1-17.2-.82-27.66-13.23-29.36-30.36-1.93-19.53-3.07-39.2-6.12-58.56-5.78-36.69-47.36-53-76.91-30.41-14.5,11.09-28.05,23.39-42.1,35.06-17.26,14.35-32.23,14.87-48.91-.38Q157,697.17,131.9,670.1c-13.93-15-13.44-30.28-.39-46.35,16.62-20.46,23.56-25,33.34-40.74A92,92,0,0,0,176.93,551.37ZM426.58,669C560,669.43,669.71,560.68,670.32,427.3c.61-133.62-108.89-243.45-242.9-243.63-133.39-.18-243,108.94-243.27,242.27C183.84,559.11,293,668.55,426.58,669Z"></path><path class="cls-2" d="M897.11,1003.84c31.29,0,62.58.06,93.86,0,11.2,0,15.11-3.41,14.66-14.23-.74-17.83-.94-35.86-3.85-53.39C977.09,787.37,820,698.51,679.35,753.33c-95.68,37.28-154.18,126.24-153.46,233.35.1,14.44,2.77,17.14,17.24,17.15,60.82,0,121.64-.09,182.45.2a24,24,0,0,1,13.12,4.48c17.84,13,36.7,12.94,54.44-.27a22.31,22.31,0,0,1,12.22-4.22C835.94,1003.68,866.52,1003.84,897.11,1003.84Z"></path><path class="cls-3" d="M1032.58,280.39c-14.28,0-26.51,0-38.74,0-13.73.07-16.72,3-16.73,16.62q0,120.56,0,241.11c0,15.7-.11,15.79-16,15.8q-35.33,0-70.66,0c-13.59,0-14.93-1.31-14.93-15.11q0-120,0-240.06c0-16.82-2.26-18.88-18.92-18-11.2.6-22.4,1-35.37,1.59,2-3.24,2.82-5.33,4.25-6.88q46.17-49.87,92.41-99.69c5.42-5.88,10.07-8.08,16.49-1.22Q981.5,225,1029,275.06C1029.89,276,1030.49,277.26,1032.58,280.39Z"></path><path class="cls-4" d="M670.32,426.31c0,134-108.67,242.61-242.72,242.68C293.05,669.06,183.74,560,184,425.82c.2-133.37,109.82-242.44,243.56-242.34S670.34,292.56,670.32,426.31ZM426.65,633.56C541,633.8,634.8,540.48,634.85,426.4c0-113.62-92.72-206.5-207-207.23-113.88-.72-208.21,93.14-208.2,207.15C219.69,539.94,313,633.33,426.65,633.56Z"></path><path class="cls-5" d="M926.43,827C949.77,852.5,965,878.79,975,909.58c-5.77,1.67-11,3.15-16.29,4.73-7,2.11-16,3.37-13.37,13.73,2.82,11.18,11.67,7.21,19,5.6,5.05-1.1,10-2.53,17.21-4.38,1.66,18.51,3.21,35.69,4.82,53.62l-10.08.65c-71.23,4.51-162.85,10.33-249.28,9.74A1795.15,1795.15,0,0,1,545.3,982.71c1.51-17.23,3-34.37,4.67-53.18,8.8,2.06,15.8,3.63,22.76,5.35,6.17,1.53,11.54.78,13.5-6.08,2-7.14-1.59-11.24-8.51-13-6.72-1.76-13.35-3.82-21-6,9.79-30.9,25.27-57.31,48-82.11,4.94,5.67,9,10.52,13.25,15.18,4.7,5.16,10.46,8.46,16.34,2.66,6.21-6.15,3-12.23-2.56-17.17-4.43-4-9.14-7.64-15-12.45a212.28,212.28,0,0,1,82.4-48.27c2.12,7.6,3.91,14.28,5.85,20.92s5.91,10.89,13.11,8.73,8-7.87,6.15-14.47c-1.83-6.37-3.37-12.82-5.33-20.35,31.38-7.18,62-6.93,93.77-.16-2.06,8-4.94,15-5.3,22.08-.21,4.2,2.44,10.58,5.78,12.47,5.68,3.19,10.89-.53,12.92-6.79,2.26-7,4-14.08,5.9-21,18.86,1.38,59.2,24,81.12,45.53-4.68,4.89-9.33,9.88-14.14,14.72-5.11,5.15-7.37,10.92-1.46,16.43a13.42,13.42,0,0,0,5.81,2.83C908.9,849.59,918.43,841.05,926.43,827Z"></path><path class="cls-2" d="M766.76,952.69c13.52.25,23.46,10.86,23,24.62A24.28,24.28,0,0,1,766,1000.73c-13,.11-24.84-12.11-24.41-25.26S753,952.45,766.76,952.69Z"></path><path class="cls-1" d="M426.69,633.31c-113.82-.16-207-93.31-207-206.9,0-114.11,93.74-207.43,208.15-207.24S634.9,312.84,634.59,427.55C634.28,541.12,541,633.48,426.69,633.31Z"></path><path class="cls-4" d="M440.58,404.39c8.68,9.7,10.05,23.45,3.79,33.35-7.21,11.39-21,12.08-22.23,12.12-6.5,4.7-11.33,8.82-14.15,11.3-7.28,6.43-29.9,29.37-48.5,47.77-5.09,5-11,10-17.51,3-5.77-6.2-3.1-12.55,2.39-18,15.05-15,36.54-33.79,49.77-50.14,3.67-4.54,6.27-8.39,7.53-10.31A26.46,26.46,0,0,1,413.34,405c2.19-51,3.61-87.41,3.24-98.77-.08-2.34-.32-10.13,4.17-13.65a10.31,10.31,0,0,1,6.74-1.93,9.69,9.69,0,0,1,6,1.84c4.37,3.39,4.15,10.94,4.08,13.17C437.25,316.45,438.6,353.19,440.58,404.39Z"></path><path class="cls-6" d="M897.11,1003.84c-30.59,0-61.17-.16-91.75.18a22.31,22.31,0,0,0-12.22,4.22c-17.74,13.21-36.6,13.28-54.44.27a24,24,0,0,0-13.12-4.48c-60.81-.29-121.63-.18-182.45-.2-14.47,0-17.14-2.71-17.24-17.15-.72-107.11,57.78-196.07,153.46-233.35,140.68-54.82,297.74,34,322.43,182.86,2.91,17.53,3.11,35.56,3.85,53.39.45,10.82-3.46,14.19-14.66,14.23C959.69,1003.9,928.4,1003.84,897.11,1003.84ZM926.43,827c-4.92,6.1-8.92,11.39-13.29,16.37s-10.08,7.44-15.58,2.32c-5.91-5.51-3.65-11.28,1.46-16.43,4.81-4.84,9.46-9.83,14.14-14.72C891.24,792.94,850.9,770.37,832,769c-1.92,6.93-3.64,14-5.9,21-2,6.26-7.24,10-12.92,6.79-3.34-1.89-6-8.27-5.78-12.47.36-7.12,3.24-14.1,5.3-22.08-31.72-6.77-62.39-7-93.77.16,2,7.53,3.5,14,5.33,20.35,1.89,6.6,1,12.31-6.15,14.47S707,795,705,788.49s-3.73-13.32-5.85-20.92a212.28,212.28,0,0,0-82.4,48.27c5.81,4.81,10.52,8.48,15,12.45,5.52,4.94,8.77,11,2.56,17.17-5.88,5.8-11.64,2.5-16.34-2.66-4.25-4.66-8.31-9.51-13.25-15.18-22.69,24.8-38.17,51.21-48,82.11,7.62,2.2,14.25,4.26,21,6,6.92,1.81,10.54,5.91,8.51,13-2,6.86-7.33,7.61-13.5,6.08-7-1.72-14-3.29-22.76-5.35-1.65,18.81-3.16,36-4.67,53.18H723.45A46.53,46.53,0,0,1,725,966.87a44.25,44.25,0,0,1,11.24-19.78c13.4-13.28,31.89-12.47,37.26-12.24a57.53,57.53,0,0,1,18.57,4c3-3.21,7.54-8.08,13.19-13.94,12-12.46,13-13.15,20.81-20.9q18.29-18.24,36.55-36.49c4.51-4.52,9.48-8.6,15.26-2.68s1.25,10.82-3.1,15.26c-1.72,1.75-3.47,3.48-5.21,5.22-11.31,11.29-46.95,46.39-53,52.75-3.18,3.31-8.15,8.56-14.22,15.18a63.07,63.07,0,0,1,6.37,27.84l177.77,1.81c-1.61-17.93-3.16-35.11-4.82-53.62-7.19,1.85-12.16,3.28-17.21,4.38-7.36,1.61-16.21,5.58-19-5.6-2.61-10.36,6.34-11.62,13.37-13.73,5.24-1.58,10.52-3.06,16.29-4.73C965,878.79,949.77,852.5,926.43,827ZM766.76,952.69c-13.74-.24-24.75,9.72-25.18,22.78S753,1000.84,766,1000.73a24.28,24.28,0,0,0,23.82-23.42C790.22,963.55,780.28,952.94,766.76,952.69Z"></path><circle class="cls-7" cx="424.66" cy="426.4" r="15.16"></circle></svg>