<svg xmlns="http://www.w3.org/2000/svg" id="Layer_1" data-name="Layer 1" viewBox="0 0 1080 1080"><defs><style>.cls-1,.cls-4,.cls-6{fill:none;}.cls-1,.cls-2{stroke:#4368b1;}.cls-1,.cls-2,.cls-4,.cls-6{stroke-miterlimit:10;stroke-width:15px;}.cls-2{fill:#fff;}.cls-3{fill:#4368b1;}.cls-4,.cls-6{stroke:#e17b7c;}.cls-5{fill:#e17b7c;}.cls-6{stroke-dasharray:37.61 37.61;}</style></defs><polyline class="cls-1" points="95.14 675.49 95.14 405.15 34.28 405.15 159.51 245.85 285.77 406.47 211.12 406.47 211.12 647.42"></polyline><path class="cls-1" d="M124.51,509.45v-129H92l67-85.22,67.55,85.93H186.57q.1,64.47,0,128.92-.13,77.79-.6,155.6l-65-.34Q122.72,587.39,124.51,509.45Z"></path><polyline class="cls-2" points="320.73 480.42 320.73 187.67 259.87 187.67 385.09 28.37 511.35 188.99 436.7 188.99 436.7 364.09"></polyline><path class="cls-2" d="M350.1,292v-129H317.54l67-85.23,67.55,85.94H412.15q.11,64.47,0,128.92-.13,77.79-.59,155.6l-65.06-.35Z"></path><path class="cls-3" d="M791.92,580.93c.37,9.72-3.6,18.84-9.74,27.21-2.26,3.08-4.59,6.11-6.87,9.19-11.68,15.77-1,39.32,19.06,41.33,3.27.32,6.52.71,9.77,1.14,20.28,2.72,37.91,18.31,39.85,44.35.1,1.36.11,2.73.11,4.1,0,15.57.07,31.15,0,46.73a59.5,59.5,0,0,1-1,10.58c-4.08,21.19-17.54,34.29-38.8,37.89-3.5.6-7,.91-10.56,1.47-12.74,2-20,9.37-22.94,22.41a17.39,17.39,0,0,0,.91,11.27,93.53,93.53,0,0,0,5.48,10c1.44,2.31,3.33,4.33,5,6.51,13.68,17.9,13.52,41.61-2.54,59.37-7.15,7.9-14.7,15.44-22.19,23-5,5.05-10.27,9.82-15.29,14.86a47.86,47.86,0,0,1-31.45,14.18c-10.7.75-20.44-2.89-29.29-8.85-1.8-1.22-3.46-2.67-5.17-4-1.51-1.18-3-2.4-4.5-3.56-16-12.24-37.82-.87-40.81,15.25-.6,3.22-1.07,6.46-1.62,9.69-.47,2.69-.8,5.42-1.47,8.06-5.42,21.1-20.42,33.53-42.15,35-.55,0-1.09.08-1.64.08-18.31,0-36.63.28-54.93-.05-13.86-.25-25.34-6.06-34.21-16.8-6.14-7.42-8.88-16.19-10.14-25.55-.48-3.52-.93-7-1.62-10.52-3.32-16.68-24.77-26.52-40.28-15.53-2.89,2.06-5.68,4.26-8.53,6.39a57.44,57.44,0,0,1-15.89,8.37c-10.92,3.75-21.52,2.84-31.85-2.1a53.56,53.56,0,0,1-14.78-10.21c-12-11.92-24.12-23.8-35.91-36-9.31-9.61-14.36-21.13-13.83-34.8.4-10.24,4.39-19,10.39-27.11a124,124,0,0,0,8.22-12.2c3.45-6,3.53-12.44,1.28-19-3.51-10.3-10.55-16.33-21.24-18.12-3-.49-6-.8-8.94-1.17-24.43-3-40.42-19.65-41.78-46.73-.18-3.54-.19-7.1-.19-10.65,0-12.3-.05-24.6.16-36.9a70.89,70.89,0,0,1,1.36-13c4-19.74,16.19-31.67,35.68-36.17a105.38,105.38,0,0,1,12.17-1.69c11.15-1.26,18.58-7.13,22.52-17.64a24.39,24.39,0,0,0-2.32-22.73c-1.6-2.54-3.65-4.78-5.28-7.3a115.84,115.84,0,0,1-7.64-12.58c-6.78-14.15-5.9-28.2,2.19-41.49a88.36,88.36,0,0,1,11.67-14.74c9.05-9.49,18.43-18.67,27.79-27.86a69.08,69.08,0,0,1,17-12.73c13.09-6.65,26.25-6.95,39.39-.37a107.48,107.48,0,0,1,11.1,6.92c2.27,1.51,4.36,3.3,6.55,4.93,14.83,11,38,2.51,41.23-16,.52-2.95.71-6,1.36-8.89,1.19-5.31,2-10.84,4-15.8,6.72-16,19.35-25.05,36.37-26.79a248.25,248.25,0,0,1,44.22-.86c3.54.27,7.11.13,10.65.35a99.49,99.49,0,0,1,12.22,1.16c18.43,3.59,30.1,14.6,35.06,32.67.94,3.42,1.45,6.95,2.16,10.43s1.12,7,2.15,10.43a25.83,25.83,0,0,0,37.76,14.83,92.42,92.42,0,0,0,8-5.66,70.6,70.6,0,0,1,17.07-9.64c11.72-4.32,23.11-3.6,34,2.33A58.71,58.71,0,0,1,739.39,509,460.58,460.58,0,0,1,780,549.42a53.88,53.88,0,0,1,5.69,8C790.18,564.79,791.91,571.43,791.92,580.93ZM369.63,832c-.11,1.11-.23,2.75-.43,4.37a57.37,57.37,0,0,1-11.45,27.72c-2.11,2.85-4.36,5.61-6.33,8.56-4.75,7.14-4.66,14.4,0,21.5a45.76,45.76,0,0,0,5.68,7c10,10.11,20,20.2,30.17,30.13a55.38,55.38,0,0,0,9.05,7,15.91,15.91,0,0,0,16.42.72,56.62,56.62,0,0,0,7-4.28c2.46-1.72,4.73-3.72,7.19-5.44,12.75-8.94,26.74-12.27,42-8.69,22.43,5.26,37.58,22.17,40.66,45,.44,3.25.81,6.51,1.42,9.73,1.85,9.77,6.93,14.94,16.62,16.68a62.75,62.75,0,0,0,10.59,1c12.3.12,24.6.15,36.9,0a82.19,82.19,0,0,0,12.21-1.26c8.16-1.34,13.19-6.28,15.09-14.24.95-4,1.42-8.06,2-12.11,1.65-10.78,5.57-20.51,13-28.72,16.28-18.09,46.52-24.84,69.87-7.33,2.84,2.13,5.48,4.53,8.34,6.63,8.81,6.48,18.7,6.13,27.1-.9,1-.88,2-1.85,3-2.82q15.38-15.36,30.71-30.76a49.38,49.38,0,0,0,5.81-6.86c5.29-7.75,5.18-15.09-.13-22.89-1.08-1.57-2.41-3-3.52-4.53-2.37-3.34-4.93-6.58-7-10.13-6.6-11.59-9.25-23.91-5.8-37.08,5.62-21.49,18.84-35.34,40.9-40,4.27-.9,8.66-1.16,13-1.9,11.27-1.95,17.75-8.56,18-20q.68-26.22,0-52.46c-.3-12.29-7.71-19.27-20.19-20.56-3.53-.36-7.06-.83-10.55-1.46-20.91-3.79-36.52-19.26-41.5-41.44a47.59,47.59,0,0,1,.77-23.5,56.87,56.87,0,0,1,9.12-18.23c2.08-2.88,4.4-5.59,6.41-8.51,5.85-8.53,5.72-15.8-.38-24.21a43,43,0,0,0-4.26-5q-15.33-15.4-30.75-30.72a61,61,0,0,0-5.59-4.81c-7-5.47-14.46-6-22.12-1.36-2.11,1.26-4.11,2.7-6.1,4.13-2.23,1.59-4.35,3.33-6.6,4.88-25.56,17.65-55.57,7.63-69.15-8.66C610,518,606.31,508.47,604.56,498a130.37,130.37,0,0,0-2.77-13.62c-1.93-6.93-6.63-11.22-13.76-12.49a77.31,77.31,0,0,0-12.19-1.41c-12.85-.18-25.7-.13-38.54,0a55.15,55.15,0,0,0-9.77.91c-9.68,1.84-14.9,7.17-16.55,16.76-.69,4-1,8.14-1.7,12.18-6,36.47-46.81,53.85-75.47,37.86-4.27-2.39-8.21-5.39-12.28-8.13-2.49-1.67-4.83-3.62-7.44-5.07a17.2,17.2,0,0,0-18,.19,33,33,0,0,0-6.59,4.83q-16.94,16.68-33.63,33.62a35.54,35.54,0,0,0-5.3,7.25,17.37,17.37,0,0,0-.68,16.54,54,54,0,0,0,4.65,7.69c1.68,2.48,3.73,4.72,5.38,7.23,8.2,12.39,11.74,25.76,8.21,40.53-5,20.85-19.55,37.18-42,40.88-2.7.45-5.4.91-8.11,1.18-15,1.53-21.45,8.28-22,23.21,0,.27,0,.55,0,.82,0,15.31,0,30.61,0,45.92a36.6,36.6,0,0,0,.68,7.32c1.58,7.6,6,12.76,13.6,14.87a70.34,70.34,0,0,0,7.23,1.37c3.5.59,7,1,10.51,1.69C352.86,785.27,368.36,805.92,369.63,832Z"></path><path class="cls-3" d="M415.48,722c-1.15-72.07,57.26-141.43,141.21-141.58,84.89-.15,142.24,70.09,142,141.78-.19,76.93-63.27,142-142.25,141.63C476.8,863.45,414.44,797.9,415.48,722ZM556.65,837.73c56.74,1.43,115.86-44.13,116.14-115.25.27-67-53.8-116-115.43-116.19C496,606.1,440.8,654.57,441.22,722.58,441.66,794.66,501.23,838.83,556.65,837.73Z"></path><path class="cls-3" d="M1021,132.31c.28,7.3-2.7,14.15-7.31,20.43-1.7,2.32-3.45,4.59-5.16,6.9-8.77,11.85-.77,29.54,14.32,31q3.67.38,7.33.86c15.23,2,28.47,13.75,29.93,33.3.07,1,.08,2,.08,3.08,0,11.7,0,23.4,0,35.1a43.12,43.12,0,0,1-.73,7.94c-3.06,15.91-13.17,25.75-29.14,28.46-2.62.44-5.29.68-7.92,1.1-9.57,1.52-15,7-17.23,16.82a13.11,13.11,0,0,0,.68,8.47,70.48,70.48,0,0,0,4.12,7.53c1.08,1.73,2.49,3.25,3.74,4.88,10.27,13.44,10.16,31.25-1.91,44.59-5.36,5.93-11,11.59-16.66,17.28-3.75,3.8-7.71,7.38-11.48,11.16A35.9,35.9,0,0,1,960,421.9c-8,.57-15.35-2.17-22-6.65-1.36-.91-2.6-2-3.89-3-1.13-.89-2.23-1.8-3.37-2.68-12-9.18-28.4-.65-30.65,11.46-.45,2.42-.8,4.85-1.22,7.28-.35,2-.6,4.07-1.1,6-4.07,15.85-15.34,25.19-31.66,26.31-.41,0-.82.06-1.23.06-13.75,0-27.5.21-41.25,0-10.4-.19-19-4.55-25.69-12.61-4.6-5.58-6.66-12.17-7.61-19.2-.36-2.64-.7-5.28-1.22-7.89-2.49-12.53-18.6-19.92-30.24-11.66-2.18,1.54-4.27,3.2-6.41,4.79a43,43,0,0,1-11.93,6.29,30.54,30.54,0,0,1-23.92-1.58,40.2,40.2,0,0,1-11.1-7.67c-9-8.95-18.11-17.87-27-27-7-7.22-10.79-15.87-10.39-26.13.3-7.69,3.29-14.29,7.8-20.36a95.52,95.52,0,0,0,6.18-9.17c2.58-4.53,2.64-9.33,1-14.27-2.64-7.74-7.93-12.27-16-13.61-2.22-.37-4.47-.61-6.71-.88-18.34-2.28-30.36-14.76-31.37-35.09-.14-2.66-.15-5.34-.15-8,0-9.24,0-18.48.12-27.71a54.35,54.35,0,0,1,1-9.77c3-14.82,12.16-23.78,26.8-27.16a79.56,79.56,0,0,1,9.13-1.27c8.38-.94,14-5.35,16.92-13.24a18.32,18.32,0,0,0-1.74-17.07c-1.2-1.91-2.75-3.59-4-5.49a88.65,88.65,0,0,1-5.74-9.44c-5.09-10.63-4.43-21.18,1.64-31.16a65.71,65.71,0,0,1,8.77-11.06c6.8-7.13,13.84-14,20.87-20.93a51.79,51.79,0,0,1,12.76-9.56c9.83-5,19.71-5.22,29.58-.28a82.16,82.16,0,0,1,8.34,5.2c1.7,1.13,3.27,2.48,4.91,3.7,11.14,8.29,28.51,1.88,31-12,.39-2.22.53-4.49,1-6.68.89-4,1.47-8.14,3-11.87,5-12,14.53-18.8,27.31-20.11a186.94,186.94,0,0,1,33.21-.65c2.66.2,5.34.1,8,.27a71.87,71.87,0,0,1,9.17.87c13.84,2.69,22.61,11,26.34,24.53.7,2.57,1.09,5.22,1.61,7.83s.85,5.29,1.62,7.83A19.4,19.4,0,0,0,929,82.53a69.06,69.06,0,0,0,6-4.25A53,53,0,0,1,947.83,71a29.83,29.83,0,0,1,25.57,1.75,44.69,44.69,0,0,1,8.16,5.46,348.84,348.84,0,0,1,30.52,30.4,40.57,40.57,0,0,1,4.27,6C1019.7,120.19,1021,125.18,1021,132.31ZM703.88,320.86c-.08.83-.17,2.06-.32,3.28A43.12,43.12,0,0,1,695,345c-1.59,2.14-3.28,4.22-4.76,6.43-3.57,5.36-3.5,10.81,0,16.15a34.52,34.52,0,0,0,4.26,5.23c7.5,7.6,15,15.17,22.66,22.62a41.24,41.24,0,0,0,6.8,5.25,12,12,0,0,0,12.33.54,42,42,0,0,0,5.23-3.22c1.85-1.29,3.56-2.79,5.4-4.08,9.57-6.71,20.08-9.21,31.55-6.52C795.32,391.29,806.7,404,809,421.16c.33,2.45.61,4.9,1.07,7.32,1.39,7.33,5.2,11.21,12.48,12.52a47.12,47.12,0,0,0,8,.74c9.24.09,18.48.12,27.71,0a61.59,61.59,0,0,0,9.17-.95c6.12-1,9.91-4.71,11.33-10.69.71-3,1.07-6.06,1.54-9.1,1.24-8.09,4.17-15.4,9.72-21.56,12.23-13.59,34.94-18.66,52.47-5.51,2.13,1.6,4.11,3.4,6.26,5,6.62,4.87,14,4.6,20.36-.68.78-.65,1.51-1.39,2.23-2.11q11.55-11.53,23.06-23.1a38.27,38.27,0,0,0,4.37-5.15c4-5.82,3.89-11.33-.1-17.19-.81-1.19-1.81-2.24-2.65-3.41a90.43,90.43,0,0,1-5.21-7.6c-5-8.71-6.95-18-4.36-27.85,4.22-16.14,14.15-26.54,30.71-30.05,3.21-.68,6.51-.87,9.74-1.43,8.47-1.46,13.33-6.43,13.55-15q.51-19.7,0-39.4c-.22-9.23-5.79-14.47-15.16-15.44-2.65-.27-5.3-.62-7.92-1.1-15.7-2.84-27.42-14.46-31.17-31.11a35.76,35.76,0,0,1,.58-17.65,42.69,42.69,0,0,1,6.85-13.7c1.56-2.16,3.3-4.19,4.81-6.39,4.4-6.4,4.3-11.86-.28-18.18a32.46,32.46,0,0,0-3.2-3.73q-11.51-11.57-23.09-23.07a46.7,46.7,0,0,0-4.2-3.61c-5.29-4.11-10.86-4.47-16.61-1-1.58.94-3.08,2-4.58,3.1-1.67,1.2-3.27,2.5-5,3.66-19.2,13.26-41.74,5.73-51.94-6.5a43.17,43.17,0,0,1-9.26-21.15,98.06,98.06,0,0,0-2.08-10.23,12.33,12.33,0,0,0-10.34-9.38,57.65,57.65,0,0,0-9.15-1.06c-9.65-.14-19.3-.1-28.94,0a41,41,0,0,0-7.34.68c-7.27,1.38-11.19,5.39-12.43,12.59-.52,3-.77,6.11-1.27,9.15-4.53,27.38-35.16,40.43-56.68,28.42-3.21-1.79-6.16-4-9.22-6.1-1.87-1.26-3.63-2.72-5.59-3.81a12.94,12.94,0,0,0-13.49.14,25.26,25.26,0,0,0-4.94,3.63q-12.72,12.53-25.26,25.25a27.06,27.06,0,0,0-4,5.44,13,13,0,0,0-.51,12.42,40.54,40.54,0,0,0,3.49,5.78c1.27,1.86,2.8,3.55,4,5.43,6.15,9.3,8.81,19.35,6.16,30.44-3.75,15.66-14.68,27.91-31.54,30.7-2,.33-4,.68-6.08.88-11.28,1.15-16.11,6.22-16.53,17.43,0,.21,0,.41,0,.62,0,11.49,0,23,0,34.48a27.39,27.39,0,0,0,.5,5.5c1.19,5.71,4.51,9.58,10.22,11.16a49.33,49.33,0,0,0,5.42,1c2.63.44,5.29.73,7.9,1.27C691.29,285.76,702.93,301.27,703.88,320.86Z"></path><path class="cls-3" d="M738.32,238.26c-.87-54.12,43-106.21,106-106.32,63.75-.12,106.81,52.63,106.68,106.46-.15,57.78-47.52,106.65-106.83,106.37C784.37,344.47,737.54,295.25,738.32,238.26Zm106,86.9c42.61,1.07,87-33.15,87.22-86.55.2-50.32-40.41-87.11-86.69-87.25-46.07-.15-87.53,36.25-87.21,87.33C758,292.81,802.71,326,844.33,325.16Z"></path><path class="cls-4" d="M1011.47,565q1.51,19.2,1.53,38.8c0,260.39-204.91,471.48-457.67,471.48-227.82,0-418.08-147.36-453.15-371.87"></path><polygon class="cls-5" points="952.37 618.15 963.92 627.75 1011.14 570.83 1064.47 622.1 1074.86 611.26 1009.91 548.84 952.37 618.15"></polygon><line class="cls-4" x1="19.78" y1="451.27" x2="19.78" y2="471.27"></line><line class="cls-6" x1="19.78" y1="508.88" x2="19.78" y2="640.51"></line><line class="cls-4" x1="19.78" y1="659.31" x2="19.78" y2="679.31"></line><polyline class="cls-4" points="805.85 229.55 822.72 262.94 882.39 205.55"></polyline></svg>