<svg xmlns="http://www.w3.org/2000/svg" id="Layer_1" data-name="Layer 1" viewBox="0 0 1080 1080"><defs><style>.cls-1{fill:#4268ad;stroke-width:4px;}.cls-1,.cls-2{stroke:#000;stroke-miterlimit:10;}.cls-2{fill:#ffa1a6;stroke-width:5px;}</style></defs><path class="cls-1" d="M266.05,880.21c2.51,10.14,5,19.47,7.13,28.89,4.63,20.8-6.13,42-26.31,48.49a589.24,589.24,0,0,1-62.43,16.34c-22.14,4.5-41.87-9.77-48-33.26Q104,816.19,71.88,691.61c-2.52-9.75-5.31-19.43-7.61-29.23-5.86-24.91,6.8-46.37,31.36-53q26.15-7.07,52.46-13.48c23.77-5.8,44.66,6.36,51.83,30,2.21,7.26,4.08,14.63,6.31,22.71,37.7-10.16,74.73-20.52,112-30,23.85-6.1,47.83-12,72.08-16.1,29.93-5,57.87,1.73,83.33,18.76q56.76,37.93,114,75.15c10.17,6.59,21.23,11.84,32.09,17.29,41.65,20.88,52.7,65,25.71,103.25-.76,1.08-1.39,2.25-3.65,6,12.22-2.53,22.25-4.12,32-6.72,69.1-18.39,138.06-37.36,207.27-55.32a141.27,141.27,0,0,1,66.19-1.52c34,7.46,55.4,31.7,56.78,64.19,1.4,33-18.9,62-51,71.58q-173.55,52.06-347.21,103.8c-39.56,11.85-76.76,6.89-112.34-13.78-60.68-35.25-121.67-70-182.18-105.5-10.08-5.92-19-8.78-30-3.81C276.66,877.87,271.49,878.67,266.05,880.21Zm-8.6-32.64c10.7-2.85,20-4.65,28.74-7.83,10.78-3.91,19.75-1.83,29.48,3.86C379.56,881,443.89,917.55,507.75,955c29,17,58.61,21,91,11.27C713.74,931.48,828.92,897.39,944,863c16.45-4.92,27-20.1,26.65-38-.29-16-9.87-27.6-27.5-32.26-19.68-5.21-39.54-3.58-58.81,1.49-67.15,17.66-134.27,35.46-201.1,54.28-35.14,9.9-69.12,8.83-101.28-8-40.58-21.25-80.26-44.23-120.12-66.83-3.53-2-7.79-6.82-7.68-10.19.2-5.94,1.85-14.31,5.95-17,4.63-3,13.89-3.28,18.93-.6,21.76,11.59,42.57,24.91,64,37.17,13,7.4,25.93,15,39.66,20.71,18,7.44,33.71.94,41.26-15.07a32.55,32.55,0,0,0-15-42.82c-52.06-25.51-99.36-58.58-146.27-92.11-26.07-18.64-53.85-23.52-84-16C336.22,648.31,294,659.87,251.73,671c-12.24,3.23-24.45,6.6-37.34,10.09ZM241.52,919.3C239.6,912,238.26,907,237,901.92Q203.24,771.36,169.53,640.8c-3.44-13.3-5.61-14.49-19.09-11Q129.76,635,109.1,640.39c-13.19,3.42-14.51,5.7-11,19.15q17.43,67.56,34.88,135.1c11.65,45,23.41,90,35,135.07,1.83,7.09,4.51,13.1,13.19,11,17.53-4.26,35-8.77,52.3-13.93C236.87,925.74,239.35,921.38,241.52,919.3Z"></path><path class="cls-2" d="M930.43,656.46c-10.09-4.33-19.45-7.33-27.75-12.15-13.09-7.61-24.56-8.55-38.33-.13-11.63,7.12-25.77,10.05-38.46,15.61a20.48,20.48,0,0,0-9.74,9.13c-4.81,10.36-8.54,21.24-12.51,32-3.28,8.86-9.21,13.3-18.91,13.23-25.73-.2-51.46-.16-77.19,0-9.19,0-15-4.07-18.21-12.61-4.76-12.67-6.82-28.18-15.55-37s-24.13-10.72-36.6-15.69a11.76,11.76,0,0,1-2.81-1.35c-16.73-12.54-33.44-11.6-50.43-.4-3.72,2.45-8.21,3.72-12.28,5.67-8.2,3.94-15.47,2.76-21.9-3.68l-55.33-55.33c-6.12-6.13-7.15-13.23-3.73-21.05,4.73-10.82,10-21.44,14.05-32.5a20.32,20.32,0,0,0-.22-13.2c-6.43-16.83-13.32-33.51-20.77-49.91a22.25,22.25,0,0,0-9.92-10.21c-10.33-4.87-21.26-8.47-31.95-12.59-8.41-3.23-12.7-9.31-12.71-18.35V358.66c0-9,4.16-15.16,12.62-18.39,11-4.21,22.24-8,32.93-13,3.76-1.74,7.28-5.87,9-9.75q11.06-24.68,20.73-49.93a20.42,20.42,0,0,0,.32-13.21c-3.77-10.42-8.61-20.48-13.31-30.54-4.35-9.31-3.28-17.17,4.27-24.57q26.44-25.91,52.36-52.39c7.24-7.41,14.89-9.31,24.42-4.84,11.94,5.6,24,14.69,36.18,14.93,11.59.22,23.35-9,35-14.06,2.55-1.1,5.09-2.67,7.76-3,19.43-2.2,26.81-15.13,32.43-32.2,9.21-27.91,10.16-27.6,40.1-27.59,19.47,0,39,.27,58.42-.1,11.31-.21,19.22,4.19,21.71,15.25,5.93,26.36,19.31,44.76,47.89,49a32.14,32.14,0,0,1,14.14,6.41c11.61,8.94,22.11,6,34.33.44C937,134.43,930.35,133,959.4,162c12.55,12.53,25,25.19,37.66,37.58,7.14,7,8.65,14.5,4.38,23.58-4.87,10.37-9.77,20.78-13.64,31.54-1.41,3.9-1,9.3.5,13.26Q998,293.17,1009,317.86a20.55,20.55,0,0,0,9.21,9.55c10.36,4.82,21.22,8.6,32,12.61,8.88,3.31,13.22,9.37,13.16,19q-.24,38.08,0,76.17c.07,9.6-4.11,15.79-12.94,19.19-12.63,4.85-28.05,6.89-37,15.56-8.56,8.28-10.39,23.52-15.2,35.69a7.36,7.36,0,0,1-.93,1.86c-14.36,18.42-10.3,36.06-.09,55.21,11.26,21.13,10.06,22-6.6,38.64-15.49,15.5-30.82,31.15-46.57,46.37C940.23,651.35,935.05,653.54,930.43,656.46Zm36.65-438.35a27.68,27.68,0,0,0-2.74-3.86c-11.51-11.6-22.91-23.32-34.81-34.51-1.79-1.68-6.4-1.91-9-.91-10.35,4-20.14,9.65-30.69,12.87a30.78,30.78,0,0,1-18.69-.76q-33.9-13-67-27.93a33.24,33.24,0,0,1-14.3-13.36c-5-9-7.42-19.45-11.93-28.8-1.54-3.18-6-6.78-9.32-6.94-14.91-.74-29.89-.68-44.82,0-3.1.14-7.46,3.28-8.82,6.18-4.43,9.39-7.93,19.24-11.41,29.05-2.81,7.91-8.3,11.83-16,14.81-21.94,8.44-43.33,18.33-65.34,26.56a35.26,35.26,0,0,1-20.57.76c-9.92-2.77-19-8.57-28.76-12-3.22-1.12-8.81-.1-11.3,2.15-10.8,9.8-20.62,20.69-31.31,30.62-4.5,4.19-4.33,7.62-1.9,12.6,4.57,9.35,9.57,18.7,12.39,28.62a33.12,33.12,0,0,1-1,19.54c-8.47,22.3-17.61,44.39-27.52,66.08a35.16,35.16,0,0,1-13.9,15.1c-9,5-19.49,7.28-28.85,11.75-3.11,1.49-6.45,6.14-6.61,9.5-.73,14.57-.72,29.21,0,43.78.16,3.39,3.36,8.12,6.43,9.59,9.67,4.63,20.45,7.09,29.79,12.22a33,33,0,0,1,13.12,14.55c9.82,21.74,18.19,44.14,27.91,65.93,3.27,7.31,4.08,13.64.71,20.81-4.43,9.43-8.26,19.14-12.87,28.46-2.39,4.83-1.82,8,2.12,11.69,10.58,10,21,20.33,30.93,31,4.14,4.44,7.6,4.6,12.67,2.13,9.36-4.56,18.7-9.56,28.61-12.4a33.29,33.29,0,0,1,19.63.82c22.31,8.43,44.4,17.54,66.09,27.45a35.57,35.57,0,0,1,15,14c4.94,8.64,7.9,18.48,11.12,28,1.82,5.37,4.4,7.74,10.41,7.55,14.59-.44,29.22.27,43.79-.45,3.35-.16,8-3.49,9.48-6.59,4.65-9.66,7.23-20.37,12.31-29.77a31.09,31.09,0,0,1,13.8-12.55c22.07-9.91,44.43-19.26,67.07-27.8a33.37,33.37,0,0,1,19.64-.56c9.59,2.72,18.64,7.53,27.65,12,5.37,2.66,9.13,2.68,13.57-2.13,9.67-10.46,19.75-20.58,30.24-30.22,4.86-4.46,4.61-8.12,2-13.41-4.46-9-8-18.48-12.36-27.55-3.49-7.27-2.27-13.58.91-20.8,9.61-21.83,18-44.21,27.71-66,2.45-5.5,7.54-10.34,12.49-14.06,4-3,9.61-3.8,14.47-5.65,22.61-8.58,22.66-8.59,22.57-33.23,0-11.1,3.52-24.82-1.68-32.55s-19.27-9.18-29.46-13.38c-1.92-.79-4.37-1-5.73-2.36-4.49-4.44-10.14-8.58-12.58-14.06q-14.8-33.13-27.64-67.14c-2.2-5.86-1.86-13.22-.8-19.58.93-5.64,4.48-10.84,6.87-16.24C961.53,230.71,964.18,224.67,967.08,218.11Z"></path><path class="cls-2" d="M119.14,99.4c9,3.81,16.48,7.53,24.35,10,3.78,1.2,8.3.25,12.46,0,1.28-.08,2.42-1.37,3.74-1.75,18.44-5.31,32.51-14.47,37.2-35.15,1-4.26,9.86-9.07,15.42-9.49,16.6-1.25,33.35-.56,50-.4,8.08.08,13.86,4,16.87,11.63a27,27,0,0,1,1.52,3.87c2.92,13.67,10.28,23,24.73,25.36a4.77,4.77,0,0,1,2,.71c12.09,8.62,23.91,7.85,36.29.07,10-6.28,18.89-3.75,26.92,4.9,9.93,10.7,20.4,20.91,30.92,31,7.25,7,9.33,15.12,4.15,23.5-8.5,13.77-6.84,25.9-.47,40.57,5.5,12.68,12.14,20.17,25.1,24.17,14.18,4.39,16,8.17,16.13,23,.08,13.91-.28,27.84.1,41.74.31,11.19-3.67,19.24-14.94,21.86-14.54,3.37-21.26,12.56-27,26.22s-7.16,24.88.63,37.63c5.86,9.61,3.42,18.34-4.87,26.1-10.66,10-20.89,20.42-31,30.94-6.91,7.18-15,9.74-23.44,4.52-13.69-8.45-25.77-7.22-40.49-.79-13,5.66-21.39,12.21-24.65,25.86-2.75,11.47-10.61,16.24-22.37,15.9-14.25-.4-28.52-.28-42.78,0-10.71.18-18.11-3.9-21.24-14.55-.39-1.32-1.16-2.54-1.48-3.88a43.64,43.64,0,0,0-10.06-17.32c-3.87-3.9-7.79-5.55-12.65-7.6-4.66-2-11.13-4.69-19.17-4.24-6.85.38-13.93,1.55-21.87,6.49-8.41,5.24-16.5,3.08-23.49-4.12q-16-16.49-32.47-32.46c-7.12-6.92-9.7-14.85-4.31-23.41,8.59-13.64,6.86-25.74.69-40.45C64,326.62,57.13,318.6,43.64,315.28,32.09,312.45,27.58,304.66,28,292.84c.54-14.59.34-29.22.06-43.82-.19-10,3.86-17.26,13.57-19.59,15.6-3.75,23.06-13.41,29.1-28.22,5.42-13.29,6-23.84-1.07-35.61-2.66-4.43-3.72-8.55-3.37-12.45.59-6.62,5.15-11.49,8.24-14.46C91.52,122.37,116.71,101.42,119.14,99.4ZM412.56,271.74c3.86-12-2.46-17.19-13.11-19.66-10.18-2.36-9.46-4.16-10.86-5.2-4-3-5.64-6.34-9.86-15.42-5.93-12.73-8.9-19.1-9.48-20.59-5.92-15.16-8.88-22.74-7.06-28.91.87-2.94,3-10.07,5-13.09,6.41-9.44,1.48-14.79-5.08-21-6.37-6-11.31-13.22-21.47-6,0,0-5.72,2.47-13.22,5.29-6.85,2.58-12-.84-37.34-11.31-19.82-8.19-23.52-8.93-26.55-14.09a111.23,111.23,0,0,1-7.64-15.44c-2.06-9.88-8.23-11-16.76-10.5-8.72.56-18.25-2.21-20.63,10.81-1.54,8.42-6.37,13.82-6.88,14.75-3.22,5.84-8.11,6.72-28.41,14.28-27.43,10.23-29.46,12.72-35.85,11-8-2.2-12.61-2.25-19.81-6.84-2-1.28-8.42,2.16-11.35,4.93-13.54,12.82-13.54,13.1-6.08,29.89,3.17,7.11,3.74,13.43.25,20.83-6.33,13.45-11.1,27.64-17.54,41-2.49,5.17-7.48,9.32-11.92,13.28-2.18,2-5.6,2.91-8.62,3.44-9.49,1.66-11.41,7.28-11,16.24.76,16.9.09,17.26,16.06,23a29.25,29.25,0,0,1,10.27,6.26c3.52,3,5.82,6.38,9,12.72,4.66,9.24,4.94,12.3,11.5,30.57,3.75,10.45,5.08,13.39,4.39,18.37a28.71,28.71,0,0,1-4.12,12.93c-2.21,3.81-5.82,10-4.38,12.17a78.33,78.33,0,0,0,17.64,18.74c2.19,1.68,8.55-.3,12-2.33,9.54-5.67,11.71-4.36,16.34-5,5.44-.77,10.73,1.2,21.31,5.14,7.5,2.8,6.28,3,23.23,10.76,11.07,5.05,12.9,5.55,15.54,8.51,1.95,2.18,5.9,5.89,8.38,15.21,1,3.86,3.14,10.08,5.51,10.46a77.4,77.4,0,0,0,25.81.16c2.94-.54,5.53-7.41,6.77-11.81,3.42-12.09,6.23-12,7.59-13.63,1.91-2.29,3.93-3.86,16.11-9.56,10.41-4.86,16.35-7.62,25.58-10.8,9.81-3.37,14.8-5.05,19.17-4.45A32.14,32.14,0,0,1,341.15,402c3.09,1.89,8.59,4.51,10.27,3.23C358.27,400,364.94,394,369.78,387c1.7-2.47-1.27-9.09-3.41-13.14-6.44-12.2-4-14.59-4.11-15.6-.33-4,.46-6.16,5.35-19.58,6.2-17,7.41-20.42,10.36-26.53,4.83-10,7.49-13.11,10.88-15.38,1.62-1.09,1-2.6,10-4.72C409.78,289.5,416.44,284.23,412.56,271.74Z"></path><path class="cls-2" d="M140,692.81a17.26,17.26,0,0,1-16.92-17.56A17.26,17.26,0,1,1,140,692.81Z"></path><path class="cls-2" d="M918.06,396.9c.26,94.65-76.9,172.22-171.43,172.36s-171.85-76.94-172-171.73S651.34,225.35,746,225.27C840.79,225.18,917.81,302,918.06,396.9Zm-33.39-.15a138.57,138.57,0,0,0-139.1-138.09c-76.27.2-137.92,62.75-137.53,139.54.38,76,62.51,137.76,138.46,137.66C822.82,535.76,885,473.2,884.67,396.75Z"></path><path class="cls-2" d="M130,272.29A107.18,107.18,0,0,1,237,164.51c59.23-.13,107.74,48,108,107.1.25,58.89-48.36,107.78-107.31,107.92A107.5,107.5,0,0,1,130,272.29Zm108-74.37c-41.36-.21-74.42,32.4-74.61,73.6a73.93,73.93,0,0,0,73.74,74.6c40.73.1,74.51-33.59,74.47-74.26C311.58,231.52,278.33,198.12,238,197.92Z"></path></svg>