<svg xmlns="http://www.w3.org/2000/svg" id="Layer_1" data-name="Layer 1" viewBox="0 0 1080 1080"><defs><style>.cls-1,.cls-2{fill:#fff;stroke-miterlimit:10;stroke-width:15px;}.cls-1{stroke:#e17b7c;}.cls-2{stroke:#4368b1;}</style></defs><polygon class="cls-1" points="294.77 95.75 316.87 163.75 388.38 163.75 330.53 205.78 352.62 273.79 294.77 231.76 236.92 273.79 259.02 205.78 201.17 163.75 272.68 163.75 294.77 95.75"></polygon><polygon class="cls-1" points="826.19 103.64 848.29 171.65 919.79 171.65 861.94 213.68 884.04 281.69 826.19 239.66 768.34 281.69 790.44 213.68 732.59 171.65 804.09 171.65 826.19 103.64"></polygon><polygon class="cls-1" points="560.88 29 582.98 97.01 654.49 97.01 596.64 139.04 618.73 207.05 560.88 165.01 503.03 207.05 525.13 139.04 467.28 97.01 538.78 97.01 560.88 29"></polygon><polygon class="cls-1" points="201.17 306.32 223.27 374.33 294.77 374.33 236.92 416.36 259.02 484.36 201.17 442.33 143.32 484.36 165.42 416.36 107.56 374.33 179.07 374.33 201.17 306.32"></polygon><polygon class="cls-1" points="920.6 299.8 942.69 367.81 1014.2 367.81 956.35 409.84 978.45 477.85 920.6 435.82 862.74 477.85 884.84 409.84 826.99 367.81 898.5 367.81 920.6 299.8"></polygon><circle class="cls-2" cx="560.88" cy="460.54" r="164.26"></circle><path class="cls-2" d="M162.39,1071.71c0-205.7,178.41-372.45,398.49-372.45S959.37,866,959.37,1071.71"></path><line class="cls-2" x1="163.59" y1="1064.19" x2="959.37" y2="1064.41"></line></svg>