<svg xmlns="http://www.w3.org/2000/svg" id="Layer_1" data-name="Layer 1" viewBox="0 0 1080 1080"><defs><style>.cls-1{fill:none;stroke:#b7c7e6;}.cls-1,.cls-2,.cls-3{stroke-miterlimit:10;stroke-width:15px;}.cls-2{fill:#fff;stroke:#4265b0;}.cls-3{fill:#fffdfd;stroke:#e17b7c;}</style></defs><path class="cls-1" d="M126.18,361.32q.46-21,.95-42.07c-2.68-1.36-19.36-10.18-24.76-30.31-6-22.45,7-39.95,8.59-41.94-16.7-30.38-7.88-68.11,18.69-86.91,29.06-20.55,71.94-13.2,93.48,18.19,2.7-3.57,20.92-26.87,52.54-28.8,25.82-1.57,50.81,11.7,65.18,34.36,1.24-2,21.49-33.87,60.13-34.36,37.11-.46,57.94,28.41,59.62,30.83,24.93,8.65,42.71,30.58,45.47,56.08,3.1,28.56-13.2,56.56-40.42,68.72-2.75,3.85-21.39,29-55.58,32.33-38.41,3.7-63.2-23.46-65.68-26.27-2,2.29-27.75,30.94-66.19,25.77-29.87-4-46.44-25.63-49.52-29.81a36.74,36.74,0,0,0-12.12,10.1c-13.65,17.86-4.51,42.17-3.6,44.46Z"></path><path class="cls-2" d="M53.61,984.68,75,372.25a7.4,7.4,0,0,1,7.4-7.14H247.68a7.4,7.4,0,0,1,7.4,7.14l21.35,613.57"></path><path class="cls-2" d="M189.91,689.11H758.58a31.71,31.71,0,0,1,31.71,31.71V988.09a0,0,0,0,1,0,0H158.2a0,0,0,0,1,0,0V720.81A31.71,31.71,0,0,1,189.91,689.11Z"></path><rect class="cls-1" x="12.43" y="988.22" width="841.26" height="48.51" rx="24.25"></rect><rect class="cls-3" x="236.26" y="734.2" width="84.51" height="176.59" rx="7.58"></rect><rect class="cls-3" x="430.66" y="734.2" width="84.51" height="176.59" rx="7.58"></rect><rect class="cls-3" x="625.06" y="734.2" width="84.51" height="176.59" rx="7.58"></rect><path class="cls-2" d="M645.53,200.26q-.39-17.06-.76-34.1H950.2q-.37,16.1-.76,32.21c19.68,8.14,49.1,23.62,73.52,53,28.39,34.23,42.4,70.1,42.06,103.45l-4.17,415.52c.21,2.92,1.27,22.09-13.64,37.33-15.35,15.69-35.27,14.6-38.08,14.4H584a51.73,51.73,0,0,1-51.73-51.73q.38-204.54.76-409.07a202.38,202.38,0,0,1,19.7-68.21C580.23,237.4,626.31,210.19,645.53,200.26Z"></path><path class="cls-1" d="M1054,719.93c-176-.34-338.19-.77-514.15-1.11"></path><path class="cls-1" d="M540.81,401.11h516.44"></path><rect class="cls-3" x="598.54" y="27.46" width="396.38" height="139.45" rx="33.35"></rect><rect class="cls-3" x="743.71" y="432.28" width="112.2" height="256.3" rx="56.1" transform="translate(-162.03 729.7) rotate(-45)"></rect><line class="cls-3" x1="838.03" y1="517.44" x2="759.97" y2="600.43"></line></svg>