<svg xmlns="http://www.w3.org/2000/svg" id="Layer_1" data-name="Layer 1" viewBox="0 0 1080 1080"><defs><style>.cls-1{fill:none;}.cls-1,.cls-2{stroke:#4368b1;}.cls-1,.cls-2,.cls-4{stroke-miterlimit:10;stroke-width:15px;}.cls-2,.cls-4{fill:#fff;}.cls-3{fill:#4368b1;}.cls-4{stroke:#e17b7c;}</style></defs><rect class="cls-1" x="120.53" y="37.3" width="614.59" height="787.24"></rect><path class="cls-2" d="M645.18,914.49H30.59V127.25H512.36L645.18,257.83Z"></path><polyline class="cls-1" points="505.71 132.35 505.71 270.36 640.79 270.36"></polyline><rect class="cls-1" x="88.3" y="232.59" width="317.52" height="78.48" rx="3.6"></rect><rect class="cls-3" x="88.3" y="389.95" width="394.66" height="25.34" rx="12.67"></rect><rect class="cls-3" x="88.3" y="473.79" width="394.66" height="25.34" rx="12.67"></rect><rect class="cls-3" x="88.3" y="557.62" width="359.41" height="25.34" rx="12.67"></rect><rect class="cls-3" x="88.3" y="641.46" width="279.84" height="25.34" rx="12.67"></rect><rect class="cls-4" x="541.11" y="498.7" width="177.97" height="177.97" transform="translate(378.26 -236.31) rotate(30)"></rect><rect class="cls-4" x="708.92" y="655.87" width="248.25" height="105.82" transform="translate(466 -321.56) rotate(30)"></rect><rect class="cls-4" x="951.16" y="718.04" width="77.04" height="162.36" rx="34.97" transform="translate(532.2 -387.76) rotate(30)"></rect><rect class="cls-4" x="664.82" y="332.78" width="74.22" height="266.71" rx="31.32" transform="translate(-52.71 840.96) rotate(-60)"></rect><rect class="cls-4" x="521.7" y="580.92" width="74.22" height="266.71" rx="31.32" transform="translate(-339.18 841.08) rotate(-60)"></rect><rect class="cls-4" x="415.36" y="874.25" width="274.23" height="60"></rect><rect class="cls-4" x="357.54" y="958.8" width="387.7" height="81.71"></rect><path class="cls-1" d="M103.26,827c10.73-24.55,24.89-39.21,33.86-47,4.74-4.14,31.93-27.19,43.22-19.73,4.82,3.18,2.73,9.26,9.39,31,4,12.93,6.29,20.24,10.34,20.67,4.62.48,7-8.47,20.67-24.43,10.19-11.93,13.93-12.89,16-13.15,8.15-1.05,17.57,5.36,21.61,13.15,4.22,8.15.74,14.29,5.63,17.85s13.12.4,14.1,0c5.95-2.4,6.2-5.88,11.27-9.39,8-5.58,21.73-6.79,28.19-1,5.14,4.65,2.35,10.72,9.39,17.86a26.8,26.8,0,0,0,8.45,5.63c15.06,7,31,1,33.83,0a51.07,51.07,0,0,0,22.54-16.91"></path></svg>