<svg xmlns="http://www.w3.org/2000/svg" id="Layer_1" data-name="Layer 1" viewBox="0 0 1080 1080"><defs><style>.cls-1,.cls-2{fill:#fff;}.cls-1{stroke:#e17b7c;}.cls-1,.cls-2,.cls-3{stroke-miterlimit:10;stroke-width:15px;}.cls-2{stroke:#4265b0;}.cls-3{fill:none;stroke:#b7c7e6;}</style></defs><polyline class="cls-1" points="713.68 355.51 902.43 355.51 902.43 801.13"></polyline><polyline class="cls-1" points="369.24 355.51 180.49 355.51 180.49 801.13"></polyline><line class="cls-1" x1="539.95" y1="609.46" x2="539.95" y2="794.32"></line><path class="cls-2" d="M309.38,140.65c11.93,0,23.56.52,35.13-.09,60.66-3.21,118.3-18.39,173.08-44.53,7.79-3.71,15.44-7.74,23.06-11.79,2.39-1.27,4.22-1.49,6.78-.09C593,109,641.29,126.2,692.53,134.88a457.48,457.48,0,0,0,79.42,6.6c2.14,0,4.27,0,6.94,0,1.05,10.87,2.24,21.4,3.06,31.95,3,38.84,4.27,77.71,2,116.64-3.65,64.23-15.22,126.67-42.2,185.57-33,72-84.64,127.08-152.44,167.3-13.55,8-27.75,15-41.78,22.21a8.16,8.16,0,0,1-6.33.31c-57.38-26.94-107.75-63.12-147.62-113-36.24-45.29-59.63-96.83-73.55-152.86-10-40.34-14.77-81.36-16.35-122.87C302,231.77,304.73,187,309.38,140.65Z"></path><polygon class="cls-3" points="157.35 905.13 65.68 996.81 294.43 996.81 203.41 905.78 157.35 905.13"></polygon><polygon class="cls-3" points="515.4 905.13 423.73 996.81 652.49 996.81 561.46 905.78 515.4 905.13"></polygon><polygon class="cls-3" points="877.35 905.13 785.68 996.81 1014.43 996.81 923.4 905.78 877.35 905.13"></polygon><rect class="cls-2" x="28.7" y="747.62" width="296.76" height="177.08" rx="23.84"></rect><rect class="cls-2" x="391.62" y="747.62" width="296.76" height="177.08" rx="23.84"></rect><rect class="cls-2" x="754.54" y="747.62" width="296.76" height="177.08" rx="23.84"></rect><path class="cls-1" d="M464,243.19c-.15-1.27-.32-3.5-.7-5.7-3.63-21-3.66-21.05,15.49-29.49,4.48-2,9.09-3.63,13.69-5.31,7.16-2.63,12.06-1.18,16.7,5.95,18.45,28.34,47.49,27.22,64.63-1.67,2-3.37,7.18-8.17,9.43-7.48a282.38,282.38,0,0,1,37,14.42c1.87.87,2.35,7.18,1.72,10.66-6.44,35.62,13.66,55.07,47.83,46,1.28-.34,2.62-1.42,3.74-1.2,16.1,3.11,15.6,18.66,21.21,29.44,3.53,6.78,6,14.69-3.93,19.29-28.44,13.14-27.3,53.87,1.29,66.13,3.66,1.57,6.2,9.83,6.17,15,0,5.95-3.39,11.92-5.51,17.81-4.35,12.09-9.6,18.78-25.49,14.39-25.29-7-48.1,18.81-39.88,44.28,4,12.5.63,18.52-10.14,22.93-4.53,1.85-9,3.94-13.38,6-10.84,5.15-18.37,5.43-26.11-7.35-14.41-23.8-46.86-21.92-60.11,2.85-5.47,10.25-11.29,12.62-21.22,8.26-4.89-2.14-10-3.87-15-5.57-11.68-3.94-16.69-9.32-12.87-23.79,7-26.57-18-49.39-44.09-40.81-12.45,4.09-18.31.39-22.55-10.41-1.79-4.57-3.75-9.1-5.91-13.5-5.49-11.14-4.64-18.59,7.67-26.05,22.9-13.88,21.67-47-2-59.62-12.19-6.48-13.5-13.71-8.62-24.78,2-4.49,3.69-9.12,5.22-13.79,3.84-11.73,10.18-15.51,23.17-12C443.51,283.92,464.07,266.62,464,243.19Z"></path><ellipse class="cls-1" cx="537.89" cy="353.85" rx="68.71" ry="69.09"></ellipse></svg>