<svg xmlns="http://www.w3.org/2000/svg" id="Layer_1" data-name="Layer 1" viewBox="0 0 1080 1080"><defs><style>.cls-1{fill:#fff;stroke:#e17b7c;}.cls-1,.cls-2,.cls-3,.cls-4,.cls-5,.cls-6{stroke-miterlimit:10;stroke-width:15px;}.cls-2,.cls-3,.cls-4,.cls-5,.cls-6{fill:none;stroke:#4368b1;}.cls-3{stroke-dasharray:38.54 38.54;}.cls-4{stroke-dasharray:38.53 38.53;}.cls-5{stroke-dasharray:41.25 41.25;}.cls-6{stroke-dasharray:41.63 41.63;}.cls-7{fill:#e17b7c;}</style></defs><path class="cls-1" d="M68.16,293.54V124.85H23.81L115.07,13.43l92,112.35h-54.4q.15,84.29,0,168.53-.18,101.7-.8,203.42l-88.61-.45Z"></path><path class="cls-1" d="M733.46,916.52q30.51,1,61.62,1.62,79.32,1.47,154.92,0V873.79L1052.34,965l-103.19,92v-54.4q-76.15-.95-154.79,0-30.66.38-60.93,1Z"></path><line class="cls-2" x1="207.08" y1="13.43" x2="227.08" y2="13.43"></line><line class="cls-3" x1="265.63" y1="13.43" x2="1017.19" y2="13.43"></line><polyline class="cls-2" points="1036.46 13.43 1056.46 13.43 1056.46 33.43"></polyline><line class="cls-4" x1="1056.46" y1="71.96" x2="1056.46" y2="823.25"></line><line class="cls-2" x1="1056.46" y1="842.51" x2="1056.46" y2="862.51"></line><line class="cls-2" x1="233.97" y1="267.7" x2="253.97" y2="267.7"></line><line class="cls-5" x1="295.22" y1="267.7" x2="769.57" y2="267.7"></line><polyline class="cls-2" points="790.19 267.7 810.19 267.7 810.19 287.7"></polyline><line class="cls-6" x1="810.19" y1="329.33" x2="810.19" y2="808.08"></line><line class="cls-2" x1="810.19" y1="828.89" x2="810.19" y2="848.89"></line><rect class="cls-2" x="71.16" y="562.84" width="572.76" height="179.03" rx="25.95"></rect><rect class="cls-2" x="71.16" y="833.97" width="572.76" height="179.03" rx="25.95"></rect><line class="cls-2" x1="105.54" y1="741.86" x2="105.54" y2="833.97"></line><line class="cls-2" x1="604.35" y1="741.86" x2="604.35" y2="833.97"></line><rect class="cls-7" x="135.38" y="629.32" width="88.22" height="44.76" rx="22.38"></rect><rect class="cls-7" x="135.38" y="898.84" width="88.22" height="44.76" rx="22.38"></rect><circle class="cls-7" cx="560.57" cy="652.35" r="22.38"></circle><circle class="cls-7" cx="560.57" cy="923.49" r="22.38"></circle></svg>