<svg xmlns="http://www.w3.org/2000/svg" id="Layer_1" data-name="Layer 1" viewBox="0 0 1080 1080"><defs><style>.cls-1,.cls-5{fill:none;}.cls-1{stroke:#b7c7e6;}.cls-1,.cls-2,.cls-4,.cls-5{stroke-miterlimit:10;stroke-width:15px;}.cls-2,.cls-4{fill:#fff;}.cls-2{stroke:#4265b0;}.cls-3{fill:#22498a;}.cls-4,.cls-5{stroke:#e17b7c;}.cls-6{fill:#e17b7c;}.cls-7{fill:#4265b0;}</style></defs><rect class="cls-1" x="505.74" y="830.12" width="151.07" height="62.15"></rect><path class="cls-2" d="M683.68,186.4h343.78a38.92,38.92,0,0,1,38.92,38.92V791.68a38.92,38.92,0,0,1-38.92,38.92H151.28a38.92,38.92,0,0,1-38.92-38.92V225.32a38.92,38.92,0,0,1,38.92-38.92H504.65"></path><rect class="cls-3" x="524.38" y="758.05" width="125.54" height="20.23" rx="9.83"></rect><rect class="cls-2" x="342.16" y="892.75" width="490.35" height="100.95" rx="49.04"></rect><rect class="cls-4" x="271.08" y="503.83" width="162.66" height="104.2"></rect><rect class="cls-4" x="717.07" y="304.66" width="162.66" height="104.2"></rect><line class="cls-5" x1="443.8" y1="361.38" x2="556.37" y2="361.38"></line><path class="cls-6" d="M646.9,361.38c-42.6,15.8-95.45,42.77-128.21,71.34l25.8-71.34-25.8-71.33C551.45,318.62,604.3,345.59,646.9,361.38Z"></path><polyline class="cls-5" points="797.97 471.74 797.97 560.99 588.87 560.99"></polyline><path class="cls-6" d="M498.34,561c42.6-15.81,95.45-42.78,128.21-71.34L600.75,561l25.8,71.32C593.79,603.75,540.94,576.78,498.34,561Z"></path><path class="cls-4" d="M87.25,130.07c-.15-1.27-.32-3.5-.7-5.7-3.63-21-3.66-21.05,15.49-29.49,4.48-2,9.09-3.63,13.69-5.31,7.16-2.63,12.06-1.18,16.7,6,18.45,28.33,47.49,27.22,64.63-1.67,2-3.37,7.18-8.17,9.43-7.48a282.38,282.38,0,0,1,37,14.42c1.87.87,2.35,7.18,1.72,10.66-6.44,35.62,13.66,55.07,47.83,46,1.28-.34,2.62-1.42,3.74-1.2,16.1,3.11,15.6,18.66,21.21,29.43,3.53,6.78,6,14.7-3.93,19.3-28.44,13.14-27.3,53.87,1.29,66.13,3.66,1.57,6.2,9.83,6.17,15,0,5.95-3.39,11.92-5.51,17.81-4.35,12.09-9.59,18.78-25.49,14.39-25.29-7-48.1,18.81-39.88,44.28,4.05,12.5.63,18.52-10.14,22.93-4.53,1.85-9,3.94-13.38,6-10.84,5.15-18.37,5.43-26.11-7.35-14.41-23.8-46.86-21.92-60.11,2.85-5.47,10.25-11.29,12.62-21.22,8.26-4.89-2.14-10-3.87-15-5.57C93,385.74,88,380.36,91.79,365.89c7-26.57-18-49.39-44.09-40.81-12.45,4.09-18.31.39-22.55-10.41-1.79-4.57-3.75-9.1-5.91-13.5-5.49-11.14-4.64-18.59,7.67-26.05,22.9-13.88,21.67-47-2-59.62-12.19-6.48-13.5-13.71-8.62-24.78,2-4.49,3.69-9.12,5.22-13.79,3.84-11.73,10.18-15.51,23.17-12C66.8,170.8,87.36,153.5,87.25,130.07Z"></path><ellipse class="cls-4" cx="161.18" cy="240.73" rx="68.71" ry="69.09"></ellipse><line class="cls-2" x1="110.4" y1="708.9" x2="1062.72" y2="708.9"></line><circle class="cls-7" cx="587.68" cy="188.88" r="23.35"></circle></svg>