<svg xmlns="http://www.w3.org/2000/svg" id="Layer_1" data-name="Layer 1" viewBox="0 0 1080 1080"><defs><style>.cls-1{fill:none;stroke:#b7c7e6;}.cls-1,.cls-2,.cls-3{stroke-miterlimit:10;stroke-width:15px;}.cls-2,.cls-3{fill:#fff;}.cls-2{stroke:#4265b0;}.cls-3{stroke:#e17b7c;}</style></defs><line class="cls-1" x1="303" y1="215.82" x2="303" y2="512.6"></line><polyline class="cls-1" points="115.27 291.78 203.71 291.78 203.71 508.26"></polyline><circle class="cls-2" cx="64" cy="291.78" r="54.53"></circle><circle class="cls-2" cx="301.44" cy="169.09" r="54.53"></circle><line class="cls-1" x1="777" y1="215.82" x2="777" y2="512.6"></line><polyline class="cls-1" points="964.73 291.78 876.29 291.78 876.49 519.65"></polyline><circle class="cls-2" cx="1016" cy="291.78" r="54.53"></circle><circle class="cls-2" cx="778.56" cy="169.09" r="54.53"></circle><path class="cls-2" d="M1046.4,579.7c-29.39-12.6-50-34.28-61.7-59.5q-109.43-.59-218.84-.91a174.8,174.8,0,0,1-17.6,51.47,175.46,175.46,0,0,1-48.39,75.31,175.35,175.35,0,0,1-75.3,48.38q-41.84,22-90.16,20.15A233,233,0,0,1,416.3,682.66l-47.36-36.59a233.85,233.85,0,0,1-60.18-103.26q-1.77-13.21-3.55-26.43-80-.95-160-2.39l-1.59,0c-4.75,31-22.4,60.39-53.34,79.13-40.79,24.72-43.61,49.42-25.42,86.37,7.18,14.59,13.67,29.58,19.61,44.73,14,35.81,33.46,48.07,74.74,34.51,86.53-28.45,169.45,47.21,146.16,135.3-12.69,48,3.92,65.78,42.64,78.84,16.76,5.64,33.57,11.38,49.75,18.47,33,14.43,52.21,6.58,70.37-27.38,43.89-82.11,151.46-88.35,199.24-9.46,25.66,42.37,50.61,41.45,86.55,24.38,14.65-7,29.34-13.89,44.34-20,35.69-14.61,47-34.56,33.63-76-27.27-84.4,48.34-169.89,132.19-146.75,52.68,14.53,70.06-7.64,84.49-47.72,7-19.51,18.12-39.29,18.25-59C1067,612.28,1058.53,584.9,1046.4,579.7Z"></path><path class="cls-3" d="M473.64,566.86h127V237.25h65.92L537.93,81.8,411.79,237.25H472S472,565.23,473.64,566.86Z"></path></svg>