<svg xmlns="http://www.w3.org/2000/svg" id="Layer_1" data-name="Layer 1" viewBox="0 0 1080 1080"><defs><style>.cls-1{fill:none;}.cls-1,.cls-3{stroke:#4265b0;}.cls-1,.cls-3,.cls-4{stroke-miterlimit:10;stroke-width:15px;}.cls-2{fill:#e17b7c;}.cls-3,.cls-4{fill:#fff;}.cls-4{stroke:#e17b7c;}</style></defs><path class="cls-1" d="M228,632.29c-6.2-10-89.42-150.25-17.43-302.95,4.75-10.07,75.27-153.11,238.61-178.28,10.25-1.58,148.26-20.53,258.71,76.4,57,50,81,108.4,89.82,134,25.21,73,15.86,134.57,6.7,190.35q-1.64,9.92-3.54,19.59"></path><polyline class="cls-1" points="130.78 562.25 232.66 644.02 242.04 524.72"></polyline><path class="cls-1" d="M514.16,612.19c-9.72-.46-14.22-22.16-30.83-90.49-32.42-133.35-42.24-161.46-23.46-190.35,11.7-18,34.38-36.11,59-34.85,29.58,1.51,48.87,30.37,52.95,36.86,7.2,11.47,23.13,42.67-17.42,184.32C537.53,576.5,526.88,612.78,514.16,612.19Z"></path><circle class="cls-1" cx="516.17" cy="692.62" r="38.2"></circle><rect class="cls-2" x="497" y="17.26" width="38.63" height="88.75" rx="18.69"></rect><rect class="cls-2" x="206.71" y="127.42" width="38.63" height="88.75" rx="18.69" transform="translate(-56.68 197.81) rotate(-42.49)"></rect><rect class="cls-2" x="782.45" y="145.82" width="38.63" height="88.75" rx="18.69" transform="translate(1264.46 872.04) rotate(-137.51)"></rect><rect class="cls-2" x="892.22" y="438.06" width="38.63" height="88.75" rx="18.69" transform="translate(1393.97 -429.09) rotate(90)"></rect><rect class="cls-2" x="76.98" y="413.39" width="38.63" height="88.75" rx="18.69" transform="translate(554.06 361.48) rotate(90)"></rect><path class="cls-3" d="M334.63,841.11H716.79a0,0,0,0,1,0,0V989.91a0,0,0,0,1,0,0H405.36a70.74,70.74,0,0,1-70.74-70.74V841.11A0,0,0,0,1,334.63,841.11Z"></path><path class="cls-1" d="M431.54,989.91H576.61a0,0,0,0,1,0,0v51.33a21.51,21.51,0,0,1-21.51,21.51H448.21a16.67,16.67,0,0,1-16.67-16.67V989.91A0,0,0,0,1,431.54,989.91Z"></path><path class="cls-4" d="M720.76,615.8c.32-1.87,1-5.13,1.41-8.44,3.66-31.55,3.64-31.62,34.55-35.6,7.23-.93,14.53-1.36,21.8-1.83,11.34-.73,17.73,3.41,21.36,15.55,14.42,48.26,56.39,58.9,93,24.84,4.27-4,13.69-8.64,16.62-6.71a420.3,420.3,0,0,1,46.78,36.19c2.31,2,.33,11.25-2,16-24.21,48.18-3.69,84.44,49,85.84,2,0,4.34-.93,5.86-.14,21.68,11.23,14.42,33.23,17.89,51,2.19,11.17,2.44,23.54-13.74,25.91-46.18,6.79-61.72,65.47-26,95,4.57,3.78,4.72,16.66,2.51,24-2.57,8.48-9.86,15.6-15.37,23.12-11.32,15.44-21.63,22.79-42.49,9.82-33.2-20.63-76.66,6.61-75.64,46.46.51,19.57-6.91,26.73-24.16,28.49-7.24.74-14.46,1.86-21.66,3-17.66,2.79-28.53,0-34.21-21.51-10.56-40.08-57.73-51.06-87.08-21.25-12.15,12.33-21.45,13.26-33.82,2.85-6.07-5.11-12.59-9.72-19.09-14.28-15-10.55-19.93-20.35-8.36-39.41,21.24-35-4.89-78.16-45.81-76.9-19.51.6-26.33-7.16-27.83-24.38-.63-7.28-1.52-14.57-2.76-21.77-3.15-18.24,1.21-28.53,21.93-34,38.58-10.18,50.79-58,22.24-86-14.68-14.39-13.51-25.28-1.87-39,4.72-5.58,9.12-11.48,13.27-17.5,10.43-15.15,21.09-17.89,38.19-7.45C674.37,665.38,711.05,649.33,720.76,615.8Z"></path><ellipse class="cls-4" cx="779.77" cy="805.07" rx="102.93" ry="102.36" transform="translate(-212.99 1325.27) rotate(-73.57)"></ellipse></svg>