<svg xmlns="http://www.w3.org/2000/svg" id="Layer_1" data-name="Layer 1" viewBox="0 0 1080 1080"><defs><style>.cls-1{fill:#fff;}.cls-2{fill:none;stroke:#fefefe;stroke-miterlimit:10;stroke-width:13.85px;}</style></defs><path class="cls-1" d="M466.32,499.75q-74.49,0-149,0c-11.34,0-19.39-8.37-18.12-19a21.57,21.57,0,0,1,2.76-7.84q43.62-75.75,87.39-151.42Q420.13,268.23,450.89,215c7.42-12.8,23.41-12.76,30.82,0q6.1,10.49,12.16,21,68.31,118.29,136.64,236.56c7.72,13.36-.13,27.21-15.56,27.22Q540.64,499.79,466.32,499.75Zm-.35-13c49,0,98-.1,146.93.11,6.87,0,9.55-3,5.5-9.13-4.16-6.25-7.61-13-11.37-19.48q-68-117.7-136-235.35c-1-1.73-3-3.75-4.76-3.92-1.42-.13-3.6,2-4.55,3.64q-69,119.22-137.84,238.56c-3.59,6.22-7.24,12.41-10.75,18.68-2.13,3.79-.43,6.66,3.89,6.88.68,0,1.35,0,2,0Z"></path><path class="cls-1" d="M486.26,303c-1,9.62-2.16,20.34-3.32,31.06Q479,370.37,475,406.7c-.67,6.2-5.19,9.79-10.79,8.51-3.75-.87-6.11-3.67-6.58-8q-3.47-31.8-6.91-63.62c-1.41-13.06-2.87-26.12-4.19-39.19A23.06,23.06,0,0,1,453,285.28c8.39-8.61,21.27-7.6,28.41,2.12C484.59,291.71,486.11,296.56,486.26,303Z"></path><path class="cls-1" d="M450,441.13a16.39,16.39,0,1,1,16.26,16.61A16.34,16.34,0,0,1,450,441.13Z"></path><polyline class="cls-2" points="824.79 1022.78 94.56 1022.78 94.56 10.45 836.75 10.45 836.75 747.27"></polyline><circle class="cls-2" cx="468.62" cy="353.34" r="290.94"></circle><path class="cls-2" d="M747.93,660.35,677.26,556"></path><path class="cls-2" d="M585.06,620.36,652,724.71"></path><path class="cls-2" d="M633.55,738.12l134.59-91L968.69,940c3.07,3.18,17,18.32,16.74,41.36a58.39,58.39,0,0,1-10.51,32.4L916.57,1062a60,60,0,0,1-73.23-11.88Z"></path><path class="cls-2" d="M168.78,743.72l468.07-2"></path><path class="cls-2" d="M165.57,841.83l535.6-2.25"></path><path class="cls-2" d="M165.57,942.91l603.72-2.54"></path></svg>