<svg xmlns="http://www.w3.org/2000/svg" xmlns:xlink="http://www.w3.org/1999/xlink" id="Layer_1" data-name="Layer 1" viewBox="0 0 2000 1334"><defs><style>.cls-1,.cls-10,.cls-24,.cls-27,.cls-3{fill:#fff;}.cls-1{stroke:#0e316d;}.cls-1,.cls-10,.cls-12,.cls-13,.cls-14,.cls-15,.cls-16,.cls-17,.cls-24,.cls-25,.cls-27,.cls-28,.cls-3,.cls-30,.cls-32,.cls-33,.cls-35,.cls-5,.cls-6,.cls-8,.cls-9{stroke-miterlimit:10;}.cls-1,.cls-35{stroke-width:2px;}.cls-11,.cls-12,.cls-18,.cls-19,.cls-2,.cls-21,.cls-22,.cls-23,.cls-26,.cls-34{fill:#4267af;}.cls-12,.cls-16,.cls-24,.cls-25,.cls-27,.cls-28,.cls-3,.cls-33,.cls-6,.cls-8{stroke:#4267af;}.cls-3{stroke-width:1.06px;}.cls-13,.cls-4{fill:#e07b7b;}.cls-15,.cls-16,.cls-17,.cls-25,.cls-28,.cls-30,.cls-32,.cls-33,.cls-35,.cls-5,.cls-6,.cls-8,.cls-9{fill:none;}.cls-13,.cls-15,.cls-30,.cls-32,.cls-5,.cls-9{stroke:#e07b7b;}.cls-5{stroke-width:0.79px;}.cls-6{stroke-width:1.58px;}.cls-14,.cls-7{fill:#cadaf3;}.cls-10{stroke:#123b77;stroke-width:0.74px;}.cls-11,.cls-26{font-size:18px;}.cls-11{font-family:Poppins-Regular, Poppins;}.cls-12,.cls-13,.cls-14{stroke-width:8.65px;}.cls-14,.cls-17,.cls-35{stroke:#cadaf3;}.cls-15,.cls-16,.cls-17{stroke-width:0.62px;}.cls-18{font-size:10.5px;}.cls-18,.cls-19,.cls-20,.cls-21,.cls-22,.cls-23{font-family:Poppins-Medium, Poppins;}.cls-18,.cls-19,.cls-20,.cls-21,.cls-22,.cls-23,.cls-26,.cls-34{font-weight:500;}.cls-19{font-size:30.42px;}.cls-20{font-size:8.45px;}.cls-21{font-size:6.54px;}.cls-22{font-size:7px;}.cls-23{font-size:5.56px;}.cls-24{stroke-width:0.53px;}.cls-25{stroke-width:0.49px;}.cls-26,.cls-34{font-family:Poppins-MediumItalic, Poppins;font-style:italic;}.cls-28{stroke-width:0.67px;}.cls-29{fill:url(#linear-gradient);}.cls-30{stroke-width:1.78px;}.cls-31{fill:#b0bec5;}.cls-32{stroke-width:3px;}.cls-33{stroke-width:0.5px;}.cls-34{font-size:42px;}</style><linearGradient id="linear-gradient" x1="648.33" y1="359.51" x2="648.33" y2="263.35" gradientUnits="userSpaceOnUse"><stop offset="0" stop-color="#fff"></stop><stop offset="0.41" stop-color="#e07b7b"></stop><stop offset="1" stop-color="#e07b7b"></stop></linearGradient></defs><rect class="cls-1" x="499.24" y="467.97" width="1001.53" height="637.13" rx="59.02"></rect><line class="cls-1" x1="499.24" y1="592.84" x2="1500.76" y2="592.84"></line><path class="cls-2" d="M435,246.93V811.38h3V246.93a31.53,31.53,0,0,0-31.5-31.5H65.8a28.54,28.54,0,0,1-28.5-28.5V4.07h-3V186.93a31.54,31.54,0,0,0,31.5,31.5H406.5A28.54,28.54,0,0,1,435,246.93Z"></path><path class="cls-2" d="M1690.12,1132.72c-17.37,0-31.5-14.62-31.5-32.59V799.56h-13.08l14.58-15.08,14.58,15.08h-13.08v300.57c0,16.26,12.79,29.49,28.5,29.49H2000v3.1Z"></path><path class="cls-3" d="M181,285.61V482.33c0,14.1,13,25.54,29,25.54H598.39c16,0,29-11.44,29-25.54V285.61c0-14.11-13-25.54-29-25.54H210.05C194,260.07,181,271.5,181,285.61Z"></path><path class="cls-2" d="M387.32,404.09h76.37c0,41.9-34.48,76.37-76.37,76.37S311,446,311,404.09s34.48-76.36,76.37-76.36A76.4,76.4,0,0,1,425.5,338Z"></path><path class="cls-4" d="M402.06,396.2l38.19-66.14a76.36,76.36,0,0,1,38.18,66.14Z"></path><polyline class="cls-5" points="452.28 363.13 485.55 329.86 586.18 329.86"></polyline><polyline class="cls-6" points="341.94 437.67 316.87 467.9 197.97 467.9"></polyline><rect class="cls-4" x="584.5" y="324.13" width="11.39" height="11.39"></rect><rect class="cls-2" x="188.48" y="462.2" width="11.39" height="11.39"></rect><rect class="cls-7" x="531" y="446.89" width="3.36" height="27.85"></rect><rect class="cls-7" x="541.03" y="440.87" width="3.36" height="33.87"></rect><rect class="cls-7" x="551.06" y="426.13" width="3.36" height="48.61"></rect><rect class="cls-7" x="561.09" y="437.2" width="3.36" height="37.53"></rect><rect class="cls-7" x="571.11" y="440.87" width="3.36" height="33.87"></rect><rect class="cls-7" x="581.14" y="412.84" width="3.36" height="61.9"></rect><path class="cls-4" d="M1638.35,999.09c.37-.55.76-1.09,1.12-1.66l20.7-32.52c0-.09.11-.17.22-.33l22,34.58-.47,0h-43.57Z"></path><path class="cls-4" d="M414.74,606.85c.38.56.76,1.1,1.12,1.66L436.56,641l.22.32,22-34.58-.46,0H414.74Z"></path><path class="cls-2" d="M1904.06,932.38h-48.79a8.94,8.94,0,0,1-8.94-8.94V906.58a8.94,8.94,0,0,1,8.94-8.94h48.79a8.94,8.94,0,0,1,8.94,8.94v16.86A8.94,8.94,0,0,1,1904.06,932.38Zm-.53-9.71V907.93a7.82,7.82,0,0,0-7.82-7.81h-33.14a7.81,7.81,0,0,0-7.81,7.81v14.74a7.81,7.81,0,0,0,7.81,7.81h33.14A7.81,7.81,0,0,0,1903.53,922.67Z"></path><path class="cls-8" d="M1928.49,908H1879.7a8.94,8.94,0,0,1-8.94-8.94V882.15a8.94,8.94,0,0,1,8.94-8.94h48.79a8.94,8.94,0,0,1,8.94,8.94V899A8.94,8.94,0,0,1,1928.49,908Zm-.53-9.71V883.5a7.82,7.82,0,0,0-7.82-7.81H1887a7.82,7.82,0,0,0-7.82,7.81v14.74a7.81,7.81,0,0,0,7.82,7.81h33.13A7.81,7.81,0,0,0,1928,898.24Z"></path><path class="cls-9" d="M1607.19,299.74h-48.78a8.93,8.93,0,0,1-8.94-8.93V273.94a8.93,8.93,0,0,1,8.94-8.93h48.78a8.93,8.93,0,0,1,8.94,8.93v16.87A8.93,8.93,0,0,1,1607.19,299.74Zm-.53-9.71V275.3a7.82,7.82,0,0,0-7.81-7.82h-33.14a7.81,7.81,0,0,0-7.81,7.82V290a7.81,7.81,0,0,0,7.81,7.82h33.14A7.82,7.82,0,0,0,1606.66,290Z"></path><path class="cls-4" d="M1631.63,275.31h-48.79a8.94,8.94,0,0,1-8.94-8.94V249.51a8.93,8.93,0,0,1,8.94-8.93h48.79a8.93,8.93,0,0,1,8.93,8.93v16.86A8.93,8.93,0,0,1,1631.63,275.31Zm-.54-9.71V250.86a7.81,7.81,0,0,0-7.81-7.81h-33.14a7.81,7.81,0,0,0-7.81,7.81V265.6a7.82,7.82,0,0,0,7.81,7.82h33.14A7.82,7.82,0,0,0,1631.09,265.6Z"></path><rect class="cls-10" x="759.53" y="663.86" width="226.72" height="378.99" rx="15.17"></rect><text class="cls-11" transform="translate(791.03 702.98)">Patient Satisfaction</text><path class="cls-12" d="M872.89,732.76A62.29,62.29,0,1,0,935.17,795,62.29,62.29,0,0,0,872.89,732.76Zm0,113.79A51.51,51.51,0,1,1,924.39,795,51.51,51.51,0,0,1,872.89,846.55Z"></path><path class="cls-13" d="M892,735.75,888.65,746a51.52,51.52,0,0,1,14.89,90.44L910,845.1a62.28,62.28,0,0,0-18-109.35Z"></path><path class="cls-14" d="M903.54,836.44a51.5,51.5,0,0,1-82.12-39.62l-10.76.37A62.27,62.27,0,0,0,910,845.1Z"></path><polyline class="cls-15" points="934.69 787.26 946.3 772.99 974.51 772.99"></polyline><polyline class="cls-16" points="829.95 756.52 815.33 740.87 791.03 740.87"></polyline><polyline class="cls-17" points="816.57 824.27 810.49 844.24 784.03 844.24"></polyline><text class="cls-18" transform="translate(948.18 767.93)">42%</text><text class="cls-18" transform="translate(792.91 733.54)">20%</text><text class="cls-18" transform="translate(785.5 838.03)">30%</text><rect class="cls-2" x="798.47" y="878.14" width="6.28" height="6.28"></rect><rect class="cls-4" x="847.28" y="878.14" width="6.28" height="6.28"></rect><rect class="cls-7" x="885.78" y="878.14" width="6.28" height="6.28"></rect><text class="cls-19" transform="translate(842.66 798.71)">80%</text><text class="cls-20" transform="translate(856.31 809.78)">Positive</text><text class="cls-21" transform="translate(807.58 883.35)">Excellent</text><text class="cls-21" transform="translate(856.31 883.35)">Good</text><text class="cls-21" transform="translate(895 883.35)">Neutral Positive</text><text class="cls-22" transform="translate(777.86 917.29)">The Doctor Explained the treatment understandably</text><text class="cls-23" transform="translate(777.86 941.02)">Fully Agree</text><text class="cls-23" transform="translate(777.86 961)">Rather Agree</text><text class="cls-23" transform="translate(777.86 981.38)">Rather Disagree</text><text class="cls-23" transform="translate(777.86 1001.77)">Fully Disagree</text><text class="cls-23" transform="translate(777.86 1023.39)">Don’t Know</text><rect class="cls-4" x="839.22" y="932.58" width="78.04" height="11.74"></rect><rect class="cls-4" x="839.22" y="952.97" width="47.16" height="11.74"></rect><rect class="cls-4" x="839.22" y="973.35" width="29.65" height="11.74"></rect><rect class="cls-4" x="839.22" y="993.64" width="18.84" height="11.74"></rect><rect class="cls-4" x="839.22" y="1015.67" width="7.21" height="11.74"></rect><text class="cls-23" transform="translate(923.85 941.02)">45%</text><text class="cls-23" transform="translate(892.06 961)">24%</text><text class="cls-23" transform="translate(872.89 981.38)">17%</text><text class="cls-23" transform="translate(864.6 1001.41)">96%</text><text class="cls-23" transform="translate(851.93 1023.39)">49%</text><circle class="cls-2" cx="1903.53" cy="1131.72" r="18"></circle><circle class="cls-2" cx="197.97" cy="217.06" r="18"></circle><rect class="cls-24" x="1570.56" y="588.64" width="171.24" height="227.47" rx="28.86"></rect><path class="cls-25" d="M1570.56,771.89H1741.8a0,0,0,0,1,0,0v15.37a28.86,28.86,0,0,1-28.86,28.86H1599.41a28.86,28.86,0,0,1-28.86-28.86V771.89A0,0,0,0,1,1570.56,771.89Z"></path><text class="cls-26" transform="translate(1596.59 799.16)">Success Rate</text><path class="cls-4" d="M1702,619.54a3.64,3.64,0,0,1,2.13,3.75c-.06,5.69,0,11.37,0,17.05,0,.27,0,.54,0,.8-.18,1.79-1.34,3-2.85,2.91a2.83,2.83,0,0,1-2.68-3.07c0-3.38,0-6.75,0-10.13v-1.73c-.49.43-.81.68-1.1,1l-30.12,30.14c-2,2-3.16,2-5.17,0-3-3-6-6-9-9.07l-.87-.82c-2.79,2.81-5.52,5.59-8.28,8.35l-42,42c-.19.19-.38.38-.58.56-1.37,1.18-3,1.21-4.06.09s-1-2.7.23-4c2.33-2.38,4.7-4.72,7.05-7.08l44.54-44.54c.25-.25.49-.51.75-.75,1.57-1.48,3.14-1.53,4.69,0,3.06,3,6.06,6,9.09,9,.31.3.64.59,1,.94l29.36-29.74H1683.3c-2.13,0-3.21-.71-3.53-2.28s.4-2.45,2.24-3.28Z"></path><path class="cls-4" d="M1680.2,701.83l5.26-.68V658.38c0-3,.86-3.83,3.9-3.84h8.79c2.7,0,3.58.9,3.58,3.6q0,23.29,0,46.61a2.22,2.22,0,0,0,1,2,26.53,26.53,0,0,1,10.93,21.64,27,27,0,0,1-20.06,26.51c-11.63,3.05-22.64-.93-29.68-10.67A26.5,26.5,0,0,1,1659,730.9a27.47,27.47,0,0,1,4.37-17.44,3.89,3.89,0,0,0,.49-2q0-19.44,0-38.89c0-2.72,1-3.68,3.68-3.68h8.92c2.74,0,3.68.94,3.68,3.66q0,13.92,0,27.84Zm6.07,48.55a21.84,21.84,0,1,0-21.82-21.73A21.85,21.85,0,0,0,1686.27,750.38Zm4.72-90.26v1.45q0,19.17,0,38.35a5.24,5.24,0,0,0,0,1.19,1,1,0,0,0,.51.65c1.49.41,3,.76,4.54,1.14V660.12Zm-21.45,46.66c1.44-.84,2.73-1.69,4.11-2.37a1.78,1.78,0,0,0,1.08-1.88c0-8.92,0-17.85,0-26.77,0-.42,0-.85-.07-1.26h-5.1Z"></path><path class="cls-4" d="M1658.68,712.36v23.85c0,3-.86,3.9-3.86,3.91s-6,0-8.93,0c-2.47,0-3.5-1-3.5-3.47q0-24.18,0-48.36c0-2.63,1-3.64,3.61-3.65,3,0,6,0,9.06,0,2.62,0,3.61,1,3.62,3.62ZM1648,690.21v44.3h5.08v-44.3Z"></path><path class="cls-4" d="M1620.61,715.37q0-10.26,0-20.51c0-3,.9-3.89,3.89-3.89h8.78c2.54,0,3.62,1,3.62,3.52q0,20.89,0,41.8c0,2.52-1.05,3.53-3.58,3.54-3.11,0-6.22,0-9.32,0-2.39,0-3.39-1-3.39-3.42C1620.6,729.39,1620.61,722.38,1620.61,715.37Zm5.61-18.79v37.93h5.07V696.58Z"></path><path class="cls-4" d="M1598.83,727.18c0-3.06,0-6.12,0-9.18,0-2.21,1.06-3.27,3.26-3.29,3.24,0,6.47,0,9.71,0,2.18,0,3.28,1.11,3.29,3.29q0,9.3,0,18.62c0,2.13-1.08,3.18-3.22,3.2-3.23,0-6.47,0-9.71,0-2.42,0-3.32-1-3.33-3.46C1598.82,733.3,1598.83,730.24,1598.83,727.18Zm5.57,7.34h5v-14.2h-5Z"></path><path class="cls-27" d="M534.36,214.51V367.08c0,10.94,6.8,19.8,15.18,19.8h203c8.38,0,15.18-8.86,15.18-19.8V214.51c0-10.94-6.8-19.81-15.18-19.81h-203C541.16,194.7,534.36,203.57,534.36,214.51Z"></path><polyline class="cls-28" points="549.11 263.35 549.11 362.11 750.94 362.11"></polyline><polygon class="cls-29" points="549.11 312.73 575.46 284.14 591.06 298.43 601.51 319.66 623.77 312.73 644.4 276.34 674.59 263.35 690.19 295.4 706.79 306.66 721.38 299.73 735.98 277.21 747.55 291.5 747.55 359.51 549.11 359.51 549.11 312.73"></polygon><circle class="cls-30" cx="436" cy="826.82" r="15.43"></circle><rect class="cls-31" x="542.71" y="676.41" width="140.29" height="6.57" rx="3.28"></rect><rect class="cls-31" x="542.71" y="729.63" width="140.29" height="6.57" rx="3.28"></rect><rect class="cls-7" x="1044.04" y="707.68" width="385.71" height="6.57" rx="3.28"></rect><rect class="cls-7" x="1044.04" y="733.59" width="385.71" height="6.57" rx="3.28"></rect><rect class="cls-7" x="1044.04" y="757.44" width="198.46" height="6.57" rx="3.28"></rect><rect class="cls-7" x="1044.04" y="883.59" width="50.96" height="6.57" rx="3.28"></rect><rect class="cls-7" x="1044.04" y="863.29" width="83.96" height="6.57" rx="3.28"></rect><rect class="cls-7" x="1188.2" y="883.59" width="56.3" height="6.57" rx="3.28"></rect><rect class="cls-7" x="1188.2" y="863.29" width="83.96" height="6.57" rx="3.28"></rect><rect class="cls-7" x="1333.86" y="883.59" width="19.64" height="6.57" rx="3.28"></rect><rect class="cls-7" x="1333.86" y="863.29" width="83.96" height="6.57" rx="3.28"></rect><rect class="cls-7" x="1032.61" y="1034.46" width="106.82" height="6.57" rx="3.28"></rect><rect class="cls-7" x="1176.76" y="1034.46" width="106.82" height="6.57" rx="3.28"></rect><rect class="cls-7" x="1314.76" y="1034.46" width="106.82" height="6.57" rx="3.28"></rect><rect class="cls-31" x="542.71" y="784.81" width="140.29" height="6.57" rx="3.28"></rect><rect class="cls-31" x="542.71" y="839.98" width="140.29" height="6.57" rx="3.28"></rect><rect class="cls-31" x="542.71" y="895.16" width="140.29" height="6.57" rx="3.28"></rect><rect class="cls-31" x="542.71" y="950.33" width="140.29" height="6.57" rx="3.28"></rect><rect class="cls-31" x="542.71" y="1005.51" width="140.29" height="6.57" rx="3.28"></rect><circle class="cls-31" cx="555.91" cy="526.52" r="10.45"></circle><circle class="cls-31" cx="586.72" cy="526.52" r="10.45"></circle><circle class="cls-31" cx="616.96" cy="526.52" r="10.45"></circle><circle class="cls-7" cx="1084.51" cy="820.85" r="27.51"></circle><circle class="cls-7" cx="1230.18" cy="820.85" r="27.51"></circle><circle class="cls-7" cx="1375.84" cy="820.85" r="27.51"></circle><rect class="cls-7" x="1032.61" y="950.33" width="106.82" height="64.47"></rect><rect class="cls-7" x="1176.76" y="950.33" width="106.82" height="64.47"></rect><rect class="cls-7" x="1314.76" y="950.33" width="106.82" height="64.47"></rect><polyline class="cls-32" points="1674.73 728.22 1681 735.53 1698.33 721.56"></polyline><text class="cls-26" transform="translate(215.97 296.39)">Accountability</text><line class="cls-33" x1="207.5" y1="304.67" x2="352.5" y2="304.67"></line><line class="cls-33" x1="782.5" y1="707.68" x2="970.5" y2="707.68"></line><text class="cls-34" transform="translate(1044.04 674.5)">Practice Health</text><rect class="cls-7" x="280" y="950.33" width="61.94" height="61.94" rx="9.9" transform="translate(784.96 67.53) rotate(45)"></rect><rect class="cls-35" x="309.25" y="946.08" width="61.94" height="61.94" rx="9.9" transform="translate(790.53 45.6) rotate(45)"></rect><rect class="cls-7" x="1097.68" y="100.28" width="61.94" height="61.94" rx="9.9" transform="translate(423.38 -759.63) rotate(45)"></rect><rect class="cls-35" x="1126.93" y="96.03" width="61.94" height="61.94" rx="9.9" transform="translate(428.94 -781.56) rotate(45)"></rect></svg>